<svg id="Layer_1" data-name="Layer 1" xmlns="http://www.w3.org/2000/svg" viewBox="0 0 341.73 556.6"><defs><style>.cls-1{fill:#fff;}</style></defs><path d="M1009.06,55.83c-.13,1.83-.11,3.69-.42,5.49a57.11,57.11,0,0,0-.81,9.41,53.63,53.63,0,0,1-.83,10.19,34.4,34.4,0,0,0-.36,3.92c-.08,1-.06,2.11-.2,3.15a144.94,144.94,0,0,0-1.14,17.29,18.34,18.34,0,0,1-.31,3.13,51.15,51.15,0,0,0-.88,10.19,33.64,33.64,0,0,1-.31,5.5,72.33,72.33,0,0,0-.62,11,91.74,91.74,0,0,1-.83,14.15,30.17,30.17,0,0,0-.29,3.93,58,58,0,0,1-.94,10.18,11.65,11.65,0,0,0-.25,2.35,114.22,114.22,0,0,1-1.54,15.67c-.8,5.46-1.2,11-2.08,16.41-.25,1.55-.31,3.13-.46,4.7a36.38,36.38,0,0,1-.39,3.92,93.89,93.89,0,0,0-1.15,10.17c-.4,4.18-.87,8.37-1.59,12.5q-2.24,12.81-3.77,25.71c-.83,7-1.85,14-2.7,21.09-1.16,4.07-1.13,8.32-1.79,12.46a30.06,30.06,0,0,0-.39,3.13,150.31,150.31,0,0,1-2.6,20.29c-.32,4.46-1.33,8.83-1.73,13.28-.42,4.71-1.2,9.38-1.51,14.1-.16,2.35-.73,4.67-1.08,7-1,6.75-2,13.51-2.83,20.28-.48,3.64-1.17,7.26-1.8,10.88-.67,3.88-1.45,7.74-2.08,11.63-1.46,8.95-2.64,15.72-4.68,23.95a69.45,69.45,0,0,0-2.09,14,90.53,90.53,0,0,1-2.1,14.79c-.53,2.58-.94,5.17-1.5,7.73a29.82,29.82,0,0,0-.74,7,15.85,15.85,0,0,1-.87,5.41,11.15,11.15,0,0,0-.48,3.1c-.13,8.14-1.28,16.23-1.28,24.39-.62,7.06-1.23,14.13-1.32,21.22-.79,6.8-.57,13.64-.7,20.47-.06,3.67-.1,7.34-.43,11a70.39,70.39,0,0,0,.28,13.38,37.11,37.11,0,0,1,.12,7.07,38.38,38.38,0,0,0,.25,10.21c.23,1.29.48,2.58.65,3.88a6.39,6.39,0,0,1-3.43,6.54,6.69,6.69,0,0,1-2.22.74,32.58,32.58,0,0,0-6.22.95,31.84,31.84,0,0,1-7,1.11c-1.31.09-2.62.18-3.94.21A114.68,114.68,0,0,0,918,587.47a55.28,55.28,0,0,1-11.78.7,25.28,25.28,0,0,1-3.14-.3,9.37,9.37,0,0,1-5.52-2.77,26.39,26.39,0,0,1-3.8-5,91.34,91.34,0,0,1-6.12-12.78c-1.31-3.44-2.79-6.8-4.38-10.12-.67-1.42-1.3-2.87-1.83-4.35-1.31-3.71-2.85-7.34-4.15-11.05-1.83-5.21-4-10.27-6.18-15.33-2.69-6.28-5.27-12.59-7.67-19-1.48-3.93-3.12-7.8-4.72-11.68-3.08-7.54-6.14-15.08-8.72-22.8a2.46,2.46,0,0,0-2.5-1.45,69.19,69.19,0,0,0-7.07.52c-4.16.7-8.37.77-12.55,1.13-1.31.11-2.61.28-3.9.5a2.61,2.61,0,0,0-1.86,1.3,23.29,23.29,0,0,0-1.12,2.08,132.53,132.53,0,0,1-7,13.24c-1.76,2.92-3.27,6-4.91,9-3.8,6.91-7.5,13.87-11.46,20.68s-7.62,13.79-11.47,20.66c-2.56,4.59-5.17,9.14-7.53,13.84a113.9,113.9,0,0,1-6.42,10.84c-1.58,2.42-3.16,4.84-4.61,7.34-2.77,4.77-5.66,9.47-8.81,14a41.17,41.17,0,0,0-3.87,6.85,33.46,33.46,0,0,1-3.53,6.14,18.36,18.36,0,0,1-7.29,5.86,6,6,0,0,1-1.48.51c-3.61.68-7.22,1.38-10.85,2a36.17,36.17,0,0,1-5.48.6c-6.59.08-13.06,1.28-19.6,1.84-3.4.29-6.76,1-10.12,1.55a32.7,32.7,0,0,1-5.49.44,7.8,7.8,0,0,1-7.63-5.75,66.5,66.5,0,0,1-2.32-10.76c-.76-7-1.63-14.09-2.12-21.17a86,86,0,0,0-1.25-11,62.18,62.18,0,0,1-.61-6.27c-.24-2.35-.36-4.72-.78-7a105.39,105.39,0,0,1-1.31-11.74,63,63,0,0,0-1.11-9.38,54.77,54.77,0,0,1-1.06-9.39c-.21-5-.67-10-1.27-14.91-.54-4.43-.65-8.91-.92-13.36-.36-6-.58-12.07-1.38-18.07-.21-1.56-.23-3.14-.31-4.72-.6-11-.89-22.05-1.17-33.08-.16-6.3-.33-12.61-.44-18.91-.06-3.41,0-6.83,0-10.24,0-2.37,0-4.73,0-7.1a86.28,86.28,0,0,1,.24-11,30,30,0,0,0,.11-3.15c0-9.19.16-18.39,0-27.58-.13-6.84-.16-13.66.27-20.48.07-1,0-2.1,0-3.15,0-5.51.06-11,0-16.55s-.05-11-.16-16.55c-.21-10-.4-20-.16-29.94,0-.79,0-1.59.06-2.37a156.33,156.33,0,0,0,.28-18.11c-.2-12.09-.44-24.17-.65-36.25a216.27,216.27,0,0,1,.51-22.05c.22-2.62.21-5.25.26-7.88a133,133,0,0,1,.75-13.37c.31-2.6.23-5.24.34-7.87a103.81,103.81,0,0,1,.72-11c.26-1.81.31-3.66.39-5.5a76.11,76.11,0,0,1,.82-9.41,40.42,40.42,0,0,0,.48-5.5c.11-3.42.9-6.77,1.15-10.17s.51-6.81.78-10.21c.14-1.84.37-3.66.47-5.5a112.43,112.43,0,0,1,1-12.56c.25-1.55.2-3.14.3-4.72s.07-3.16.3-4.72c.66-4.69.9-9.4,1.16-14.13A19.45,19.45,0,0,1,678,63.69ZM818.66,327.27a193.14,193.14,0,0,1,19.69-.53c.79,0,1.58,0,2.37,0a2.65,2.65,0,0,0,2.86-2.08c.53-2,1-4.08,1.6-6.09a33.13,33.13,0,0,1,1.55-4.46c2.14-4.72,5.36-8.38,10.35-10.25,1.47-.55,2.93-1.14,4.38-1.73a1.53,1.53,0,0,0,.94-1.2c.2-1,.48-2,.59-3.08.27-2.61.28-5.27.76-7.84.93-4.94.68-9.95,1-14.92.2-3.14,0-6.3-.06-9.45a3.34,3.34,0,0,0-.85-2.16,14.08,14.08,0,0,0-5.74-4c-2-.66-4-1.36-6-2a11.28,11.28,0,0,0-6.23-.11,23.47,23.47,0,0,0-7.22,3.05c-4.88,3.19-5.92,4.08-7.65,9.51a56.34,56.34,0,0,1-2.09,5.93,6.13,6.13,0,0,1-6.36,3.7,6.37,6.37,0,0,1-5.41-5c-.11-.78-.19-1.56-.24-2.35a10.5,10.5,0,0,1,1.21-6.07c1.16-2,2-4.26,3-6.41a14.49,14.49,0,0,1,3.16-4.49,31.74,31.74,0,0,1,3.55-3.11,64.15,64.15,0,0,1,5.95-3.84,29.55,29.55,0,0,1,15-4.08,23.45,23.45,0,0,1,7.76,1.06c7.28,2.63,6.26,1.08,14.14,6.64a5.57,5.57,0,0,0,1.44.61,1.17,1.17,0,0,0,.74,0,11.47,11.47,0,0,0,1.41-.69,18.45,18.45,0,0,1,6.65-2.32c1.3-.17,2.58-.49,3.86-.78a18.35,18.35,0,0,1,6.27-.23c1,.13,2.08.36,3.12.45,3.46.29,6.59,1.69,9.75,2.95a9.06,9.06,0,0,1,2,1.17c1.26.94,2.48,1.95,3.7,2.94a19.87,19.87,0,0,1,3.76,4c.76,1.07,1.54,2.14,2.37,3.15a33.08,33.08,0,0,1,4.12,6.69,14.08,14.08,0,0,1,1.29,7.66,5.84,5.84,0,0,1-1.62,3.51,7,7,0,0,1-4.1,2.15,2.62,2.62,0,0,1-.79,0,6.9,6.9,0,0,1-5.48-4,5,5,0,0,1-.49-1.5,13.37,13.37,0,0,0-2.93-6.36c-1.14-1.44-2.23-2.93-3.45-4.3a15.58,15.58,0,0,0-10.26-5.29,24.81,24.81,0,0,0-9.36.69,3.82,3.82,0,0,0-1.39.71,8,8,0,0,0-3.12,5.29c-.2,1.56-.17,3.14-.23,4.72a23.43,23.43,0,0,1-.11,3.14,49,49,0,0,0-.6,7.84c0,2.36-.34,4.71-.57,7.06-.31,3.14-.7,6.27-1,9.41a3.76,3.76,0,0,0,1.85,4,21.05,21.05,0,0,1,4.46,3.21,13.13,13.13,0,0,1,4.08,6.58,45.18,45.18,0,0,1,1.44,7.73c.08,1.3.36,2.59.53,3.89a3.11,3.11,0,0,0,1.56,1.65,29.68,29.68,0,0,0,3.1.45c5.78.24,11.55.42,17.32.89,1,.08,2.1.14,3.15.13,8.15,0,16.24,1.09,24.38,1.43a12.26,12.26,0,0,1,2.35.26c4.11,1,8.33,1.06,12.5,1.61a64.45,64.45,0,0,0,12.58.36,2.15,2.15,0,0,0,1.59-1.5c.46-2.85,1.07-5.69,1.31-8.56.39-4.72,1.2-9.38,1.9-14.05a188.29,188.29,0,0,0,2.4-19.53c0-1,.22-2.08.33-3.13.68-6.53,2.08-13,2.63-19.5.84-3.34.6-6.82,1.35-10.15.7-3.1.69-6.27,1.16-9.38.51-3.38,1-6.75,1.25-10.16a8,8,0,0,0-.15-1.54,1.65,1.65,0,0,0-.89-1.22,3.23,3.23,0,0,0-1.45-.54c-5.49-.51-10.93-1.53-16.45-1.66a17.25,17.25,0,0,1-3.13-.36c-4.64-.94-9.43-.8-14-1.94-5.77-.42-11.44-1.58-17.17-2.31a60.08,60.08,0,0,0-6.27-.56c-5.52-.13-11-.48-16.51-1-6-.55-12-1.54-18-1.68a14.19,14.19,0,0,1-2.34-.34,52.85,52.85,0,0,0-7.84-.78c-3.93-.2-7.87-.33-11.81-.26a53.3,53.3,0,0,1-5.51-.19c-4.72-.41-9.44-.45-14.17-.45s-9.46-.05-14.18-.31c-2.63-.14-5.24-.22-7.87-.18-3.15,0-6.31.19-9.45,0-4.48-.19-8.93-.06-13.4.06-3.68.1-7.35.27-11,.29-8.94,0-17.85.72-26.77,1.12a29.85,29.85,0,0,0-6.24.78,2.3,2.3,0,0,0-1.67,1.49,18.36,18.36,0,0,0-1,5.41c-.26,4.46-.41,8.93-1.1,13.35a18.46,18.46,0,0,0-.17,2.36c-.2,6-.31,12.08-1,18.09a6.79,6.79,0,0,0,0,.78c-.15,7.88-.53,15.75-.91,23.62-.36,7.61-.19,15.24-1.06,22.82q-.21,9.06-.4,18.12a11.76,11.76,0,0,0,.25,1.54,2.27,2.27,0,0,0,1.66,1.44,25,25,0,0,0,3.13-.13c5.46-.86,11-1.14,16.47-1.56a66.15,66.15,0,0,0,7.06-.67c4.15-.78,8.33-1.07,12.52-1.46a42.86,42.86,0,0,0,4.69-.54,58.26,58.26,0,0,1,10.2-.84Zm-74.35,83.18c-.2,5.56-.36,9.5-.47,13.43-.06,2.36-.07,4.73-.05,7.09q.12,12.6.29,25.21c0,2.89.1,5.77.2,8.66a23.36,23.36,0,0,0,.29,2.34,2.13,2.13,0,0,0,1.61,1.48,20.12,20.12,0,0,0,5.48-.31c4.16-.64,8.34-1.06,12.53-1.34a33.59,33.59,0,0,0,4.7-.5,100.12,100.12,0,0,1,15.64-1.67,43.5,43.5,0,0,0,6.25-.73A80.93,80.93,0,0,1,801,463c3.4-.22,6.82-.4,10.19-.92,4.16-.64,8.34-1,12.52-1.37s8.33-1,12.54-1.26a156.36,156.36,0,0,0,20.36-2c1.81-.33,3.66-.41,5.48-.6,2.09-.23,4.2-.35,6.26-.71A85.06,85.06,0,0,1,878.48,455c3.93-.19,7.87-.46,11.8-.53,12.6-.23,25.21-.37,37.81-.57a97.82,97.82,0,0,1,13.37.38c.52.06,1,0,1.58,0,.26,0,.52,0,.78,0a3.67,3.67,0,0,0,3.5-2.65c1-4.88,1.95-9.77,2.94-14.66a76.89,76.89,0,0,0,1.58-12.48,68.81,68.81,0,0,1,1.94-13.22c1.21-5.1,2.37-10.22,3.32-15.38,1.38-7.49,2.35-15,3.95-22.48.46-4.44,1.64-8.77,1.92-13.24.08-1.31.44-2.59.59-3.89.29-2.61.54-5.23.78-7.84,0-.24-.15-.5-.16-.75a3.34,3.34,0,0,0-1.53-1.68,21.2,21.2,0,0,0-4.7-.36,65.24,65.24,0,0,1-11-.77c-3.62-.59-7.3-.81-10.92-1.48-7.08-.3-14.13-1.05-21.21-1.38l-.79,0c-5.51-.07-11-.21-16.52-.78-1.82-.18-3.67-.2-5.5-.25-5.51-.15-11-.14-16.52-.82a32.14,32.14,0,0,0-3.93-.1c-7.88,0-15.76,0-23.63-.08-2.63,0-5.26.05-7.87-.16a138.79,138.79,0,0,0-23.6.43c-3.14.28-6.28.52-9.43.57a192.09,192.09,0,0,0-28.23,2.34,34.09,34.09,0,0,1-3.91.41c-8.4.46-16.72,1.64-25.09,2.37a7.28,7.28,0,0,0-2.28.51,3.15,3.15,0,0,0-1,1.13,1.46,1.46,0,0,0-.22.74c-.39,5.76-1.07,11.5-1.13,17.28s-.24,11.55-.56,17.32c-.22,3.92-.15,7.87-.19,11.81C744.36,400.52,744.34,406.3,744.31,410.45ZM807.69,75.68c-1.78,0-2.57.14-3.35.07-6.29-.53-12.6-.39-18.9-.36-6.83,0-13.66.17-20.49.28-.52,0-1,.14-1.56.2a2.41,2.41,0,0,0-1.52,1.6c0,.25-.15.5-.19.76-1.24,7.53-.9,15.2-1.95,22.76a64.17,64.17,0,0,0-.31,7.08,23.08,23.08,0,0,0,.2,2.34,2.53,2.53,0,0,0,1.54,1.59,26.61,26.61,0,0,0,5.5.21c4.72,0,9.45-.31,14.16.31a15.51,15.51,0,0,0,2.36.07c6.31-.21,12.61-.25,18.91,0a13.91,13.91,0,0,0,1.58,0c7.62-.41,15.22.51,22.84.24a8.29,8.29,0,0,1,1.57.1,58.3,58.3,0,0,0,10.23.31,176.43,176.43,0,0,1,18.11.55c5.5.38,11,.73,16.52.8a25.65,25.65,0,0,1,3.92.27c3.38.54,6.8.66,10.2.93,5.23.42,10.47.89,15.68,1.53,2.34.29,4.68.6,7,.69a36.37,36.37,0,0,1,6.28.48c4.64,1,9.38,1.11,14.05,1.91a95.58,95.58,0,0,0,10.95,1.27c7.34.38,14.65,1.3,22,1.44a32.23,32.23,0,0,1,4.7.45c6.72,1.18,13.5,2,20.18,3.43a2.12,2.12,0,0,0,2.4-1.48,37.19,37.19,0,0,0,.92-7.8A72.5,72.5,0,0,1,992.2,106a32.19,32.19,0,0,0,.4-4.71c.14-3.41.22-6.82.29-10.24a6.81,6.81,0,0,0-.22-1.54,1.8,1.8,0,0,0-.94-1.18,6.08,6.08,0,0,0-2.25-.57c-5.73-.76-11.49-1.16-17.16-2.34-3.6-.74-7.27-1.09-10.92-1.51-2.09-.24-4.16-.54-6.22-1a73.3,73.3,0,0,0-14.84-1.76,41.76,41.76,0,0,1-7-.76,105.56,105.56,0,0,0-17.21-1.83A49,49,0,0,1,909,78a80.37,80.37,0,0,0-9.42-.71c-3.15-.09-6.31-.14-9.44-.44-2.36-.23-4.71-.38-7.07-.4-7.36,0-14.71-.07-22.06-.11a63,63,0,0,1-6.3-.14A111.79,111.79,0,0,0,839,75.77q-5.5.17-11,.21c-3.41,0-6.83,0-10.24-.06C814.05,75.86,810.38,75.75,807.69,75.68Zm-1.06,73c-9.44.76-18.89-.48-28.33.26a34.71,34.71,0,0,1-3.94-.12c-5-.15-10,.05-15,.33-.26,0-.52.1-.77.13a2.93,2.93,0,0,0-2.16,2,20.7,20.7,0,0,0-.32,2.33c-.19,7.35-.58,14.69-1.06,22-.12,1.84-.09,3.68-.09,5.52,0,.51.13,1,.15,1.55s1,1.64,1.46,1.66c1.31.06,2.62.16,3.93.15,10.76-.12,21.52-.3,32.29-.37,5,0,10,0,14.95.29,4.2.29,8.39.36,12.59.48a50.38,50.38,0,0,1,5.5.23c4.43.57,8.89.76,13.35.94a28.51,28.51,0,0,1,3.92.31,71.4,71.4,0,0,0,11.77.76,41.2,41.2,0,0,1,7.85.56c3.37.69,6.8.58,10.19.89s6.78.75,10.17,1.12a13.75,13.75,0,0,0,1.57.07c3.43,0,6.8.56,10.2.86,3.65.32,7.34.37,11,.55a20.79,20.79,0,0,1,2.35.24,80.22,80.22,0,0,0,8.62.77,43.58,43.58,0,0,1,4.71.41,82.39,82.39,0,0,0,12.55.87,47.9,47.9,0,0,1,5.5.32,69.27,69.27,0,0,0,8.63.61,53.78,53.78,0,0,1,7.07.42,81.63,81.63,0,0,0,13.34.88,38.1,38.1,0,0,1,7.83.65c1.55.3,3.12.44,4.69.6a3.66,3.66,0,0,0,1.55-.11A2.23,2.23,0,0,0,984,196a11.74,11.74,0,0,0,1.13-4.55c.46-6.29,1.6-12.49,2.34-18.75a47,47,0,0,0,.4-9.41,1.7,1.7,0,0,0-.89-1.2,12.76,12.76,0,0,0-4.62-.83,111.29,111.29,0,0,1-15.67-1.52c-1-.2-2.09-.18-3.13-.29-1.57-.16-3.15-.24-4.69-.53a75.5,75.5,0,0,0-8.61-.92c-5.76-.42-11.52-.87-17.26-1.43a95.37,95.37,0,0,1-10.14-1.36,56.1,56.1,0,0,0-10.16-1.1,40,40,0,0,1-6.27-.56,37.33,37.33,0,0,0-5.46-.66c-6.31-.16-12.56-1-18.85-1.27-.52,0-1.05,0-1.57-.06-1.31-.11-2.63-.16-3.92-.37a68.31,68.31,0,0,0-10.2-.71,52.87,52.87,0,0,1-7.86-.39,53,53,0,0,0-9.42-.55c-2.62,0-5.25-.06-7.87-.2-11-.6-22-1.15-33.06-.7ZM887.1,467.4c-7.64.07-15.17,1.18-22.71,2.29a1.92,1.92,0,0,0-1.12,1.86c2,6,4.36,11.81,6.69,17.66,1.76,4.38,3.63,8.72,5.32,13.14,2.72,7.11,5.56,14.17,8.63,21.13,1.26,2.89,2.66,5.74,3.63,8.72,1.72,5.25,4.2,10.2,5.73,15.51a20.15,20.15,0,0,0,1.53,3.62,109.23,109.23,0,0,1,5,11.56,67.14,67.14,0,0,0,4.76,9.94,4.66,4.66,0,0,0,4.56,2.48A32.06,32.06,0,0,0,913,575a97.57,97.57,0,0,1,12.53-1.25c2.89-.1,5.77-.27,8.66-.46.77,0,1.53-.27,2.3-.39a2,2,0,0,0,1.13-1.84c-1.16-3.21-2.69-6.26-4.13-9.35-2-4.29-4.07-8.53-5.89-12.89-2.94-7-5.72-14.11-8.51-21.19-1.54-3.9-3.2-7.78-4.38-11.8-1.33-4.54-2.91-9-4.18-13.54-1.62-5.82-3.36-11.6-5-17.42a127.22,127.22,0,0,0-5.6-16.36,2.17,2.17,0,0,0-1.89-1.22C894.44,467,890.77,467.36,887.1,467.4ZM733.34,533.17h-.09q0-3.55,0-7.09c0-3.42,0-6.83,0-10.25,0-.78-.06-1.57-.1-2.36a2.21,2.21,0,0,0-2.52-2.31c-1.56.23-3.11.56-4.67.71a98.2,98.2,0,0,0-10.91,1.59c-3.07.66-6.24.85-9.26,1.82a9.09,9.09,0,0,1-2.33.39c-5.27.27-10.33,1.79-15.52,2.54a2.77,2.77,0,0,0-2,3,36.13,36.13,0,0,0,.49,3.9,45,45,0,0,1,1,7,146.2,146.2,0,0,0,1.78,16.44c.13.78.18,1.57.26,2.35A138.84,138.84,0,0,0,691.11,565a14.2,14.2,0,0,1,.26,2.35c.36,8.4,1.71,16.72,2.37,25.1.1,1.3.38,2.59.61,3.88a3,3,0,0,0,2.94,2.1c.26,0,.53,0,.79,0,3.66-.37,7.35-.56,11-1.16a121.34,121.34,0,0,1,14.1-1.31c2.36-.11,4.71-.43,7.05-.73a13.29,13.29,0,0,0,2.27-.65,3.2,3.2,0,0,0,1.78-2.39,23.16,23.16,0,0,0-.27-6.28,56.2,56.2,0,0,1-.93-10.18q-.19-6.71-.31-13.39a60.3,60.3,0,0,1,.37-10.23,21.88,21.88,0,0,0,.16-3.14C733.31,543.67,733.32,538.42,733.34,533.17ZM714,150.12v.14c-1.31,0-2.63,0-3.93.1-7.3.75-14.62,1.22-21.95,1.55a23,23,0,0,0-2.34.28c-.26,0-.51.14-.77.18a3.44,3.44,0,0,0-2,2.22,89.16,89.16,0,0,0-.91,11c-.11,4.45-.25,8.9-.73,13.34-.31,2.85-.21,5.75-.26,8.63a2.29,2.29,0,0,0,2.66,2.16c2.34-.27,4.67-.6,7-.92,1.81-.24,3.62-.58,5.44-.76,4.18-.42,8.35-.78,12.5-1.46a29.73,29.73,0,0,1,3.12-.33c5.24-.28,10.47-.57,15.71-.8,3.4-.14,6.81-.15,10.22-.26.77,0,1.55-.19,2.32-.28a2.78,2.78,0,0,0,1.68-1.48,27.12,27.12,0,0,0,.41-3.1c.16-4.19.09-8.4.45-12.57.42-5,.55-9.94.68-14.92a13.8,13.8,0,0,0-.23-1.53,2.64,2.64,0,0,0-1.57-1.58c-.79-.05-1.57-.18-2.35-.16Q726.54,149.8,714,150.12Zm10.89-37.2v0l17.3-.41c.52,0,1-.08,1.57-.12a3,3,0,0,0,2.54-2.57c.15-1.56.32-3.13.38-4.7.17-4.45.44-8.89.93-13.33.51-4.68.56-9.4.74-14.11a1.25,1.25,0,0,0-.87-1.18,4.24,4.24,0,0,0-1.51-.34c-11.27.25-22.54.42-33.73,2-1.3.19-2.61.29-3.91.4q-3.52.32-7.06.59a95.82,95.82,0,0,0-10.12,1.41,2.68,2.68,0,0,0-2.06,2.08,40.35,40.35,0,0,0-.87,7c-.15,2.88-.18,5.78-.57,8.63-.7,5.21-.69,10.46-1,15.69,0,.25.11.51.12.77a1.93,1.93,0,0,0,2.16,1.71,187.89,187.89,0,0,1,32-3.43Zm-44,211.24h0c0,5,0,9.95,0,14.92a18.54,18.54,0,0,0,.29,2.33c.07.52,1.14,1.29,1.72,1.35a12.17,12.17,0,0,0,4.66-.49c7.3-2.16,14.86-3,22.29-4.52a16.83,16.83,0,0,1,2.34-.3c6.28-.38,12.46-1.63,18.71-2.25a2.81,2.81,0,0,0,2.55-2.54c.42-6.27.93-12.53,1-18.82a97.2,97.2,0,0,1,.73-12.53,10.33,10.33,0,0,0,0-1.57,2.32,2.32,0,0,0-2-2.07,9.61,9.61,0,0,0-3.89.33,37.77,37.77,0,0,1-8.52,1.3c-1.3.09-2.61.13-3.92.18a53.67,53.67,0,0,0-8.54,1.11c-4.87,1-9.69,2.26-14.67,2.62a15.73,15.73,0,0,0-3,.73c-1.25.35-2.5.75-3.74,1.16s-2.48.86-3.71,1.3a2.93,2.93,0,0,0-2.23,2.84Q680.87,316.69,680.83,324.16Zm.63-92.81a3.4,3.4,0,0,0-.84,2.08c0,1.83,0,3.66,0,5.49q.15,12.18.31,24.35a13.67,13.67,0,0,0,.13,1.56c0,.26.1.52.14.78a2,2,0,0,0,1.83,1.12l12.2-2.91c4.21-.26,8.22-1.55,12.3-2.47a115.41,115.41,0,0,1,17.82-2.75c3.13-.21,6.25-.63,9.38-1a2.92,2.92,0,0,0,2.13-2,14.21,14.21,0,0,0,.27-1.54c.13-2.36.23-4.71.34-7.06a88.89,88.89,0,0,1,.77-10.18,68.66,68.66,0,0,0,.57-9.4c0-.26-.1-.52-.1-.78a2.14,2.14,0,0,0-2.11-1.85c-9.43.17-18.85.35-28.21,1.64-2.33.32-4.7.42-7,.65a56,56,0,0,0-6.23.73C690.56,228.81,685.9,229.58,681.46,231.35Zm49.85,217.37c-.07-2.75-.17-7.73-.31-12.71,0-1-.17-2.09-.26-3.13,0-.49-1.17-1.35-1.69-1.36a29,29,0,0,0-7.74,1.14,141.77,141.77,0,0,1-14.57,3.22,58.88,58.88,0,0,0-7.69,1.57c-4.78,1.38-9.51,2.95-14.25,4.45a14.14,14.14,0,0,0-2.19.84,2.64,2.64,0,0,0-1.34,1.81,3.11,3.11,0,0,0-.16.77c.06,6.55.09,13.1.66,19.64.27,3.13.48,6.27.76,9.4a17.06,17.06,0,0,0,.47,2.3,1.84,1.84,0,0,0,1.8,1.12c2.79-.71,5.55-1.52,8.37-2.09s5.69-.91,8.53-1.35a6.6,6.6,0,0,0,.77-.17,37.83,37.83,0,0,1,7.77-1.12c6.29-.37,12.49-1.44,18.74-2.15a2.82,2.82,0,0,0,2.41-2.66C731.38,462.47,731.34,456.71,731.31,448.72Zm14.31,119.59c0,2.1.06,4.2.17,6.29a27.55,27.55,0,0,0,.49,3.09,1.56,1.56,0,0,0,.92,1.18,1,1,0,0,0,1.32-.34,67,67,0,0,0,5.63-8.51c2.54-4.27,5.12-8.52,7.86-12.68a114.23,114.23,0,0,0,6.26-10.9c1.18-2.34,2.39-4.66,3.68-6.93,3-5.24,6-10.46,8.65-15.87a32.85,32.85,0,0,1,1.94-3.41c3.11-4.86,5.67-10,8.46-15.07a6,6,0,0,0,.47-1.48.83.83,0,0,0-.78-1.08A56,56,0,0,0,779,503.69c-2.06.36-4.14.66-6.21.94-1.56.22-3.15.25-4.68.56a102.63,102.63,0,0,1-12.46,1.64,38,38,0,0,0-6.93,1.33c-.25.07-.49.19-.74.26a2.59,2.59,0,0,0-1.34,1.78q-.28,7.45-.55,14.91c-.05,1.31,0,2.62,0,3.93,0,6.29.1,12.58.06,18.86,0,3.93-.1,7.86-.37,11.78A77.68,77.68,0,0,0,745.62,568.31ZM709.32,370.6l0-.15c-2.08.21-4.19.27-6.24.67-3.6.7-7.23,1.14-10.86,1.61a59.28,59.28,0,0,0-9.94,2.23,3.08,3.08,0,0,0-1.43,1.76c0,.26-.17.5-.18.76-.09,10.72,0,21.45-.41,32.17a2.52,2.52,0,0,0,.11.77,3.72,3.72,0,0,0,.33.7,1.1,1.1,0,0,0,1.27.67c3.81-.88,7.44-2.37,11.26-3.28,4.58-1.1,9.21-1.94,13.78-3.07,2.79-.68,5.61-1.26,8.44-1.8,4.62-.89,9.25-1.71,13.88-2.56.25-.05.49-.16.75-.23a3.51,3.51,0,0,0,1.33-1.84c.3-4.44.2-8.88.18-13.32a79.84,79.84,0,0,1,.34-9.41,30.77,30.77,0,0,0,.08-7,2,2,0,0,0-1.68-1.37c-4.15.52-8.3,1-12.44,1.57C715,369.8,712.17,370.21,709.32,370.6ZM941.43,545.82a4.7,4.7,0,0,0,.63-1.4c.24-3.14.17-6.29.69-9.41a15.35,15.35,0,0,0,.07-2.35c0-5.51.08-11,.14-16.53a41.29,41.29,0,0,1,.17-4.72c.56-4.69.56-9.42.86-14.13.11-1.83.15-3.67.41-5.49a77.84,77.84,0,0,0,.58-8.63c.11-3.93.28-7.86.7-11.78a15.3,15.3,0,0,0-.08-2.34,2.11,2.11,0,0,0-1.59-1.52c-3.13-.24-6.26-.64-9.4-.7-6-.1-12.07,0-18.1,0a7.49,7.49,0,0,0-1.52.32c-.63.14-.82.53-.74,1.19.32,2.63,1.6,5,2.29,7.49,2.76,10.11,5.56,20.22,8.73,30.21C927,511.56,929,517,931,522.39c2.65,7.12,5.65,14.11,8.5,21.15a4.87,4.87,0,0,0,.76,1.38A6.45,6.45,0,0,0,941.43,545.82Z" transform="translate(-667.33 -55.83)"/><path class="cls-1" d="M818.66,327.27l-15.75.44a58.26,58.26,0,0,0-10.2.84,42.86,42.86,0,0,1-4.69.54c-4.19.39-8.37.68-12.52,1.46a66.15,66.15,0,0,1-7.06.67c-5.49.42-11,.7-16.47,1.56a25,25,0,0,1-3.13.13,2.27,2.27,0,0,1-1.66-1.44,11.76,11.76,0,0,1-.25-1.54q.18-9.06.4-18.12c.87-7.58.7-15.21,1.06-22.82.38-7.87.76-15.74.91-23.62a6.79,6.79,0,0,1,0-.78c.73-6,.84-12.06,1-18.09a18.46,18.46,0,0,1,.17-2.36c.69-4.42.84-8.89,1.1-13.35a18.36,18.36,0,0,1,1-5.41,2.3,2.3,0,0,1,1.67-1.49,29.85,29.85,0,0,1,6.24-.78c8.92-.4,17.83-1.09,26.77-1.12,3.68,0,7.35-.19,11-.29,4.47-.12,8.92-.25,13.4-.06,3.14.14,6.3,0,9.45,0,2.63,0,5.24,0,7.87.18,4.72.26,9.45.31,14.18.31s9.45,0,14.17.45a53.3,53.3,0,0,0,5.51.19c3.94-.07,7.88.06,11.81.26a52.85,52.85,0,0,1,7.84.78,14.19,14.19,0,0,0,2.34.34c6,.14,12,1.13,18,1.68,5.5.5,11,.85,16.51,1a60.08,60.08,0,0,1,6.27.56c5.73.73,11.4,1.89,17.17,2.31,4.61,1.14,9.4,1,14,1.94a17.25,17.25,0,0,0,3.13.36c5.52.13,11,1.15,16.45,1.66a3.23,3.23,0,0,1,1.45.54,1.65,1.65,0,0,1,.89,1.22,8,8,0,0,1,.15,1.54c-.25,3.41-.74,6.78-1.25,10.16-.47,3.11-.46,6.28-1.16,9.38-.75,3.33-.51,6.81-1.35,10.15-.55,6.54-2,13-2.63,19.5-.11,1.05-.28,2.09-.33,3.13a188.29,188.29,0,0,1-2.4,19.53c-.7,4.67-1.51,9.33-1.9,14.05-.24,2.87-.85,5.71-1.31,8.56a2.15,2.15,0,0,1-1.59,1.5,64.45,64.45,0,0,1-12.58-.36c-4.17-.55-8.39-.63-12.5-1.61a12.26,12.26,0,0,0-2.35-.26c-8.14-.34-16.23-1.47-24.38-1.43-1,0-2.11-.05-3.15-.13-5.77-.47-11.54-.65-17.32-.89a29.68,29.68,0,0,1-3.1-.45,3.11,3.11,0,0,1-1.56-1.65c-.17-1.3-.45-2.59-.53-3.89a45.18,45.18,0,0,0-1.44-7.73,13.13,13.13,0,0,0-4.08-6.58,21.05,21.05,0,0,0-4.46-3.21,3.76,3.76,0,0,1-1.85-4c.28-3.14.67-6.27,1-9.41.23-2.35.52-4.7.57-7.06a49,49,0,0,1,.6-7.84,23.43,23.43,0,0,0,.11-3.14c.06-1.58,0-3.16.23-4.72a8,8,0,0,1,3.12-5.29,3.82,3.82,0,0,1,1.39-.71,24.81,24.81,0,0,1,9.36-.69,15.58,15.58,0,0,1,10.26,5.29c1.22,1.37,2.31,2.86,3.45,4.3a13.37,13.37,0,0,1,2.93,6.36,5,5,0,0,0,.49,1.5,6.9,6.9,0,0,0,5.48,4,2.62,2.62,0,0,0,.79,0,7,7,0,0,0,4.1-2.15,5.84,5.84,0,0,0,1.62-3.51,14.08,14.08,0,0,0-1.29-7.66,33.08,33.08,0,0,0-4.12-6.69c-.83-1-1.61-2.08-2.37-3.15a19.87,19.87,0,0,0-3.76-4c-1.22-1-2.44-2-3.7-2.94a9.06,9.06,0,0,0-2-1.17c-3.16-1.26-6.29-2.66-9.75-2.95-1-.09-2.08-.32-3.12-.45a18.35,18.35,0,0,0-6.27.23c-1.28.29-2.56.61-3.86.78a18.45,18.45,0,0,0-6.65,2.32,11.47,11.47,0,0,1-1.41.69,1.17,1.17,0,0,1-.74,0,5.57,5.57,0,0,1-1.44-.61c-7.88-5.56-6.86-4-14.14-6.64a23.45,23.45,0,0,0-7.76-1.06,29.55,29.55,0,0,0-15,4.08,64.15,64.15,0,0,0-5.95,3.84,31.74,31.74,0,0,0-3.55,3.11,14.49,14.49,0,0,0-3.16,4.49c-1,2.15-1.83,4.36-3,6.41a10.5,10.5,0,0,0-1.21,6.07c.05.79.13,1.57.24,2.35a6.37,6.37,0,0,0,5.41,5,6.13,6.13,0,0,0,6.36-3.7,56.34,56.34,0,0,0,2.09-5.93c1.73-5.43,2.77-6.32,7.65-9.51a23.47,23.47,0,0,1,7.22-3.05,11.28,11.28,0,0,1,6.23.11c2,.64,4,1.34,6,2a14.08,14.08,0,0,1,5.74,4,3.34,3.34,0,0,1,.85,2.16c.09,3.15.26,6.31.06,9.45-.31,5-.06,10-1,14.92-.48,2.57-.49,5.23-.76,7.84-.11,1-.39,2.06-.59,3.08a1.53,1.53,0,0,1-.94,1.2c-1.45.59-2.91,1.18-4.38,1.73-5,1.87-8.21,5.53-10.35,10.25a33.13,33.13,0,0,0-1.55,4.46c-.59,2-1.07,4.06-1.6,6.09a2.65,2.65,0,0,1-2.86,2.08c-.79,0-1.58,0-2.37,0A193.14,193.14,0,0,0,818.66,327.27Z" transform="translate(-667.33 -55.83)"/><path class="cls-1" d="M744.31,410.45c0-4.15.05-9.93.09-15.7,0-3.94,0-7.89.19-11.81q.48-8.65.56-17.32c.06-5.78.74-11.52,1.13-17.28a1.46,1.46,0,0,1,.22-.74,3.15,3.15,0,0,1,1-1.13,7.28,7.28,0,0,1,2.28-.51c8.37-.73,16.69-1.91,25.09-2.37a34.09,34.09,0,0,0,3.91-.41A192.09,192.09,0,0,1,807,340.84c3.15,0,6.29-.29,9.43-.57a138.79,138.79,0,0,1,23.6-.43c2.61.21,5.24.15,7.87.16,7.87,0,15.75.05,23.63.08a32.14,32.14,0,0,1,3.93.1c5.49.68,11,.67,16.52.82,1.83.05,3.68.07,5.5.25,5.5.57,11,.71,16.52.78l.79,0c7.08.33,14.13,1.08,21.21,1.38,3.62.67,7.3.89,10.92,1.48a65.24,65.24,0,0,0,11,.77,21.2,21.2,0,0,1,4.7.36,3.34,3.34,0,0,1,1.53,1.68c0,.25.18.51.16.75-.24,2.61-.49,5.23-.78,7.84-.15,1.3-.51,2.58-.59,3.89-.28,4.47-1.46,8.8-1.92,13.24-1.6,7.44-2.57,15-3.95,22.48-1,5.16-2.11,10.28-3.32,15.38a68.81,68.81,0,0,0-1.94,13.22A76.89,76.89,0,0,1,950.26,437c-1,4.89-2,9.78-2.94,14.66a3.67,3.67,0,0,1-3.5,2.65c-.26,0-.52,0-.78,0-.53,0-1.06,0-1.58,0a97.82,97.82,0,0,0-13.37-.38c-12.6.2-25.21.34-37.81.57-3.93.07-7.87.34-11.8.53a85.06,85.06,0,0,0-10.18,1.06c-2.06.36-4.17.48-6.26.71-1.82.19-3.67.27-5.48.6a156.36,156.36,0,0,1-20.36,2c-4.21.22-8.35.91-12.54,1.26s-8.36.73-12.52,1.37c-3.37.52-6.79.7-10.19.92a80.93,80.93,0,0,0-10.17,1.14,43.5,43.5,0,0,1-6.25.73,100.12,100.12,0,0,0-15.64,1.67,33.59,33.59,0,0,1-4.7.5c-4.19.28-8.37.7-12.53,1.34a20.12,20.12,0,0,1-5.48.31,2.13,2.13,0,0,1-1.61-1.48,23.36,23.36,0,0,1-.29-2.34c-.1-2.89-.17-5.77-.2-8.66q-.17-12.6-.29-25.21c0-2.36,0-4.73.05-7.09C744,420,744.11,416,744.31,410.45Zm149.83,31.67v0c2.89-.13,5.77-.37,8.66-.35,3.15,0,6.29.31,9.44.44,1.84.08,3.68.1,5.52.13a28.79,28.79,0,0,0,8.55-1.21,13.54,13.54,0,0,0,2.85-1.3,6.77,6.77,0,0,0,3.42-5c.26-1.55.21-3.16.52-4.69,1-5.15,1.66-10.37,2.66-15.52a46.65,46.65,0,0,0,1.16-7.79c.07-2.92,1.14-5.65,1.56-8.51a101.68,101.68,0,0,1,2.46-11.54c1.07-4.06,1.91-8.18,2.68-12.31.61-3.35,1-6.75,1.41-10.14a4.15,4.15,0,0,0-.15-1.56,9.34,9.34,0,0,0-5.34-6.42,4.48,4.48,0,0,0-1.51-.42c-1.57-.13-3.14-.17-4.71-.29a24,24,0,0,1-3.9-.47,26.54,26.54,0,0,0-7-.8,29.65,29.65,0,0,1-7-.71,16.46,16.46,0,0,0-3.14-.3c-3.93,0-7.88-.17-11.81,0-8.15.29-16.29,0-24.42-.21s-16.29-.09-24.43-.18c-3.68,0-7.35,0-11-.21a69.66,69.66,0,0,0-7.08,0c-2.35.11-4.72-.2-7.08-.22a25.48,25.48,0,0,0-4.71.26,77.69,77.69,0,0,1-10.21.76c-8.13.39-16.27.75-24.32,2.15-1.29.22-2.61.28-3.91.4-1.83.18-3.68.24-5.49.55-2.09.36-4.21,0-6.27.38a6.29,6.29,0,0,0-4.44,3,8.67,8.67,0,0,0-1.25,3.69c-.21,2.09.1,4.23-.47,6.28a23.1,23.1,0,0,0-.63,6.25c0,3.94,0,7.88.05,11.82a147,147,0,0,1-.45,16.53,121.85,121.85,0,0,0-.59,14.16c0,3.16-.12,6.31-.1,9.46,0,4.46,0,8.93.18,13.39a8.69,8.69,0,0,0,2.73,6.35c.57.54,1.11,1.11,1.7,1.64a6.32,6.32,0,0,0,4.33,1.6,33.31,33.31,0,0,0,7-1c7.47-1.49,15-2.88,22.61-3a61.18,61.18,0,0,0,10.19-.91,23.5,23.5,0,0,1,3.14-.3c10.23-.51,20.44-1.39,30.69-1.51a32.19,32.19,0,0,0,3.92-.31,49.3,49.3,0,0,1,7.08-.33,65.93,65.93,0,0,0,10.22-.54,62.48,62.48,0,0,1,6.28-.45C880.49,442.53,887.32,442.33,894.14,442.12Z" transform="translate(-667.33 -55.83)"/><path class="cls-1" d="M807.69,75.68c2.69.07,6.36.18,10,.24,3.41,0,6.83.09,10.24.06q5.52,0,11-.21a111.79,111.79,0,0,1,15.74.46,63,63,0,0,0,6.3.14c7.35,0,14.7.06,22.06.11,2.36,0,4.71.17,7.07.4,3.13.3,6.29.35,9.44.44A80.37,80.37,0,0,1,909,78a49,49,0,0,0,7.06.54A105.56,105.56,0,0,1,933.3,80.4a41.76,41.76,0,0,0,7,.76,73.3,73.3,0,0,1,14.84,1.76c2.06.42,4.13.72,6.22,1,3.65.42,7.32.77,10.92,1.51,5.67,1.18,11.43,1.58,17.16,2.34a6.08,6.08,0,0,1,2.25.57,1.8,1.8,0,0,1,.94,1.18,6.81,6.81,0,0,1,.22,1.54c-.07,3.42-.15,6.83-.29,10.24a32.19,32.19,0,0,1-.4,4.71,72.5,72.5,0,0,0-.93,11.77,37.19,37.19,0,0,1-.92,7.8A2.12,2.12,0,0,1,988,127c-6.68-1.44-13.46-2.25-20.18-3.43a32.23,32.23,0,0,0-4.7-.45c-7.36-.14-14.67-1.06-22-1.44a95.58,95.58,0,0,1-10.95-1.27c-4.67-.8-9.41-.91-14.05-1.91a36.37,36.37,0,0,0-6.28-.48c-2.36-.09-4.7-.4-7-.69-5.21-.64-10.45-1.11-15.68-1.53-3.4-.27-6.82-.39-10.2-.93a25.65,25.65,0,0,0-3.92-.27c-5.52-.07-11-.42-16.52-.8a176.43,176.43,0,0,0-18.11-.55,58.3,58.3,0,0,1-10.23-.31,8.29,8.29,0,0,0-1.57-.1c-7.62.27-15.22-.65-22.84-.24a13.91,13.91,0,0,1-1.58,0c-6.3-.3-12.6-.26-18.91,0a15.51,15.51,0,0,1-2.36-.07c-4.71-.62-9.44-.36-14.16-.31a26.61,26.61,0,0,1-5.5-.21,2.53,2.53,0,0,1-1.54-1.59,23.08,23.08,0,0,1-.2-2.34,64.17,64.17,0,0,1,.31-7.08c1-7.56.71-15.23,1.95-22.76,0-.26.15-.51.19-.76a2.41,2.41,0,0,1,1.52-1.6c.52-.06,1-.19,1.56-.2,6.83-.11,13.66-.26,20.49-.28,6.3,0,12.61-.17,18.9.36C805.12,75.82,805.91,75.72,807.69,75.68Z" transform="translate(-667.33 -55.83)"/><path class="cls-1" d="M806.63,148.67l1.57,0c11-.45,22,.1,33.06.7,2.62.14,5.25.22,7.87.2a53,53,0,0,1,9.42.55,52.87,52.87,0,0,0,7.86.39,68.31,68.31,0,0,1,10.2.71c1.29.21,2.61.26,3.92.37.52,0,1.05,0,1.57.06,6.29.26,12.54,1.11,18.85,1.27a37.33,37.33,0,0,1,5.46.66,40,40,0,0,0,6.27.56,56.1,56.1,0,0,1,10.16,1.1A95.37,95.37,0,0,0,933,156.56c5.74.56,11.5,1,17.26,1.43a75.5,75.5,0,0,1,8.61.92c1.54.29,3.12.37,4.69.53,1,.11,2.11.09,3.13.29a111.29,111.29,0,0,0,15.67,1.52,12.76,12.76,0,0,1,4.62.83,1.7,1.7,0,0,1,.89,1.2,47,47,0,0,1-.4,9.41c-.74,6.26-1.88,12.46-2.34,18.75A11.74,11.74,0,0,1,984,196a2.23,2.23,0,0,1-1.23.89,3.66,3.66,0,0,1-1.55.11c-1.57-.16-3.14-.3-4.69-.6a38.1,38.1,0,0,0-7.83-.65,81.63,81.63,0,0,1-13.34-.88,53.78,53.78,0,0,0-7.07-.42,69.27,69.27,0,0,1-8.63-.61,47.9,47.9,0,0,0-5.5-.32,82.39,82.39,0,0,1-12.55-.87,43.58,43.58,0,0,0-4.71-.41,80.22,80.22,0,0,1-8.62-.77,20.79,20.79,0,0,0-2.35-.24c-3.67-.18-7.36-.23-11-.55-3.4-.3-6.77-.85-10.2-.86a13.75,13.75,0,0,1-1.57-.07c-3.39-.37-6.77-.81-10.17-1.12s-6.82-.2-10.19-.89a41.2,41.2,0,0,0-7.85-.56,71.4,71.4,0,0,1-11.77-.76,28.51,28.51,0,0,0-3.92-.31c-4.46-.18-8.92-.37-13.35-.94a50.38,50.38,0,0,0-5.5-.23c-4.2-.12-8.39-.19-12.59-.48-5-.34-10-.32-14.95-.29-10.77.07-21.53.25-32.29.37-1.31,0-2.62-.09-3.93-.15-.49,0-1.44-1.11-1.46-1.66s-.16-1-.15-1.55c0-1.84,0-3.68.09-5.52.48-7.33.87-14.67,1.06-22a20.7,20.7,0,0,1,.32-2.33,2.93,2.93,0,0,1,2.16-2c.25,0,.51-.11.77-.13,5-.28,10-.48,15-.33a34.71,34.71,0,0,0,3.94.12C787.74,148.19,797.19,149.43,806.63,148.67Z" transform="translate(-667.33 -55.83)"/><path class="cls-1" d="M887.1,467.4c3.67,0,7.34-.4,11-.14a2.17,2.17,0,0,1,1.89,1.22,127.22,127.22,0,0,1,5.6,16.36c1.6,5.82,3.34,11.6,5,17.42,1.27,4.55,2.85,9,4.18,13.54,1.18,4,2.84,7.9,4.38,11.8,2.79,7.08,5.57,14.17,8.51,21.19,1.82,4.36,3.91,8.6,5.89,12.89,1.44,3.09,3,6.14,4.13,9.35a2,2,0,0,1-1.13,1.84c-.77.12-1.53.34-2.3.39-2.89.19-5.77.36-8.66.46A97.57,97.57,0,0,0,913,575a32.06,32.06,0,0,1-3.92.34,4.66,4.66,0,0,1-4.56-2.48,67.14,67.14,0,0,1-4.76-9.94,109.23,109.23,0,0,0-5-11.56,20.15,20.15,0,0,1-1.53-3.62c-1.53-5.31-4-10.26-5.73-15.51-1-3-2.37-5.83-3.63-8.72-3.07-7-5.91-14-8.63-21.13-1.69-4.42-3.56-8.76-5.32-13.14-2.33-5.85-4.71-11.68-6.69-17.66a1.92,1.92,0,0,1,1.12-1.86C871.93,468.58,879.46,467.47,887.1,467.4Z" transform="translate(-667.33 -55.83)"/><path class="cls-1" d="M733.34,533.17c0,5.25,0,10.5-.07,15.76a21.88,21.88,0,0,1-.16,3.14,60.3,60.3,0,0,0-.37,10.23q.12,6.69.31,13.39a56.2,56.2,0,0,0,.93,10.18,23.16,23.16,0,0,1,.27,6.28,3.2,3.2,0,0,1-1.78,2.39,13.29,13.29,0,0,1-2.27.65c-2.34.3-4.69.62-7.05.73a121.34,121.34,0,0,0-14.1,1.31c-3.62.6-7.31.79-11,1.16-.26,0-.53,0-.79,0a3,3,0,0,1-2.94-2.1c-.23-1.29-.51-2.58-.61-3.88-.66-8.38-2-16.7-2.37-25.1a14.2,14.2,0,0,0-.26-2.35,138.84,138.84,0,0,1-1.62-14.08c-.08-.78-.13-1.57-.26-2.35a146.2,146.2,0,0,1-1.78-16.44,45,45,0,0,0-1-7,36.13,36.13,0,0,1-.49-3.9,2.77,2.77,0,0,1,2-3c5.19-.75,10.25-2.27,15.52-2.54a9.09,9.09,0,0,0,2.33-.39c3-1,6.19-1.16,9.26-1.82A98.2,98.2,0,0,1,726,511.87c1.56-.15,3.11-.48,4.67-.71a2.21,2.21,0,0,1,2.52,2.31c0,.79.1,1.58.1,2.36,0,3.42,0,6.83,0,10.25q0,3.54,0,7.09Z" transform="translate(-667.33 -55.83)"/><path class="cls-1" d="M714,150.12q12.57-.3,25.15-.59c.78,0,1.56.11,2.35.16a2.64,2.64,0,0,1,1.57,1.58,13.8,13.8,0,0,1,.23,1.53c-.13,5-.26,9.95-.68,14.92-.36,4.17-.29,8.38-.45,12.57a27.12,27.12,0,0,1-.41,3.1,2.78,2.78,0,0,1-1.68,1.48c-.77.09-1.55.26-2.32.28-3.41.11-6.82.12-10.22.26-5.24.23-10.47.52-15.71.8a29.73,29.73,0,0,0-3.12.33c-4.15.68-8.32,1-12.5,1.46-1.82.18-3.63.52-5.44.76-2.34.32-4.67.65-7,.92a2.29,2.29,0,0,1-2.66-2.16c0-2.88-.05-5.78.26-8.63.48-4.44.62-8.89.73-13.34a89.16,89.16,0,0,1,.91-11,3.44,3.44,0,0,1,2-2.22c.26,0,.51-.14.77-.18a23,23,0,0,1,2.34-.28c7.33-.33,14.65-.8,21.95-1.55,1.3-.13,2.62-.07,3.93-.1Z" transform="translate(-667.33 -55.83)"/><path class="cls-1" d="M724.86,112.92l-3.93.09a187.89,187.89,0,0,0-32,3.43,1.93,1.93,0,0,1-2.16-1.71c0-.26-.13-.52-.12-.77.28-5.23.27-10.48,1-15.69.39-2.85.42-5.75.57-8.63a40.35,40.35,0,0,1,.87-7,2.68,2.68,0,0,1,2.06-2.08,95.82,95.82,0,0,1,10.12-1.41q3.54-.27,7.06-.59c1.3-.11,2.61-.21,3.91-.4,11.19-1.61,22.46-1.78,33.73-2a4.24,4.24,0,0,1,1.51.34,1.25,1.25,0,0,1,.87,1.18c-.18,4.71-.23,9.43-.74,14.11-.49,4.44-.76,8.88-.93,13.33-.06,1.57-.23,3.14-.38,4.7a3,3,0,0,1-2.54,2.57c-.53,0-1.05.1-1.57.12l-17.3.41Z" transform="translate(-667.33 -55.83)"/><path class="cls-1" d="M680.83,324.16q0-7.47.08-14.92a2.93,2.93,0,0,1,2.23-2.84c1.23-.44,2.46-.89,3.71-1.3s2.49-.81,3.74-1.16a15.73,15.73,0,0,1,3-.73c5-.36,9.8-1.66,14.67-2.62a53.67,53.67,0,0,1,8.54-1.11c1.31-.05,2.62-.09,3.92-.18a37.77,37.77,0,0,0,8.52-1.3,9.61,9.61,0,0,1,3.89-.33,2.32,2.32,0,0,1,2,2.07,10.33,10.33,0,0,1,0,1.57,97.2,97.2,0,0,0-.73,12.53c-.06,6.29-.57,12.55-1,18.82a2.81,2.81,0,0,1-2.55,2.54c-6.25.62-12.43,1.87-18.71,2.25a16.83,16.83,0,0,0-2.34.3c-7.43,1.5-15,2.36-22.29,4.52a12.17,12.17,0,0,1-4.66.49c-.58-.06-1.65-.83-1.72-1.35a18.54,18.54,0,0,1-.29-2.33c0-5,0-9.95,0-14.92Z" transform="translate(-667.33 -55.83)"/><path class="cls-1" d="M681.46,231.35c4.44-1.77,9.1-2.54,13.7-3.53a56,56,0,0,1,6.23-.73c2.34-.23,4.71-.33,7-.65,9.36-1.29,18.78-1.47,28.21-1.64a2.14,2.14,0,0,1,2.11,1.85c0,.26.11.52.1.78a68.66,68.66,0,0,1-.57,9.4,88.89,88.89,0,0,0-.77,10.18c-.11,2.35-.21,4.7-.34,7.06a14.21,14.21,0,0,1-.27,1.54,2.92,2.92,0,0,1-2.13,2c-3.13.32-6.25.74-9.38,1a115.41,115.41,0,0,0-17.82,2.75c-4.08.92-8.09,2.21-12.3,2.47l-12.2,2.91a2,2,0,0,1-1.83-1.12c0-.26-.11-.52-.14-.78a13.67,13.67,0,0,1-.13-1.56q-.16-12.16-.31-24.35c0-1.83,0-3.66,0-5.49A3.4,3.4,0,0,1,681.46,231.35Z" transform="translate(-667.33 -55.83)"/><path class="cls-1" d="M731.31,448.72c0,8,.07,13.75.08,19.52A2.82,2.82,0,0,1,729,470.9c-6.25.71-12.45,1.78-18.74,2.15a37.83,37.83,0,0,0-7.77,1.12,6.6,6.6,0,0,1-.77.17c-2.84.44-5.71.77-8.53,1.35s-5.58,1.38-8.37,2.09a1.84,1.84,0,0,1-1.8-1.12,17.06,17.06,0,0,1-.47-2.3c-.28-3.13-.49-6.27-.76-9.4-.57-6.54-.6-13.09-.66-19.64a3.11,3.11,0,0,1,.16-.77,2.64,2.64,0,0,1,1.34-1.81,14.14,14.14,0,0,1,2.19-.84c4.74-1.5,9.47-3.07,14.25-4.45a58.88,58.88,0,0,1,7.69-1.57,141.77,141.77,0,0,0,14.57-3.22,29,29,0,0,1,7.74-1.14c.52,0,1.65.87,1.69,1.36.09,1,.23,2.09.26,3.13C731.14,441,731.24,446,731.31,448.72Z" transform="translate(-667.33 -55.83)"/><path class="cls-1" d="M745.62,568.31a77.68,77.68,0,0,1,.16-8.63c.27-3.92.35-7.85.37-11.78,0-6.28,0-12.57-.06-18.86,0-1.31-.05-2.62,0-3.93q.25-7.46.55-14.91a2.59,2.59,0,0,1,1.34-1.78c.25-.07.49-.19.74-.26a38,38,0,0,1,6.93-1.33,102.63,102.63,0,0,0,12.46-1.64c1.53-.31,3.12-.34,4.68-.56,2.07-.28,4.15-.58,6.21-.94a56,56,0,0,1,11.69-1.09.83.83,0,0,1,.78,1.08,6,6,0,0,1-.47,1.48c-2.79,5-5.35,10.21-8.46,15.07a32.85,32.85,0,0,0-1.94,3.41c-2.66,5.41-5.66,10.63-8.65,15.87-1.29,2.27-2.5,4.59-3.68,6.93a114.23,114.23,0,0,1-6.26,10.9c-2.74,4.16-5.32,8.41-7.86,12.68a67,67,0,0,1-5.63,8.51,1,1,0,0,1-1.32.34,1.56,1.56,0,0,1-.92-1.18,27.55,27.55,0,0,1-.49-3.09C745.68,572.51,745.67,570.41,745.62,568.31Z" transform="translate(-667.33 -55.83)"/><path class="cls-1" d="M709.32,370.6c2.85-.39,5.7-.8,8.55-1.17,4.14-.54,8.29-1.05,12.44-1.57a2,2,0,0,1,1.68,1.37,30.77,30.77,0,0,1-.08,7,79.84,79.84,0,0,0-.34,9.41c0,4.44.12,8.88-.18,13.32a3.51,3.51,0,0,1-1.33,1.84c-.26.07-.5.18-.75.23-4.63.85-9.26,1.67-13.88,2.56-2.83.54-5.65,1.12-8.44,1.8-4.57,1.13-9.2,2-13.78,3.07-3.82.91-7.45,2.4-11.26,3.28a1.1,1.1,0,0,1-1.27-.67,3.72,3.72,0,0,1-.33-.7,2.52,2.52,0,0,1-.11-.77c.45-10.72.32-21.45.41-32.17,0-.26.16-.5.18-.76a3.08,3.08,0,0,1,1.43-1.76,59.28,59.28,0,0,1,9.94-2.23c3.63-.47,7.26-.91,10.86-1.61,2.05-.4,4.16-.46,6.24-.67Z" transform="translate(-667.33 -55.83)"/><path class="cls-1" d="M941.43,545.82a6.45,6.45,0,0,1-1.21-.9,4.87,4.87,0,0,1-.76-1.38c-2.85-7-5.85-14-8.5-21.15-2-5.4-3.94-10.83-5.69-16.33-3.17-10-6-20.1-8.73-30.21-.69-2.52-2-4.86-2.29-7.49-.08-.66.11-1.05.74-1.19a7.49,7.49,0,0,1,1.52-.32c6,0,12.07-.13,18.1,0,3.14.06,6.27.46,9.4.7A2.11,2.11,0,0,1,945.6,469a15.3,15.3,0,0,1,.08,2.34c-.42,3.92-.59,7.85-.7,11.78a77.84,77.84,0,0,1-.58,8.63c-.26,1.82-.3,3.66-.41,5.49-.3,4.71-.3,9.44-.86,14.13a41.29,41.29,0,0,0-.17,4.72c-.06,5.51-.09,11-.14,16.53a15.35,15.35,0,0,1-.07,2.35c-.52,3.12-.45,6.27-.69,9.41A4.7,4.7,0,0,1,941.43,545.82Z" transform="translate(-667.33 -55.83)"/><path d="M894.14,442.12c-6.82.21-13.65.41-20.48.65a62.48,62.48,0,0,0-6.28.45,65.93,65.93,0,0,1-10.22.54,49.3,49.3,0,0,0-7.08.33,32.19,32.19,0,0,1-3.92.31c-10.25.12-20.46,1-30.69,1.51a23.5,23.5,0,0,0-3.14.3,61.18,61.18,0,0,1-10.19.91c-7.66.15-15.14,1.54-22.61,3a33.31,33.31,0,0,1-7,1,6.32,6.32,0,0,1-4.33-1.6c-.59-.53-1.13-1.1-1.7-1.64a8.69,8.69,0,0,1-2.73-6.35c-.13-4.46-.17-8.93-.18-13.39,0-3.15.11-6.3.1-9.46a121.85,121.85,0,0,1,.59-14.16,147,147,0,0,0,.45-16.53c0-3.94-.07-7.88-.05-11.82a23.1,23.1,0,0,1,.63-6.25c.57-2,.26-4.19.47-6.28a8.67,8.67,0,0,1,1.25-3.69,6.29,6.29,0,0,1,4.44-3c2.06-.37,4.18,0,6.27-.38,1.81-.31,3.66-.37,5.49-.55,1.3-.12,2.62-.18,3.91-.4,8-1.4,16.19-1.76,24.32-2.15a77.69,77.69,0,0,0,10.21-.76,25.48,25.48,0,0,1,4.71-.26c2.36,0,4.73.33,7.08.22a69.66,69.66,0,0,1,7.08,0c3.68.2,7.35.17,11,.21,8.14.09,16.28-.06,24.43.18s16.27.5,24.42.21c3.93-.15,7.88,0,11.81,0a16.46,16.46,0,0,1,3.14.3,29.65,29.65,0,0,0,7,.71,26.54,26.54,0,0,1,7,.8,24,24,0,0,0,3.9.47c1.57.12,3.14.16,4.71.29a4.48,4.48,0,0,1,1.51.42,9.34,9.34,0,0,1,5.34,6.42,4.15,4.15,0,0,1,.15,1.56c-.43,3.39-.8,6.79-1.41,10.14-.77,4.13-1.61,8.25-2.68,12.31a101.68,101.68,0,0,0-2.46,11.54c-.42,2.86-1.49,5.59-1.56,8.51a46.65,46.65,0,0,1-1.16,7.79c-1,5.15-1.61,10.37-2.66,15.52-.31,1.53-.26,3.14-.52,4.69a6.77,6.77,0,0,1-3.42,5,13.54,13.54,0,0,1-2.85,1.3,28.79,28.79,0,0,1-8.55,1.21c-1.84,0-3.68-.05-5.52-.13-3.15-.13-6.29-.42-9.44-.44-2.89,0-5.77.22-8.66.35Zm-38.57-76.4c-6.19-.08-12-.22-17.74-.22-4.72,0-9.46,0-14.16.28-5.51.35-11,.51-16.52.74a98.43,98.43,0,0,0-11.75,1.05c-3.9.63-7.81,1-11.74,1.28-.78,0-1.57.15-2.35.24a3.61,3.61,0,0,0-3.23,3,33.75,33.75,0,0,0-.57,6.26c0,2.89.11,5.78.08,8.66-.05,5.51.06,11-.33,16.52q-.82,11.4-.78,22.81,0,3.93.1,7.87a3.36,3.36,0,0,0,.3,1.52,2,2,0,0,0,1.11,1,15.09,15.09,0,0,0,6.23-.51,72,72,0,0,1,12.48-1.57c1-.07,2.1-.11,3.15-.14a49.81,49.81,0,0,0,8.61-.82,41.54,41.54,0,0,1,7-.67c1.57,0,3.15-.05,4.72-.17q11.78-.89,23.58-1.21a26.25,26.25,0,0,0,4.69-.46,32.24,32.24,0,0,1,7.83-.58,73.44,73.44,0,0,0,8.65-.22c2.09-.16,4.19-.21,6.29-.27,5-.15,10-.27,15-.41,1.58,0,3.15-.11,4.72-.2.52,0,1-.19,1.54-.27a2.39,2.39,0,0,0,1.81-2.24c-.27-4.72,0-9.44,0-14.16a19.74,19.74,0,0,1,.34-3.91,7.24,7.24,0,0,1,8-6,61.88,61.88,0,0,0,7,.79c4.19,0,8.39,0,12.58,0a2.86,2.86,0,0,0,1.89-1.21,35.25,35.25,0,0,0,1.57-6.08c.57-3.36,1.26-6.7,1.9-10.05,1.69-5,2.33-10.22,3.47-15.33a3.68,3.68,0,0,0-.18-1.53,1,1,0,0,0-.52-.57,22.55,22.55,0,0,0-8.36-1.83,32,32,0,0,1-7.06-.42,38.4,38.4,0,0,0-8.62-.68c-3.67,0-7.34.13-11,.14-6.29,0-12.59.12-18.89,0C869.31,366,862.23,365.65,855.57,365.72Z" transform="translate(-667.33 -55.83)"/><path class="cls-1" d="M855.57,365.72c6.66-.07,13.74.24,20.82.41,6.3.16,12.6.06,18.89,0,3.68,0,7.35-.13,11-.14a38.4,38.4,0,0,1,8.62.68,32,32,0,0,0,7.06.42,22.55,22.55,0,0,1,8.36,1.83,1,1,0,0,1,.52.57,3.68,3.68,0,0,1,.18,1.53c-1.14,5.11-1.78,10.34-3.47,15.33-.64,3.35-1.33,6.69-1.9,10.05a35.25,35.25,0,0,1-1.57,6.08,2.86,2.86,0,0,1-1.89,1.21c-4.19,0-8.39,0-12.58,0a61.88,61.88,0,0,1-7-.79,7.24,7.24,0,0,0-8,6,19.74,19.74,0,0,0-.34,3.91c.06,4.72-.22,9.44,0,14.16a2.39,2.39,0,0,1-1.81,2.24c-.51.08-1,.24-1.54.27-1.57.09-3.14.15-4.72.2-5,.14-10,.26-15,.41-2.1.06-4.2.11-6.29.27a73.44,73.44,0,0,1-8.65.22,32.24,32.24,0,0,0-7.83.58,26.25,26.25,0,0,1-4.69.46q-11.81.33-23.58,1.21c-1.57.12-3.15.13-4.72.17a41.54,41.54,0,0,0-7,.67,49.81,49.81,0,0,1-8.61.82c-1.05,0-2.1.07-3.15.14a72,72,0,0,0-12.48,1.57,15.09,15.09,0,0,1-6.23.51,2,2,0,0,1-1.11-1,3.36,3.36,0,0,1-.3-1.52q-.09-3.95-.1-7.87,0-11.42.78-22.81c.39-5.48.28-11,.33-16.52,0-2.88-.06-5.77-.08-8.66a33.75,33.75,0,0,1,.57-6.26,3.61,3.61,0,0,1,3.23-3c.78-.09,1.57-.19,2.35-.24,3.93-.24,7.84-.65,11.74-1.28a98.43,98.43,0,0,1,11.75-1.05c5.51-.23,11-.39,16.52-.74,4.7-.3,9.44-.29,14.16-.28C843.6,365.5,849.38,365.64,855.57,365.72Z" transform="translate(-667.33 -55.83)"/></svg>