<svg id="Layer_1" data-name="Layer 1" xmlns="http://www.w3.org/2000/svg" viewBox="0 0 593.96 381.54"><defs><style>.cls-1{fill:#d7934a;stroke:#c6893f;}.cls-1,.cls-4,.cls-5{stroke-miterlimit:10;}.cls-2{fill:#fff;}.cls-3{fill:#d4e8e1;}.cls-4{fill:#0d754c;stroke:#0d744b;}.cls-5{fill:#00643c;stroke:#006341;}</style></defs><path d="M636.51,310.67c0-2.36.13-4.73.13-7.09a103.89,103.89,0,0,1,.64-12.59,64.3,64.3,0,0,0,.34-7.08c0-5.78,0-11.56,0-17.34,0-4.2.08-8.41,0-12.61-.1-5,.35-10,.6-15,.74-15,1.48-23.39,1.32-31.48,0-.79,0-1.58.05-2.36a10.41,10.41,0,0,1,2.7-6.41,8.78,8.78,0,0,1,5.39-3c2.6-.35,5.18-.93,7.77-1.25,5.22-.63,10.34-2,15.61-2.19a12.21,12.21,0,0,0,2.32-.38c6.14-1.46,12.43-2.09,18.59-3.44a25.12,25.12,0,0,1,3.13-.3,136,136,0,0,0,14.11-1.49,10.23,10.23,0,0,1,1.56-.19c8.93-.35,17.76-1.94,26.7-2.18a23.19,23.19,0,0,0,2.36-.17c6.25-.85,12.56-1.08,18.85-1.5,1-.07,2.09-.17,3.13-.33a106.16,106.16,0,0,1,11-.89,74.24,74.24,0,0,0,9.41-.83,69.33,69.33,0,0,1,7.06-.63c4.72-.28,9.44-.53,14.14-1.14,2.08-.28,4.19-.34,6.28-.51s4.2-.25,6.28-.54c4.7-.65,9.42-.91,14.14-1.14a94.19,94.19,0,0,0,10.2-.88,46.23,46.23,0,0,1,4.71-.38c3.93-.22,7.87-.41,11.81-.61a16.89,16.89,0,0,0,2.36-.12c5.18-1,10.47-.81,15.68-1.42,6-.7,12-1.2,18.05-1.57a11.78,11.78,0,0,0,1.57-.17,111.29,111.29,0,0,1,14.12-1.2c2.1-.11,4.21-.18,6.29-.48,3.12-.44,6.26-.66,9.41-.87a82.33,82.33,0,0,0,11-1.18,35.14,35.14,0,0,1,4.7-.48,62.31,62.31,0,0,0,7.82-1,28.34,28.34,0,0,1,3.9-.53c3.41-.2,6.83-.25,10.23-.51s6.79-.64,10.21-.68c6.83-.1,13.66-.35,20.48-.61a2,2,0,0,0,1.8-1.33,8.83,8.83,0,0,0,.51-1.47,35.65,35.65,0,0,0,.52-6.28c0-1.84,0-3.68.17-5.51a6.8,6.8,0,0,1,1.91-4.22,6,6,0,0,1,5-1.93,5.4,5.4,0,0,1,1.56.23c5.21,1.8,10.64,2.84,15.89,4.53a126,126,0,0,0,13.69,3.65,8.27,8.27,0,0,1,2.89,1.21,7,7,0,0,1,1.26.94,19.35,19.35,0,0,1,3.53,6.09,4.46,4.46,0,0,1,.27,1.54c0,1.05,0,2.1,0,3.15-.11,3.15-.29,6.3-.34,9.45a21.74,21.74,0,0,1-.84,6.21,21.91,21.91,0,0,0-.66,6.25,2.57,2.57,0,0,0,2.52,2.48l1.57.11c1.84.1,3.67.19,5.51.31a74.29,74.29,0,0,1,9.37,1.18q7.74,1.47,15.44,3.08a87.31,87.31,0,0,1,17.91,5.93c4.55,2,9,4.33,13.45,6.57a43.71,43.71,0,0,1,4.08,2.37q4.31,2.78,8.55,5.65c1.52,1,3,2.09,4.46,3.24a163.18,163.18,0,0,1,14.59,13.23,52.71,52.71,0,0,1,4.56,5.42,181,181,0,0,1,10,15.07c1.75,2.93,3.43,5.91,5.46,8.66a6,6,0,0,1,1.13,3.71c-.1,5.78-.23,11.56-.43,17.33-.1,2.62-.39,5.24-.61,7.85a122,122,0,0,0-.62,14.17c.25,8.41-.12,16.81-.2,25.22,0,4.73,0,9.46,0,14.18a3.05,3.05,0,0,0,1.76,2.4c.51.13,1,.35,1.52.43,1.29.2,2.6.35,3.9.52,1.82.25,3.64.48,5.46.75,4.16.61,8.31,1.23,12.41,2.16,6.15,1.41,12.44,2.05,18.67,3,5.72.83,11.4,1.83,17.07,2.93,1.8.35,3.65.5,5.44.88a11.94,11.94,0,0,1,2.94,1.08,6,6,0,0,1,3.35,5,13.29,13.29,0,0,1,0,2.36c-.17,2.36-.17,4.72-.13,7.09a23.85,23.85,0,0,1-.23,4.71c-.6,3.37-1.12,6.73-1.5,10.13a12,12,0,0,1-1.64,4.41,5.83,5.83,0,0,1-4.38,3,12.41,12.41,0,0,1-2.35.18c-2.62-.12-5.25-.31-7.87-.49a10,10,0,0,1-2.33-.33c-3.26-1.08-6.72-1.22-10-2.09a21.46,21.46,0,0,0-3.87-.73c-3.67-.26-7.29-1-10.94-1.31-6.8-.67-13.54-1.74-20.29-2.75a33,33,0,0,0-6.27-.52,2.25,2.25,0,0,0-2,2c0,.79-.15,1.57-.17,2.36-.08,3.41-.16,6.83-.2,10.24a98,98,0,0,1-.95,14.93,23.36,23.36,0,0,0-.23,2.35c-.13,1.83.08,3.73-.62,5.46-1.09,2.67-2,5.41-3.34,8a78.58,78.58,0,0,1-12.81,17.88c-1.08,1.15-2.24,2.24-3.23,3.46a70.44,70.44,0,0,1-11.54,10.69c-2.48,1.94-4.9,4-7.5,5.75a96.18,96.18,0,0,1-15.79,8.84c-2.89,1.26-5.75,2.57-8.63,3.85-.72.32-1.45.63-2.19.9-6.16,2.26-12.32,4.52-18.57,6.54-1,.32-2,.52-3,.75-2.31.52-4.65.92-6.92,1.55a50,50,0,0,1-13.2,2,5,5,0,0,0-.78.05c-4.4.79-8.85,1.2-13.29,1.63a2.69,2.69,0,0,0-1.91,2.23c0,.78-.11,1.57-.11,2.35,0,3.16,0,6.31,0,9.46,0,1.05,0,2.11-.09,3.15a6.26,6.26,0,0,1-1,2.94,9.37,9.37,0,0,1-5.48,4.27c-5.08,1.29-10.08,2.9-15.31,3.67a58.75,58.75,0,0,0-7.63,1.92,17.83,17.83,0,0,1-9.34-.09,5.67,5.67,0,0,1-4.26-4.23,64.56,64.56,0,0,1-2.37-13.16c-.31-4.72-.58-9.44-.58-14.17,0-2.1,0-4.21-.16-6.3a11.68,11.68,0,0,0-.59-2.27,1.67,1.67,0,0,0-1-1.1,20.57,20.57,0,0,0-5.35-1.22c-4.42-.59-8.87-1-13.27-1.81a59.29,59.29,0,0,0-6.28-.49,36.77,36.77,0,0,1-4.71-.36c-4.91-1-9.92-1.12-14.87-1.73s-9.89-1.33-14.83-2c-1.31-.17-2.62-.27-3.93-.35-4.2-.24-8.38-.59-12.55-1.14-3.12-.41-6.28-.53-9.43-.65-3.94-.16-7.87-.37-11.79-.8s-7.86-.58-11.79-.8-7.87-.4-11.78-1c-1.81-.27-3.67-.27-5.5-.43s-3.68-.25-5.48-.57c-3.11-.55-6.25-.86-9.39-1.14a40.86,40.86,0,0,1-4.69-.58c-2.32-.46-4.67-.71-7-1-1.82-.19-3.64-.49-5.46-.77-1-.16-2.06-.45-3.1-.54-6.56-.53-13-2-19.46-3-4.93-.74-9.81-1.8-14.79-2.25-2.88-.25-5.66-1.16-8.55-1.4-3.67-.31-7.23-1.31-10.9-1.65s-7.28-1-10.9-1.68c-2.84-.52-5.66-1.13-8.5-1.67-8.51-1.61-17-3.15-25.55-4.72-9.55-1.76-19.12-3.45-28.61-5.52-6.16-1.34-12.37-2.43-18.54-3.67-2.06-.41-4.1-.94-6.15-1.4-6.65-1.53-13.34-2.9-19.91-4.75q-3.79-1-7.55-2.23a11.83,11.83,0,0,1-2.13-1,6.19,6.19,0,0,1-3.21-4.27,73.54,73.54,0,0,1-1.1-7.8,28.09,28.09,0,0,1,.09-5.5,83.06,83.06,0,0,0,.24-13.38c-.12-2.1-.09-4.21-.12-6.31s.07-4.21-.07-6.3a104.71,104.71,0,0,1,.06-14.17c.31-4.71.09-9.45,0-14.18,0-3.15,0-6.3.12-9.45.15-2.89.13-5.78.15-8.67q0-6.3,0-12.61c0-3.94.07-7.88.43-11.81.16-1.83.22-3.67.33-5.51Zm460.14-55.21a2.66,2.66,0,0,0,.2.56c.06.09.23.12.35.17,0-.29-.22-.47-.73-.55a1.89,1.89,0,0,0-.42-1.45A98,98,0,0,0,1085,243a32.66,32.66,0,0,1-7.74-8.82,4,4,0,0,0-.46-.64,4.23,4.23,0,0,0-1.85-1.4c-2-.59-4-1.21-6.06-1.68-4.34-1-8.64-2.12-12.93-3.34-3-.86-6.06-1.67-9.1-2.46a31.77,31.77,0,0,0-7.76-1,2.21,2.21,0,0,0-.75.25,1.73,1.73,0,0,0-1,1.08,2.76,2.76,0,0,0-.21.73q-.3,5.1-.58,10.2a2.4,2.4,0,0,0,1.6,2.39,77.84,77.84,0,0,0,13.05,2.82,103.28,103.28,0,0,1,13,2.9,196.07,196.07,0,0,1,22.91,8.25c2.41,1,4.8,2.1,7.25,3A7.35,7.35,0,0,0,1096.65,255.46ZM988,272.15h-.12c.11-3.42.15-6.83.34-10.24.37-6.82.84-13.64,1.23-20.46.17-2.88.25-5.77.32-8.66a23.56,23.56,0,0,0-.21-2.35,2.57,2.57,0,0,0-1.51-1.61,56.19,56.19,0,0,0-10.21-.5c-2.36.16-4.72.17-7.09.26-6.3.26-12.61.2-18.89.77-6.81.62-13.63,1-20.45,1.37a46.2,46.2,0,0,0-4.71.35c-4.69.74-9.41.88-14.13,1.17-1.84.11-3.69.11-5.5.35a113.64,113.64,0,0,1-11.79.89c-8.4.24-16.79.61-25.17,1.31-7.07.59-14.16.93-21.24,1.34-4.46.25-8.92.43-13.38.64-7.61.35-15.24.19-22.82,1.07-.79.09-1.58.07-2.37.09-5.25.14-10.5.26-15.75.41-4.21.12-8.41.29-12.61.44-5.46.88-11,.84-16.5,1.07-2.89.11-5.78.25-8.64.61a133,133,0,0,1-13.36.88,71,71,0,0,0-7.87.4c-5,.64-9.95.76-14.93,1.14-4.71.35-9.45.4-14.12,1.27a10.18,10.18,0,0,1-1.57.15c-5.25.24-10.47.76-15.7,1.28-5.75.57-11.54.71-17.24,1.8-6.05.37-12,1.7-17.92,2.63a7.94,7.94,0,0,0-1.53.37,3.41,3.41,0,0,0-1.36.76,2.68,2.68,0,0,0-.55,1.44,101.18,101.18,0,0,0-.26,11.81c.34,10,.17,20-.4,29.94-.09,1.57-.07,3.15-.09,4.73,0,3.15-.09,6.31-.08,9.46a54.22,54.22,0,0,1-.62,8.63,53.22,53.22,0,0,0-.5,8.65c0,4.73-.06,9.46-.08,14.19-.06,15.76-.09,31.53-.18,47.29,0,9.2.32,18.39,0,27.59,0,.79,0,1.57,0,2.36,0,.26,0,.53.05.79a3.4,3.4,0,0,0,2.36,2.85c8.84,2.51,17.83,4.41,26.82,6.32,2.05.44,4.12.76,6.17,1.23,5.63,1.28,11.29,2.44,16.95,3.57,3.86.77,7.79,1.23,11.62,2.14s7.75,1.41,11.61,2.16c6.44,1.25,12.9,2.42,19.36,3.57,4.66.83,9.27,1.84,13.92,2.68,3.88.69,7.75,1.46,11.65,2,3.39.44,6.76.91,10.13,1.45,3.63.59,7.25,1.27,10.89,1.73,8.6,1.1,17.1,2.81,25.66,4.13,1.3.2,2.59.53,3.89.63,5.77.44,11.41,1.88,17.19,2.23,6.18,1.32,12.54,1.22,18.74,2.47a36.77,36.77,0,0,0,4.71.34c2.36.16,4.74.19,7.07.51,5.48.76,11,1,16.5,1.24a41.11,41.11,0,0,1,4.72.31,84.3,84.3,0,0,0,11,.84c8.94.3,17.78,1.78,26.7,2.24.52,0,1,.11,1.57.18,7,1,14,2,21.12,2.52a29.7,29.7,0,0,1,3.13.37,106.33,106.33,0,0,0,11,1.16,52.14,52.14,0,0,1,6.26.72A103.45,103.45,0,0,0,981.68,469a1.7,1.7,0,0,0,1.47-1.55c.06-1.58.14-3.15.12-4.72-.1-9.72-.31-19.44-.31-29.16,0-18.92.13-37.84.19-56.75,0-6.05,0-12.09.24-18.13.26-6.3,0-12.61.78-18.89,0-.26,0-.52,0-.79.13-4.2.28-8.4.39-12.6a106.37,106.37,0,0,1,.74-11,46.5,46.5,0,0,0,.4-4.71c.26-9.2.91-18.37,1.57-27.54C987.57,279.5,987.74,275.82,988,272.15ZM992.32,197c.44-6.26.82-11.5,1.17-16.74a7,7,0,0,0-.21-1.55,2.27,2.27,0,0,0-1.65-1.47,65.38,65.38,0,0,0-11.79.09c-3.67.36-7.33.45-11,.53-4.2.09-8.4.25-12.59.44a29.66,29.66,0,0,0-4.7.53,79.88,79.88,0,0,1-9.37,1.14,38.6,38.6,0,0,0-4.7.51,68.81,68.81,0,0,1-9.39,1c-2.35.17-4.72.28-7.06.63-3.91.58-7.83.76-11.77,1a73.38,73.38,0,0,0-7.86.51c-4.42.71-8.88.89-13.33,1.24-1.57.12-3.15.17-4.7.42-3.9.61-7.83.82-11.77,1.06-2.09.12-4.19.26-6.27.58a60.75,60.75,0,0,1-8.62.72,114.66,114.66,0,0,0-13.36.86c-3.66.47-7.32.71-11,.86s-7.34.42-11,.91c-2.08.28-4.18.43-6.28.55-4.19.25-8.36.7-12.54,1.18-4.43.5-8.91.56-13.36.85-1.31.09-2.61.34-3.91.46-2.61.26-5.23.54-7.85.7-3.93.23-7.86.4-11.76,1a62.7,62.7,0,0,1-6.29.47c-4.46.22-8.91.5-13.34,1.13a37.09,37.09,0,0,1-4.71.39c-9.47.13-18.8,1.94-28.26,2.23a9.12,9.12,0,0,0-1.56.2,92.78,92.78,0,0,1-9.39,1.1c-3.12.36-6.23.88-9.35,1.31-.78.11-1.58.11-2.36.2a24.77,24.77,0,0,0-3.11.44c-3.83.94-7.83,1-11.61,2.18a10.09,10.09,0,0,1-2.34.34c-5.26.29-10.37,1.63-15.59,2.18a23.21,23.21,0,0,0-3.77,1,2.91,2.91,0,0,0-1.36,1.83c-.22,4.45-.47,8.91-.67,13.37-.14,3.15-.23,6.3-.31,9.45a23.42,23.42,0,0,0,.17,2.35,2.14,2.14,0,0,0,1.61,1.45,18.17,18.17,0,0,0,2.34-.09c2.85-.48,5.66-1.15,8.55-1.39,6-.51,12-1.69,18-2a18.72,18.72,0,0,0,2.34-.3,75.62,75.62,0,0,1,10.19-.89c2.89-.13,5.79-.22,8.64-.63,3.91-.57,7.83-.84,11.76-1a62.93,62.93,0,0,0,6.29-.48c4.43-.65,8.89-.73,13.34-1,3.15-.2,6.3-.25,9.45-.38a46.34,46.34,0,0,0,4.72-.26A172.29,172.29,0,0,1,767.9,227c3.15-.13,6.3-.26,9.43-.67a73.4,73.4,0,0,1,8.64-.53c8.15-.08,16.28-.37,24.41-.95,4.71-.33,9.43-.49,14.16-.55,7.36-.09,14.71-.25,22-.95,2.88-.28,5.75-.48,8.64-.59a149.19,149.19,0,0,0,17.28-1.24,25.21,25.21,0,0,1,3.14-.2c4.46-.14,8.93-.22,13.39-.39,3.67-.14,7.36-.19,11-.6,3.92-.45,7.84-.8,11.78-.89a77.35,77.35,0,0,0,10.2-.82,60.85,60.85,0,0,1,8.63-.69,86.17,86.17,0,0,0,11-.79,39.35,39.35,0,0,1,3.92-.34c5.25-.24,10.49-.44,15.74-.68s10.5-.41,15.73-.76a32.24,32.24,0,0,1,6.29,0c1,.14,2.09.2,3.13.26.53,0,1,0,1.58-.05a3,3,0,0,0,2.79-2.31C991.45,207.51,992.21,201.77,992.32,197Zm71.8,216.19a5.41,5.41,0,0,1,3.12-.94c1,0,2.09.1,3.14.15a30.14,30.14,0,0,0,3.15.11c2.35-.13,4.7-.32,7-.55a2.91,2.91,0,0,0,2-1.17,18.84,18.84,0,0,0,1.8-2.57c2.63-4.85,4.61-10,7-15a4,4,0,0,0,.06-3.08,68.84,68.84,0,0,1-2.42-9.12,40.48,40.48,0,0,0-3-8.92c-.55-1.18-1.15-2.36-1.61-3.58a6.3,6.3,0,0,1-.42-2.31c0-1.57.2-3.14.34-4.7a9.1,9.1,0,0,1,.93-3c.9-1.89,2.2-3.58,2.81-5.62.83-2.79,2.36-5.25,3.56-7.87a52.67,52.67,0,0,1,8.15-12.47,43.06,43.06,0,0,0,7.09-10.34,17.6,17.6,0,0,1,1.26-2,14.06,14.06,0,0,0,.83-1.33,2.51,2.51,0,0,0,.13-2.27,146.23,146.23,0,0,0-11.25-18c-1.72-2.32-3.43-4.65-5-7a6.12,6.12,0,0,1-.87-3.78,5.64,5.64,0,0,1,1.31-3.63c1.73-2,3.54-3.86,5.26-5.85a8.74,8.74,0,0,0,2.09-4.17.84.84,0,0,0-.16-.67,10.12,10.12,0,0,0-1.84-1.45,210.12,210.12,0,0,0-34.77-14.67,76.91,76.91,0,0,0-15.32-3.53c-1.3-.14-2.58-.44-3.87-.69-2.32-.45-4.63-.92-7-1.36a1.18,1.18,0,0,0-.76.13c-.44.26-1,.51-1.19.91a6,6,0,0,0-.5,2.27c-.08,4.2-.1,8.4-.1,12.6a43.75,43.75,0,0,1-.47,7.85,71.42,71.42,0,0,0-.87,11.77c-.16,7.61-.39,15.22-.6,22.83a13.64,13.64,0,0,1-.09,1.57c-.71,5.23-.54,10.48-.59,15.73-.05,4.2,0,8.41-.13,12.6-.17,3.94-.18,7.88-.22,11.81q-.15,13.39-.34,26.78a28.6,28.6,0,0,1-.23,3.93,80.11,80.11,0,0,0-.62,11.79c0,1.83-.09,3.67-.15,5.51q-.18,5.89-.37,11.8c-.11,3.41-.15,6.83-.39,10.23a229.51,229.51,0,0,0-.74,23.6c.18,5.25.39,10.5.6,15.74,0,.26.11.52.14.78a2,2,0,0,0,2.3,1.53c3.74-1.22,7.49-2.42,11.22-3.69a40.37,40.37,0,0,0,7.16-3.23c.46-.26.88-.58,1.31-.87a3,3,0,0,0,.85-2.1c-.32-2.64-1.76-4.92-2.39-7.47a38,38,0,0,0-1.58-4.45,4.36,4.36,0,0,1,.12-3.06c.17-.5.35-1,.54-1.48,1.42-3.7,3.67-7,5.54-10.42a31.69,31.69,0,0,1,3.16-4.5,42,42,0,0,0,4.37-6.53C1063,414.83,1063.65,414,1064.12,413.21ZM995.84,415c.09,4.43.14,10.21-.12,16-.09,1.84-.06,3.68,0,5.52q.16,13,.37,26c0,1.58,0,3.17.14,4.73.53,4.71.48,9.44.57,14.17q.15,9.08.41,18.13c.08,2.36.28,4.72.54,7.07a18.05,18.05,0,0,0,.8,3,1.73,1.73,0,0,0,1.82,1.15c2.58-.47,5.12-1.11,7.71-1.56a57.86,57.86,0,0,0,7.58-2.07,2.16,2.16,0,0,0,1.44-1.73,12.21,12.21,0,0,0,.25-2.33c-.15-8.14.36-16.29-.74-24.4a30.45,30.45,0,0,1-.07-3.94q-.06-16.56-.1-33.11c0-3.68,0-7.36,0-11a64.41,64.41,0,0,1,.38-7.87,97.06,97.06,0,0,0,.78-14.15c0-1.84,0-3.69.09-5.52.29-4.2.29-8.4.29-12.61a76.67,76.67,0,0,1,.4-7.87c.25-2.34.39-4.71.46-7.07.28-9.72.59-19.43.48-29.16-.09-7.88.07-15.77.21-23.65.1-5.78.15-11.57.58-17.33.55-7.61.88-15.21.85-22.84a43,43,0,0,1,.67-8.63,34.13,34.13,0,0,0,.53-7.06c0-6.57,0-13.14.56-19.7.16-1.83.13-3.67.13-5.51a40.41,40.41,0,0,1,.71-7.84c.05-.26,0-.52.07-.78a2.55,2.55,0,0,0-1.82-2.27,55.06,55.06,0,0,1-8.4-2.06,26.87,26.87,0,0,0-3-.88c-1.54-.3-3.1-.52-4.66-.74a2.08,2.08,0,0,0-2.33,1.6,69,69,0,0,0-1,8.6c-.13,3.15-.34,6.3-.47,9.45s-.16,6.3-.33,9.45-.52,6.28-.67,9.43c-.32,6.82-.54,13.65-.85,20.48-.12,2.62-.31,5.24-.55,7.86-.46,5.24-.88,10.47-.91,15.74a88.13,88.13,0,0,1-.76,11,57.31,57.31,0,0,0-.47,6.28c-.2,8.67-.68,17.33-.69,26a42.23,42.23,0,0,1-.19,5.51A96.27,96.27,0,0,0,996,371c0,4.2-.07,8.41-.08,12.61C995.89,393.63,995.87,403.62,995.84,415ZM1142,396.81c.25-2.65.45-4.21.52-5.78.11-2.1.11-4.2.16-6.3a3.1,3.1,0,0,0-1.39-1.79,17.51,17.51,0,0,0-2.23-.71c-4.93-.72-9.87-1.37-14.81-2.07-2.08-.29-4.14-.64-6.22-1-1.3-.2-2.59-.46-3.89-.54-3.41-.23-6.8-.57-10.17-1.12a5.26,5.26,0,0,0-.78.07,1.72,1.72,0,0,0-1.3,1.68,19,19,0,0,0,2.31,6.64,10,10,0,0,1,.84,2.2,5.84,5.84,0,0,1,.21,3.1,38.42,38.42,0,0,1-2.78,9c-2.32,4.71-4.24,9.6-6.56,14.3a12.56,12.56,0,0,1-1.14,2.07q-2.36,3.15-4.84,6.2a6.2,6.2,0,0,1-3.35,2,13.83,13.83,0,0,1-2.31.43c-1,.1-2.1.07-3.15.13-2.62.15-5.24.3-7.85.51a3.19,3.19,0,0,0-2.08,1c-3.49,3.61-5.93,8-8.81,12.05a1.67,1.67,0,0,0-.21,1.52,43.55,43.55,0,0,0,2.36,6.66c1.84,3.56,2.11,7.54,3,11.36a3.44,3.44,0,0,1-.21,1.53,7.19,7.19,0,0,1-3.13,4.38,30.38,30.38,0,0,1-3.41,2c-2.12,1-4.31,1.93-6.42,3a79.28,79.28,0,0,1-9.46,3.88c-4,1.38-7.94,2.73-11.9,4.11a6,6,0,0,0-2,1.08c-.39.33-.5,1.8-.07,2.1a1.93,1.93,0,0,0,.69.37,15.85,15.85,0,0,0,6.25-.13,29.94,29.94,0,0,1,6.22-.91c4.79.14,9.36-1,14-2.13.76-.18,1.51-.46,2.28-.6a81.09,81.09,0,0,0,12.83-3.72c6.19-2.16,12.26-4.61,18.28-7.22a85.06,85.06,0,0,0,20.88-12.46c1.21-1,2.48-1.94,3.72-2.91a51.23,51.23,0,0,0,6.38-5.85c1.6-1.74,3.26-3.42,4.85-5.17a68,68,0,0,0,10.93-15.35,48.91,48.91,0,0,0,2.57-8.22c.48-5.49,1.38-10.94,1.26-16.48C1142,398.36,1142,397.05,1142,396.81Zm3.33-130.88a188.39,188.39,0,0,0-11.86-19.28c-1.22-1.71-2.48-3.39-3.83-5-3.19-3.82-13.31-13.1-17.4-15.88a151.77,151.77,0,0,0-21-12.39,96.39,96.39,0,0,0-25.31-8.3c-3.61-.7-7.19-1.47-10.79-2.21a14.46,14.46,0,0,0-2.31-.44c-3.93-.11-7.85-.65-11.79-.45a3.72,3.72,0,0,0-1.53.28,2.36,2.36,0,0,0-1.07,1.07,8.49,8.49,0,0,0-.34,3.88,2.77,2.77,0,0,0,1.81,2.31c6.33,1.68,12.67,3.32,19,5,4.55,1.23,9.09,2.49,13.7,3.51a74.58,74.58,0,0,1,10.52,3.2,7.61,7.61,0,0,1,4.51,4.14c.11.24.25.46.34.71a15.71,15.71,0,0,0,5.13,6.83,85.09,85.09,0,0,1,7.47,7c2.74,2.82,5.49,5.63,8.28,8.4a113,113,0,0,1,10.27,11.9,5.64,5.64,0,0,1,.92,4.5,20.54,20.54,0,0,1-.63,2.26c-.22.74-.48,1.48-.66,2.24a2,2,0,0,0,.32,1.5,24.53,24.53,0,0,0,3.69,4.06,90.2,90.2,0,0,1,14.2,18.77c1.31,2.27,2.61,4.55,3.94,6.8a7.71,7.71,0,0,0,1,1.22,1.54,1.54,0,0,0,1.41.49c.14,0,.29-.4.31-.62.14-1.3.29-2.6.33-3.9.18-5,.42-10,1-14.92A126.61,126.61,0,0,0,1145.33,265.93Zm-139-80.47c-.18,2.08-.34,4.17-.53,6.25-.24,2.61-.53,5.21-.73,7.81-.29,3.92-.52,7.83-.77,11.74a2.11,2.11,0,0,0,1.22,1.84,12.37,12.37,0,0,0,3.71,1.23,75.14,75.14,0,0,1,9.14,2.22c1,.29,2,.64,3,.88a3.25,3.25,0,0,0,1.55,0,2.17,2.17,0,0,0,1.21-.87,9.43,9.43,0,0,0,1-4.55c.07-4.71.09-9.41.59-14.11.59-5.46,1-10.95,1.47-16.42a34.53,34.53,0,0,1,.69-4.65,38.53,38.53,0,0,0,.46-11.69,1.4,1.4,0,0,0-.87-1.23,8.2,8.2,0,0,0-1.38-.71c-4.06-1-8-2.33-12-3.54-1.25-.37-2.54-.63-3.81-.94-1.09-.26-1.88.38-2,1.68C1007.13,168.74,1006.71,177.1,1006.29,185.46ZM1129,339.63c.93.21,1.44.34,2,.44l9.28,1.78a2.54,2.54,0,0,0,2.92-2,10.29,10.29,0,0,0,.11-4.68,32.37,32.37,0,0,0-1.78-6,117.19,117.19,0,0,0-8.45-16.88c-2.63-4.24-5.14-8.55-7.61-12.88-4.43-7.74-4.41-7.76-10.32-13.78l-2.23-2.23a1.4,1.4,0,0,0-2,0c-.93,1.27-1.89,2.52-2.78,3.81a3,3,0,0,0,0,3.65c5,6.75,9.12,14.1,13.46,21.29a12.14,12.14,0,0,1,1.44,7.62,6.64,6.64,0,0,1-.38,1.52,15.52,15.52,0,0,1-2.26,4.13,29.41,29.41,0,0,0-3.08,4.56c-.93,1.88-1.88,3.75-2.82,5.63-.28.57.34,1.64,1,1.81a54.36,54.36,0,0,0,10,1.83C1126.86,339.28,1128.16,339.52,1129,339.63Zm34.5,19-5.69-.56a2.59,2.59,0,0,0-2.26,1.83,48.6,48.6,0,0,0,0,9.42,3.61,3.61,0,0,0,2.61,2.62c.78.12,1.55.28,2.33.35a60.25,60.25,0,0,1,8.57,1.16,43.07,43.07,0,0,0,4.68.6,36.15,36.15,0,0,1,3.9.5,58.61,58.61,0,0,0,7.8,1,174.59,174.59,0,0,1,25.59,4.21c.51.12,1,.11,1.56.19a2.28,2.28,0,0,0,2.31-1.69c.39-1.79.84-3.57,1.15-5.38a9.54,9.54,0,0,0-.11-3.91,2.27,2.27,0,0,0-.87-1.24,6.11,6.11,0,0,0-2.12-1c-4.11-.78-8.23-1.62-12.38-2.19-7.28-1-14.56-1.9-21.76-3.38-4.37-.89-8.76-1.66-13.19-2.17C1165.39,359,1165.14,358.89,1163.54,358.59Zm-19.94,3.5c-.11-1.38-.26-3.2-.42-5a2.8,2.8,0,0,0-1.47-1.7l-3.07-.61c-6.41-1.25-12.79-2.69-19.32-3.27a30,30,0,0,1-3.08-.63L1107,349c-1.65-.33-2.89.35-3.87,2a34.09,34.09,0,0,0-2.77,5.62c-.63,1.72-1.22,3.45-1.83,5.17a2,2,0,0,0,1.59,2.24c1.56.21,3.11.46,4.67.57,5.23.36,10.41,1.14,15.56,1.95,5.69.9,11.42,1.46,17.08,2.48a29.82,29.82,0,0,0,3.13.28c.26,0,.52,0,.78,0a2.29,2.29,0,0,0,2.05-2C1143.47,365.67,1143.52,364.11,1143.6,362.09Z" transform="translate(-635.18 -143.24)"/><path class="cls-1" d="M988,272.15c-.22,3.67-.39,7.35-.66,11-.66,9.17-1.31,18.34-1.57,27.54a46.5,46.5,0,0,1-.4,4.71,106.37,106.37,0,0,0-.74,11c-.11,4.2-.26,8.4-.39,12.6,0,.27,0,.53,0,.79-.75,6.28-.52,12.59-.78,18.89-.25,6-.21,12.08-.24,18.13-.06,18.91-.19,37.83-.19,56.75,0,9.72.21,19.44.31,29.16,0,1.57-.06,3.14-.12,4.72a1.7,1.7,0,0,1-1.47,1.55,103.45,103.45,0,0,1-12.51-1.42,52.14,52.14,0,0,0-6.26-.72,106.33,106.33,0,0,1-11-1.16,29.7,29.7,0,0,0-3.13-.37c-7.08-.55-14.1-1.52-21.12-2.52-.52-.07-1.05-.16-1.57-.18-8.92-.46-17.76-1.94-26.7-2.24a84.3,84.3,0,0,1-11-.84,41.11,41.11,0,0,0-4.72-.31c-5.51-.27-11-.48-16.5-1.24-2.33-.32-4.71-.35-7.07-.51a36.77,36.77,0,0,1-4.71-.34c-6.2-1.25-12.56-1.15-18.74-2.47-5.78-.35-11.42-1.79-17.19-2.23-1.3-.1-2.59-.43-3.89-.63-8.56-1.32-17.06-3-25.66-4.13-3.64-.46-7.26-1.14-10.89-1.73-3.37-.54-6.74-1-10.13-1.45-3.9-.51-7.77-1.28-11.65-2-4.65-.84-9.26-1.85-13.92-2.68-6.46-1.15-12.92-2.32-19.36-3.57-3.86-.75-7.77-1.25-11.61-2.16s-7.76-1.37-11.62-2.14c-5.66-1.13-11.32-2.29-16.95-3.57-2.05-.47-4.12-.79-6.17-1.23-9-1.91-18-3.81-26.82-6.32a3.4,3.4,0,0,1-2.36-2.85c0-.26-.05-.53-.05-.79,0-.79-.06-1.57,0-2.36.32-9.2,0-18.39,0-27.59.09-15.76.12-31.53.18-47.29,0-4.73.07-9.46.08-14.19a53.22,53.22,0,0,1,.5-8.65,54.22,54.22,0,0,0,.62-8.63c0-3.15.05-6.31.08-9.46,0-1.58,0-3.16.09-4.73.57-10,.74-19.95.4-29.94a101.18,101.18,0,0,1,.26-11.81,2.68,2.68,0,0,1,.55-1.44,3.41,3.41,0,0,1,1.36-.76,7.94,7.94,0,0,1,1.53-.37c6-.93,11.87-2.26,17.92-2.63,5.7-1.09,11.49-1.23,17.24-1.8,5.23-.52,10.45-1,15.7-1.28a10.18,10.18,0,0,0,1.57-.15c4.67-.87,9.41-.92,14.12-1.27,5-.38,10-.5,14.93-1.14a71,71,0,0,1,7.87-.4,133,133,0,0,0,13.36-.88c2.86-.36,5.75-.5,8.64-.61,5.51-.23,11-.19,16.5-1.07,4.2-.15,8.4-.32,12.61-.44,5.25-.15,10.5-.27,15.75-.41.79,0,1.58,0,2.37-.09,7.58-.88,15.21-.72,22.82-1.07,4.46-.21,8.92-.39,13.38-.64,7.08-.41,14.17-.75,21.24-1.34,8.38-.7,16.77-1.07,25.17-1.31A113.64,113.64,0,0,0,907,232.6c1.81-.24,3.66-.24,5.5-.35,4.72-.29,9.44-.43,14.13-1.17a46.2,46.2,0,0,1,4.71-.35c6.82-.34,13.64-.75,20.45-1.37,6.28-.57,12.59-.51,18.89-.77,2.37-.09,4.73-.1,7.09-.26a56.19,56.19,0,0,1,10.21.5,2.57,2.57,0,0,1,1.51,1.61,23.56,23.56,0,0,1,.21,2.35c-.07,2.89-.15,5.78-.32,8.66-.39,6.82-.86,13.64-1.23,20.46-.19,3.41-.23,6.82-.34,10.24Zm-146.21-2.88a120.64,120.64,0,0,0-25,2.85,57.91,57.91,0,0,0-6.1,1.54c-4,1.32-7.94,2.71-11.81,4.36a43.54,43.54,0,0,0-7.6,4.11,35.6,35.6,0,0,0-4.33,3.4c-1.34,1.25-2.7,2.5-4.12,3.67a28.88,28.88,0,0,0-5.8,6.39c-3.63,5.46-7.77,10.59-10.65,16.54a43.93,43.93,0,0,0-6.21,12.67,16.71,16.71,0,0,1-1.27,2.88,20,20,0,0,0-1.57,5.26,53.15,53.15,0,0,0-1,11.74c0,1.84,0,3.68,0,5.51.07,4.75,1.08,9.39,1.6,14.08a72.9,72.9,0,0,0,31.25,45.63,72.31,72.31,0,0,0,17.48,8.93q1.5.51,3,1.05a83,83,0,0,0,19.06,4.72,30.11,30.11,0,0,1,3.11.52,41.49,41.49,0,0,0,8.61.85c3.93,0,7.87-.11,11.81-.16,2.91,0,5.69-1,8.55-1.34a60.6,60.6,0,0,0,12.13-3.28,81.75,81.75,0,0,0,13.4-6.61A39.92,39.92,0,0,0,899,403.09c2.44-3.42,4.79-6.9,7.15-10.38a15.81,15.81,0,0,0,1.13-2.06,77.65,77.65,0,0,0,5.76-16.3,65.31,65.31,0,0,0,2.09-13.2c0-1.31.17-2.62.24-3.93a133.8,133.8,0,0,0-.31-14.16c-1-5.95-1.54-12-2.89-17.88-1.78-7.74-4.27-15.13-9.1-21.58-1.1-1.47-2-3.11-3-4.63-1.47-2.18-3-4.35-4.51-6.46a44.89,44.89,0,0,0-9.52-9.35,51.56,51.56,0,0,0-13-7.28c-1.23-.44-2.47-.91-3.66-1.45-5.8-2.67-12.09-3.41-18.26-4.6Z" transform="translate(-635.18 -143.24)"/><path class="cls-1" d="M992.32,197c-.11,4.75-.87,10.49-1.5,16.23a3,3,0,0,1-2.79,2.31c-.53,0-1,.08-1.58.05-1-.06-2.1-.12-3.13-.26a32.24,32.24,0,0,0-6.29,0c-5.23.35-10.48.53-15.73.76s-10.49.44-15.74.68a39.35,39.35,0,0,0-3.92.34,86.17,86.17,0,0,1-11,.79,60.85,60.85,0,0,0-8.63.69,77.35,77.35,0,0,1-10.2.82c-3.94.09-7.86.44-11.78.89-3.64.41-7.33.46-11,.6-4.46.17-8.93.25-13.39.39a25.21,25.21,0,0,0-3.14.2,149.19,149.19,0,0,1-17.28,1.24c-2.89.11-5.76.31-8.64.59-7.33.7-14.68.86-22,.95-4.73.06-9.45.22-14.16.55-8.13.58-16.26.87-24.41.95a73.4,73.4,0,0,0-8.64.53c-3.13.41-6.28.54-9.43.67a172.29,172.29,0,0,0-18.85,1.28,46.34,46.34,0,0,1-4.72.26c-3.15.13-6.3.18-9.45.38-4.45.3-8.91.38-13.34,1a62.93,62.93,0,0,1-6.29.48c-3.93.2-7.85.47-11.76,1-2.85.41-5.75.5-8.64.63a75.62,75.62,0,0,0-10.19.89,18.72,18.72,0,0,1-2.34.3c-6.05.27-12,1.45-18,2-2.89.24-5.7.91-8.55,1.39a18.17,18.17,0,0,1-2.34.09,2.14,2.14,0,0,1-1.61-1.45,23.42,23.42,0,0,1-.17-2.35c.08-3.15.17-6.3.31-9.45.2-4.46.45-8.92.67-13.37a2.91,2.91,0,0,1,1.36-1.83,23.21,23.21,0,0,1,3.77-1c5.22-.55,10.33-1.89,15.59-2.18a10.09,10.09,0,0,0,2.34-.34c3.78-1.18,7.78-1.24,11.61-2.18a24.77,24.77,0,0,1,3.11-.44c.78-.09,1.58-.09,2.36-.2,3.12-.43,6.23-.95,9.35-1.31a92.78,92.78,0,0,0,9.39-1.1,9.12,9.12,0,0,1,1.56-.2c9.46-.29,18.79-2.1,28.26-2.23a37.09,37.09,0,0,0,4.71-.39c4.43-.63,8.88-.91,13.34-1.13a62.7,62.7,0,0,0,6.29-.47c3.9-.6,7.83-.77,11.76-1,2.62-.16,5.24-.44,7.85-.7,1.3-.12,2.6-.37,3.91-.46,4.45-.29,8.93-.35,13.36-.85,4.18-.48,8.35-.93,12.54-1.18,2.1-.12,4.2-.27,6.28-.55,3.65-.49,7.31-.75,11-.91s7.33-.39,11-.86a114.66,114.66,0,0,1,13.36-.86,60.75,60.75,0,0,0,8.62-.72c2.08-.32,4.18-.46,6.27-.58,3.94-.24,7.87-.45,11.77-1.06,1.55-.25,3.13-.3,4.7-.42,4.45-.35,8.91-.53,13.33-1.24a73.38,73.38,0,0,1,7.86-.51c3.94-.19,7.86-.37,11.77-1,2.34-.35,4.71-.46,7.06-.63a68.81,68.81,0,0,0,9.39-1,38.6,38.6,0,0,1,4.7-.51,79.88,79.88,0,0,0,9.37-1.14,29.66,29.66,0,0,1,4.7-.53c4.19-.19,8.39-.35,12.59-.44,3.68-.08,7.34-.17,11-.53a65.38,65.38,0,0,1,11.79-.09,2.27,2.27,0,0,1,1.65,1.47,7,7,0,0,1,.21,1.55C993.14,185.52,992.76,190.76,992.32,197Z" transform="translate(-635.18 -143.24)"/><path class="cls-2" d="M1064.12,413.21c-.47.76-1.08,1.62-1.57,2.55a42,42,0,0,1-4.37,6.53,31.69,31.69,0,0,0-3.16,4.5c-1.87,3.46-4.12,6.72-5.54,10.42-.19.49-.37,1-.54,1.48a4.36,4.36,0,0,0-.12,3.06,38,38,0,0,1,1.58,4.45c.63,2.55,2.07,4.83,2.39,7.47a3,3,0,0,1-.85,2.1c-.43.29-.85.61-1.31.87a40.37,40.37,0,0,1-7.16,3.23c-3.73,1.27-7.48,2.47-11.22,3.69A2,2,0,0,1,1030,462c0-.26-.13-.52-.14-.78-.21-5.24-.42-10.49-.6-15.74a229.51,229.51,0,0,1,.74-23.6c.24-3.4.28-6.82.39-10.23q.2-5.9.37-11.8c.06-1.84.15-3.68.15-5.51a80.11,80.11,0,0,1,.62-11.79,28.6,28.6,0,0,0,.23-3.93q.18-13.38.34-26.78c0-3.93,0-7.87.22-11.81.18-4.19.08-8.4.13-12.6,0-5.25-.12-10.5.59-15.73a13.64,13.64,0,0,0,.09-1.57c.21-7.61.44-15.22.6-22.83a71.42,71.42,0,0,1,.87-11.77,43.75,43.75,0,0,0,.47-7.85c0-4.2,0-8.4.1-12.6a6,6,0,0,1,.5-2.27c.18-.4.75-.65,1.19-.91a1.18,1.18,0,0,1,.76-.13c2.32.44,4.63.91,7,1.36,1.29.25,2.57.55,3.87.69a76.91,76.91,0,0,1,15.32,3.53,210.12,210.12,0,0,1,34.77,14.67,10.12,10.12,0,0,1,1.84,1.45.84.84,0,0,1,.16.67,8.74,8.74,0,0,1-2.09,4.17c-1.72,2-3.53,3.89-5.26,5.85a5.64,5.64,0,0,0-1.31,3.63,6.12,6.12,0,0,0,.87,3.78c1.62,2.39,3.33,4.72,5,7a146.23,146.23,0,0,1,11.25,18,2.51,2.51,0,0,1-.13,2.27,14.06,14.06,0,0,1-.83,1.33,17.6,17.6,0,0,0-1.26,2,43.06,43.06,0,0,1-7.09,10.34,52.67,52.67,0,0,0-8.15,12.47c-1.2,2.62-2.73,5.08-3.56,7.87-.61,2-1.91,3.73-2.81,5.62a9.1,9.1,0,0,0-.93,3c-.14,1.56-.31,3.13-.34,4.7a6.3,6.3,0,0,0,.42,2.31c.46,1.22,1.06,2.4,1.61,3.58a40.48,40.48,0,0,1,3,8.92,68.84,68.84,0,0,0,2.42,9.12,4,4,0,0,1-.06,3.08c-2.36,5-4.34,10.13-7,15a18.84,18.84,0,0,1-1.8,2.57,2.91,2.91,0,0,1-2,1.17c-2.34.23-4.69.42-7,.55a30.14,30.14,0,0,1-3.15-.11c-1.05-.05-2.09-.11-3.14-.15A5.41,5.41,0,0,0,1064.12,413.21Z" transform="translate(-635.18 -143.24)"/><path class="cls-2" d="M995.84,415c0-11.33,0-21.32.09-31.31,0-4.2.07-8.41.08-12.61a96.27,96.27,0,0,1,.52-12.59,42.23,42.23,0,0,0,.19-5.51c0-8.68.49-17.34.69-26a57.31,57.31,0,0,1,.47-6.28,88.13,88.13,0,0,0,.76-11c0-5.27.45-10.5.91-15.74.24-2.62.43-5.24.55-7.86.31-6.83.53-13.66.85-20.48.15-3.15.5-6.28.67-9.43s.2-6.3.33-9.45.34-6.3.47-9.45a69,69,0,0,1,1-8.6,2.08,2.08,0,0,1,2.33-1.6c1.56.22,3.12.44,4.66.74a26.87,26.87,0,0,1,3,.88,55.06,55.06,0,0,0,8.4,2.06,2.55,2.55,0,0,1,1.82,2.27c0,.26,0,.52-.07.78a40.41,40.41,0,0,0-.71,7.84c0,1.84,0,3.68-.13,5.51-.57,6.56-.59,13.13-.56,19.7a34.13,34.13,0,0,1-.53,7.06,43,43,0,0,0-.67,8.63c0,7.63-.3,15.23-.85,22.84-.43,5.76-.48,11.55-.58,17.33-.14,7.88-.3,15.77-.21,23.65.11,9.73-.2,19.44-.48,29.16-.07,2.36-.21,4.73-.46,7.07a76.67,76.67,0,0,0-.4,7.87c0,4.21,0,8.41-.29,12.61-.13,1.83-.1,3.68-.09,5.52a97.06,97.06,0,0,1-.78,14.15,64.41,64.41,0,0,0-.38,7.87c-.06,3.68,0,7.36,0,11q0,16.54.1,33.11a30.45,30.45,0,0,0,.07,3.94c1.1,8.11.59,16.26.74,24.4a12.21,12.21,0,0,1-.25,2.33,2.16,2.16,0,0,1-1.44,1.73,57.86,57.86,0,0,1-7.58,2.07c-2.59.45-5.13,1.09-7.71,1.56a1.73,1.73,0,0,1-1.82-1.15,18.05,18.05,0,0,1-.8-3c-.26-2.35-.46-4.71-.54-7.07q-.27-9.06-.41-18.13c-.09-4.73,0-9.46-.57-14.17-.18-1.56-.11-3.15-.14-4.73q-.19-13-.37-26c0-1.84-.06-3.68,0-5.52C996,425.16,995.93,419.38,995.84,415Z" transform="translate(-635.18 -143.24)"/><path class="cls-3" d="M1142,396.81c0,.24,0,1.55,0,2.86.12,5.54-.78,11-1.26,16.48a48.91,48.91,0,0,1-2.57,8.22,68,68,0,0,1-10.93,15.35c-1.59,1.75-3.25,3.43-4.85,5.17a51.23,51.23,0,0,1-6.38,5.85c-1.24,1-2.51,1.9-3.72,2.91a85.06,85.06,0,0,1-20.88,12.46c-6,2.61-12.09,5.06-18.28,7.22a81.09,81.09,0,0,1-12.83,3.72c-.77.14-1.52.42-2.28.6-4.6,1.08-9.17,2.27-14,2.13a29.94,29.94,0,0,0-6.22.91,15.85,15.85,0,0,1-6.25.13,1.93,1.93,0,0,1-.69-.37c-.43-.3-.32-1.77.07-2.1a6,6,0,0,1,2-1.08c4-1.38,7.94-2.73,11.9-4.11a79.28,79.28,0,0,0,9.46-3.88c2.11-1.06,4.3-1.95,6.42-3a30.38,30.38,0,0,0,3.41-2,7.19,7.19,0,0,0,3.13-4.38,3.44,3.44,0,0,0,.21-1.53c-.92-3.82-1.19-7.8-3-11.36a43.55,43.55,0,0,1-2.36-6.66,1.67,1.67,0,0,1,.21-1.52c2.88-4.06,5.32-8.44,8.81-12.05a3.19,3.19,0,0,1,2.08-1c2.61-.21,5.23-.36,7.85-.51,1.05-.06,2.1,0,3.15-.13a13.83,13.83,0,0,0,2.31-.43,6.2,6.2,0,0,0,3.35-2q2.49-3,4.84-6.2a12.56,12.56,0,0,0,1.14-2.07c2.32-4.7,4.24-9.59,6.56-14.3a38.42,38.42,0,0,0,2.78-9,5.84,5.84,0,0,0-.21-3.1,10,10,0,0,0-.84-2.2,19,19,0,0,1-2.31-6.64,1.72,1.72,0,0,1,1.3-1.68,5.26,5.26,0,0,1,.78-.07c3.37.55,6.76.89,10.17,1.12,1.3.08,2.59.34,3.89.54,2.08.32,4.14.67,6.22,1,4.94.7,9.88,1.35,14.81,2.07a17.51,17.51,0,0,1,2.23.71,3.1,3.1,0,0,1,1.39,1.79c0,2.1,0,4.2-.16,6.3C1142.45,392.6,1142.25,394.16,1142,396.81Z" transform="translate(-635.18 -143.24)"/><path class="cls-3" d="M1145.33,265.93a126.61,126.61,0,0,1-.39,16.7c-.56,5-.8,9.93-1,14.92,0,1.3-.19,2.6-.33,3.9,0,.22-.17.6-.31.62a1.54,1.54,0,0,1-1.41-.49,7.71,7.71,0,0,1-1-1.22c-1.33-2.25-2.63-4.53-3.94-6.8a90.2,90.2,0,0,0-14.2-18.77,24.53,24.53,0,0,1-3.69-4.06,2,2,0,0,1-.32-1.5c.18-.76.44-1.5.66-2.24a20.54,20.54,0,0,0,.63-2.26,5.64,5.64,0,0,0-.92-4.5,113,113,0,0,0-10.27-11.9c-2.79-2.77-5.54-5.58-8.28-8.4a85.09,85.09,0,0,0-7.47-7,15.71,15.71,0,0,1-5.13-6.83c-.09-.25-.23-.47-.34-.71a7.61,7.61,0,0,0-4.51-4.14,74.58,74.58,0,0,0-10.52-3.2c-4.61-1-9.15-2.28-13.7-3.51-6.32-1.71-12.66-3.35-19-5a2.77,2.77,0,0,1-1.81-2.31,8.49,8.49,0,0,1,.34-3.88,2.36,2.36,0,0,1,1.07-1.07,3.72,3.72,0,0,1,1.53-.28c3.94-.2,7.86.34,11.79.45a14.46,14.46,0,0,1,2.31.44c3.6.74,7.18,1.51,10.79,2.21a96.39,96.39,0,0,1,25.31,8.3,151.77,151.77,0,0,1,21,12.39c4.09,2.78,14.21,12.06,17.4,15.88,1.35,1.61,2.61,3.29,3.83,5A188.39,188.39,0,0,1,1145.33,265.93Z" transform="translate(-635.18 -143.24)"/><path class="cls-2" d="M1006.29,185.46c.42-8.36.84-16.72,1.88-25,.16-1.3,1-1.94,2-1.68,1.27.31,2.56.57,3.81.94,4,1.21,8,2.52,12,3.54a8.2,8.2,0,0,1,1.38.71,1.4,1.4,0,0,1,.87,1.23,38.53,38.53,0,0,1-.46,11.69,34.53,34.53,0,0,0-.69,4.65c-.51,5.47-.88,11-1.47,16.42-.5,4.7-.52,9.4-.59,14.11a9.43,9.43,0,0,1-1,4.55,2.17,2.17,0,0,1-1.21.87,3.25,3.25,0,0,1-1.55,0c-1-.24-2-.59-3-.88a75.14,75.14,0,0,0-9.14-2.22,12.37,12.37,0,0,1-3.71-1.23,2.11,2.11,0,0,1-1.22-1.84c.25-3.91.48-7.82.77-11.74.2-2.6.49-5.2.73-7.81C1006,189.63,1006.11,187.54,1006.29,185.46Z" transform="translate(-635.18 -143.24)"/><path class="cls-3" d="M1129,339.63c-.88-.11-2.18-.35-3.49-.42a54.36,54.36,0,0,1-10-1.83c-.71-.17-1.33-1.24-1-1.81.94-1.88,1.89-3.75,2.82-5.63a29.41,29.41,0,0,1,3.08-4.56,15.52,15.52,0,0,0,2.26-4.13,6.64,6.64,0,0,0,.38-1.52,12.14,12.14,0,0,0-1.44-7.62c-4.34-7.19-8.43-14.54-13.46-21.29a3,3,0,0,1,0-3.65c.89-1.29,1.85-2.54,2.78-3.81a1.4,1.4,0,0,1,2,0l2.23,2.23c5.91,6,5.89,6,10.32,13.78,2.47,4.33,5,8.64,7.61,12.88a117.19,117.19,0,0,1,8.45,16.88,32.37,32.37,0,0,1,1.78,6,10.29,10.29,0,0,1-.11,4.68,2.54,2.54,0,0,1-2.92,2l-9.28-1.78C1130.48,340,1130,339.84,1129,339.63Z" transform="translate(-635.18 -143.24)"/><path class="cls-4" d="M1163.54,358.59c1.6.3,1.85.36,2.11.39,4.43.51,8.82,1.28,13.19,2.17,7.2,1.48,14.48,2.39,21.76,3.38,4.15.57,8.27,1.41,12.38,2.19a6.11,6.11,0,0,1,2.12,1,2.27,2.27,0,0,1,.87,1.24,9.54,9.54,0,0,1,.11,3.91c-.31,1.81-.76,3.59-1.15,5.38a2.28,2.28,0,0,1-2.31,1.69c-.52-.08-1-.07-1.56-.19a174.59,174.59,0,0,0-25.59-4.21,58.61,58.61,0,0,1-7.8-1,36.15,36.15,0,0,0-3.9-.5,43.07,43.07,0,0,1-4.68-.6,60.25,60.25,0,0,0-8.57-1.16c-.78-.07-1.55-.23-2.33-.35a3.61,3.61,0,0,1-2.61-2.62,48.6,48.6,0,0,1,0-9.42,2.59,2.59,0,0,1,2.26-1.83Z" transform="translate(-635.18 -143.24)"/><path class="cls-2" d="M1096.65,255.46a7.35,7.35,0,0,1-2.31-.13c-2.45-.92-4.84-2-7.25-3a196.07,196.07,0,0,0-22.91-8.25,103.28,103.28,0,0,0-13-2.9,77.84,77.84,0,0,1-13.05-2.82,2.4,2.4,0,0,1-1.6-2.39q.29-5.1.58-10.2a2.76,2.76,0,0,1,.21-.73,1.73,1.73,0,0,1,1-1.08,2.21,2.21,0,0,1,.75-.25,31.77,31.77,0,0,1,7.76,1c3,.79,6.08,1.6,9.1,2.46,4.29,1.22,8.59,2.33,12.93,3.34,2,.47,4.05,1.09,6.06,1.68a4.23,4.23,0,0,1,1.85,1.4,4,4,0,0,1,.46.64A32.66,32.66,0,0,0,1085,243a98,98,0,0,1,11.07,11.15,1.89,1.89,0,0,1,.42,1.45Z" transform="translate(-635.18 -143.24)"/><path class="cls-4" d="M1143.6,362.09c-.08,2-.13,3.58-.19,5.15a2.29,2.29,0,0,1-2.05,2c-.26,0-.52,0-.78,0a29.82,29.82,0,0,1-3.13-.28c-5.66-1-11.39-1.58-17.08-2.48-5.15-.81-10.33-1.59-15.56-1.95-1.56-.11-3.11-.36-4.67-.57a2,2,0,0,1-1.59-2.24c.61-1.72,1.2-3.45,1.83-5.17a34.09,34.09,0,0,1,2.77-5.62c1-1.63,2.22-2.31,3.87-2l9.22,1.88a30,30,0,0,0,3.08.63c6.53.58,12.91,2,19.32,3.27l3.07.61a2.8,2.8,0,0,1,1.47,1.7C1143.34,358.89,1143.49,360.71,1143.6,362.09Z" transform="translate(-635.18 -143.24)"/><path class="cls-2" d="M1096.47,255.64c.51.08.75.26.73.55-.12-.05-.29-.08-.35-.17a2.66,2.66,0,0,1-.2-.56Z" transform="translate(-635.18 -143.24)"/><path d="M841.75,269.27l9.38.56c6.17,1.19,12.46,1.93,18.26,4.6,1.19.54,2.43,1,3.66,1.45a51.56,51.56,0,0,1,13,7.28,44.89,44.89,0,0,1,9.52,9.35c1.56,2.11,3,4.28,4.51,6.46,1,1.52,1.88,3.16,3,4.63,4.83,6.45,7.32,13.84,9.1,21.58,1.35,5.91,1.86,11.93,2.89,17.88a133.8,133.8,0,0,1,.31,14.16c-.07,1.31-.21,2.62-.24,3.93a65.31,65.31,0,0,1-2.09,13.2,77.65,77.65,0,0,1-5.76,16.3,15.81,15.81,0,0,1-1.13,2.06c-2.36,3.48-4.71,7-7.15,10.38a39.92,39.92,0,0,1-12.8,11.49,81.75,81.75,0,0,1-13.4,6.61,60.6,60.6,0,0,1-12.13,3.28c-2.86.37-5.64,1.3-8.55,1.34-3.94.05-7.88.19-11.81.16a41.49,41.49,0,0,1-8.61-.85,30.11,30.11,0,0,0-3.11-.52,83,83,0,0,1-19.06-4.72q-1.47-.54-3-1.05a72.31,72.31,0,0,1-17.48-8.93,72.9,72.9,0,0,1-31.25-45.63c-.52-4.69-1.53-9.33-1.6-14.08,0-1.83,0-3.67,0-5.51a53.15,53.15,0,0,1,1-11.74,20,20,0,0,1,1.57-5.26,16.71,16.71,0,0,0,1.27-2.88,43.93,43.93,0,0,1,6.21-12.67c2.88-5.95,7-11.08,10.65-16.54a28.88,28.88,0,0,1,5.8-6.39c1.42-1.17,2.78-2.42,4.12-3.67a35.6,35.6,0,0,1,4.33-3.4,43.54,43.54,0,0,1,7.6-4.11c3.87-1.65,7.83-3,11.81-4.36a57.91,57.91,0,0,1,6.1-1.54A120.64,120.64,0,0,1,841.75,269.27Zm60.9,82.94c0-1.23-.18-4.11-.3-7-1.12-5.66-1.47-11.43-2.73-17.09A45.93,45.93,0,0,0,895.83,317a123.71,123.71,0,0,0-9.08-14.73,41.79,41.79,0,0,0-3-3.68,29.17,29.17,0,0,0-2.76-2.8,42,42,0,0,0-12.63-7.85c-1.22-.47-2.47-.9-3.66-1.44-5.1-2.29-10.58-3.05-16-3.88a53.88,53.88,0,0,0-12.57-.3c-3.66.3-7.29.79-10.92,1.34a90.7,90.7,0,0,0-16.7,4.41c-5.51,1.93-10.66,4.42-14.73,8.76-4.8,3.63-5.39,4.76-8.38,9.27-.72,1.09-1.48,2.17-2.25,3.23a65.27,65.27,0,0,0-4.66,7.29c-.63,1.15-1.22,2.33-1.95,3.42a38.47,38.47,0,0,0-4.36,9.21,21.06,21.06,0,0,1-.76,2.24,25.6,25.6,0,0,0-2.18,9.13,45,45,0,0,0,.08,11c.24,1.55.4,3.12.5,4.69a43.76,43.76,0,0,0,1.71,9.27A59,59,0,0,0,785.42,390a69.12,69.12,0,0,0,16.84,12.83c.69.38,1.38.75,2.1,1.07,8.66,3.87,17.52,7,27,8.08,1,.12,2.08.31,3.11.49a58.45,58.45,0,0,0,20.35-.11c.78-.15,1.55-.31,2.33-.39a49.59,49.59,0,0,0,14.3-4.17,20.74,20.74,0,0,0,4.78-2.71,22.72,22.72,0,0,1,4.73-2.79,17.29,17.29,0,0,0,6.06-4.92,94.78,94.78,0,0,0,8.8-13,27.61,27.61,0,0,0,1.94-4.29A79,79,0,0,0,902.65,352.21Z" transform="translate(-635.18 -143.24)"/><path class="cls-5" d="M902.65,352.21A79,79,0,0,1,897.78,380a27.61,27.61,0,0,1-1.94,4.29,94.78,94.78,0,0,1-8.8,13,17.29,17.29,0,0,1-6.06,4.92,22.72,22.72,0,0,0-4.73,2.79,20.74,20.74,0,0,1-4.78,2.71,49.59,49.59,0,0,1-14.3,4.17c-.78.08-1.55.24-2.33.39a58.45,58.45,0,0,1-20.35.11c-1-.18-2.07-.37-3.11-.49-9.5-1.06-18.36-4.21-27-8.08-.72-.32-1.41-.69-2.1-1.07A69.12,69.12,0,0,1,785.42,390a59,59,0,0,1-13.86-24.39,43.76,43.76,0,0,1-1.71-9.27c-.1-1.57-.26-3.14-.5-4.69a45,45,0,0,1-.08-11,25.6,25.6,0,0,1,2.18-9.13,21.06,21.06,0,0,0,.76-2.24,38.47,38.47,0,0,1,4.36-9.21c.73-1.09,1.32-2.27,1.95-3.42a65.27,65.27,0,0,1,4.66-7.29c.77-1.06,1.53-2.14,2.25-3.23,3-4.51,3.58-5.64,8.38-9.27,4.07-4.34,9.22-6.83,14.73-8.76a90.7,90.7,0,0,1,16.7-4.41c3.63-.55,7.26-1,10.92-1.34a53.88,53.88,0,0,1,12.57.3c5.43.83,10.91,1.59,16,3.88,1.19.54,2.44,1,3.66,1.44A42,42,0,0,1,881,295.79a29.17,29.17,0,0,1,2.76,2.8,41.79,41.79,0,0,1,3,3.68A123.71,123.71,0,0,1,895.83,317a45.93,45.93,0,0,1,3.79,11.12c1.26,5.66,1.61,11.43,2.73,17.09C902.47,348.1,902.6,351,902.65,352.21Z" transform="translate(-635.18 -143.24)"/></svg>