<svg id="Layer_1" data-name="Layer 1" xmlns="http://www.w3.org/2000/svg" viewBox="0 0 578.91 334.56"><defs><style>.cls-1{fill:#d7934a;stroke:#c6893f;}.cls-1,.cls-3,.cls-4{stroke-miterlimit:10;}.cls-2{fill:#d4e8e1;}.cls-3{fill:#0d754c;stroke:#0d744b;}.cls-4{fill:#00643c;stroke:#006341;}</style></defs><path d="M727.28,282.49a83.61,83.61,0,0,1-.2-11.14c.09-1.84.08-3.68.06-5.52q-.14-14.19-.29-28.37c0-4.21.07-8.41-.25-12.61a6,6,0,0,1,4.66-6.47,80,80,0,0,0,12.79-3.9,163.23,163.23,0,0,1,22.6-6.8,42.51,42.51,0,0,1,6.23-.9,10.41,10.41,0,0,1,1.58,0,5.81,5.81,0,0,1,4.68,2.53c1.14,1.76,2.18,3.58,3.25,5.39a7.16,7.16,0,0,1,.89,3c.28,2.88.09,5.78.58,8.63a1.57,1.57,0,0,0,.91,1.2,16.79,16.79,0,0,0,3,1,45.69,45.69,0,0,0,4.68.6c2.62.24,5.23.47,7.82.91,2.07.36,4.18.47,6.27.65s4.21.17,6.28.48c4.69.72,9.4,1,14.12,1.32a27,27,0,0,1,3.92.37c3.1.63,6.26.75,9.38,1.19,4.69.66,9.38,1.21,14.1,1.51a12.22,12.22,0,0,1,2.34.33,72.1,72.1,0,0,0,10.14,1.4c6,.68,12,1.19,18,2.14,1.55.25,3.12.45,4.69.61a80,80,0,0,1,8.59,1.1,5.26,5.26,0,0,0,.78.12c5.5.4,11,1,16.43,1.89,6.06.22,12,1.81,18,2.22,7.26,1.18,14.56,2,21.87,2.85,1.3.15,2.62.27,3.9.54a62.44,62.44,0,0,0,6.24.88c2.08.22,4.16.59,6.23.89,1.3.2,2.59.46,3.9.57,2.88.25,5.72.82,8.59,1.13,5.48.6,10.93,1.46,16.4,2.16,1.82.24,3.64.52,5.46.78s3.63.54,5.46.72c2.62.27,5.23.51,7.82,1,1.54.3,3.12.39,4.69.55,6.79.69,13.54,1.87,20.38,2a114.29,114.29,0,0,0,14.89,1.48,22.8,22.8,0,0,1,2.35.23,135.44,135.44,0,0,0,14.9,1.36c4.72.33,9.42.84,14.13,1.29a4.32,4.32,0,0,1,1.53.33c2.18,1.12,4.59,1,6.91,1.32a6.57,6.57,0,0,1,4.74,4.77,62.93,62.93,0,0,1,1.09,11c0,2.63.14,5.25.21,7.88,0,2.1.13,4.2.14,6.3,0,8.67,0,17.34.08,26,.06,6.57.22,13.14.34,19.7a10.19,10.19,0,0,0,.1,1.57c.84,4.69.62,9.43.67,14.16,0,2.1.12,4.2.17,6.3,0,2.36.12,4.73.14,7.09,0,3.94,0,7.88,0,11.82,0,1.58.07,3.16,0,4.73-.56,7.87-.32,15.75-.32,23.63a23.58,23.58,0,0,1-.09,3.15,26.76,26.76,0,0,0-.11,7.84,6.93,6.93,0,0,1,0,2.36,24.42,24.42,0,0,0,.12,8.61,11.49,11.49,0,0,1-.15,3.92,39.75,39.75,0,0,0-.56,7.05c-.09,7.36-.22,14.71-.35,22.07,0,1.05-.08,2.1-.16,3.14a7.31,7.31,0,0,1-4.9,5.65c-.51.12-1,.28-1.53.35-5.2.73-10.39,1.61-15.62,2.11-5.49.52-10.91,1.67-16.43,1.88-5.67,1.12-11.5,1.17-17.14,2.49-5.51.41-10.87,1.94-16.39,2.23-5.68,1.08-11.49,1.26-17.15,2.48-1,.22-2.09.27-3.13.4-5,.64-9.93,1.08-14.84,2-6.2,1.14-12.45,1.93-18.67,2.95-2.85.47-5.64,1.2-8.51,1.61-7.79,1.11-15.59,2.25-23.4,3.25-4.62,1.1-9.4,1.08-14,2-4.39.86-8.88,1-13.23,2a8.32,8.32,0,0,1-1.57.19c-5.79.21-11.46,1.43-17.21,2-3.66.37-7.22,1.43-10.91,1.62-4.11.9-8.3,1.26-12.45,1.9-2.86.45-5.71.91-8.58,1.21-1.3.14-2.59.46-3.88.68s-2.58.52-3.89.63c-6.29.54-12.47,1.78-18.71,2.66-5.71.81-11.38,2-17.18,2.18a18.26,18.26,0,0,0-3.14.31c-4.13.86-8.34,1-12.5,1.59-4.43.59-8.9.73-13.33,1.31-1.56.2-3.12.45-4.65.8a6.6,6.6,0,0,0-2.1,1,2.09,2.09,0,0,0-.87,1.24,12.18,12.18,0,0,0-.18,3.13,92.6,92.6,0,0,1,.69,9.42,7.81,7.81,0,0,1-1.45,4.43,15.18,15.18,0,0,1-3.84,3.91,5.8,5.8,0,0,1-4.5,1c-2.83-.55-5.66-1.17-8.42-2-4.28-1.26-8.69-2-12.89-3.6a34.84,34.84,0,0,0-3.82-.92c-5.09-1.29-10.19-2.56-15.27-3.9-2.84-.76-5-2.58-5-6.25.05-6-.31-12.07-.86-18.09-.24-2.61-.23-5.25-.25-7.88q-.06-6.3,0-12.61a231,231,0,0,0-1.14-24.39,65.75,65.75,0,0,1,0-13.38,46,46,0,0,0,0-10.22c-.14-1.3-.24-2.62-.27-3.93-.16-6-.28-12.08-.45-18.12-.15-5.51-.27-11-.9-16.52-.27-2.34-.23-4.72-.39-7.08a7.73,7.73,0,0,0-.53-2.28,3.26,3.26,0,0,0-1.06-1.1,1.55,1.55,0,0,0-.75-.2c-6-.65-12-1.41-18-1.88-3.41-.27-6.74-1.1-10.14-1.36a80.14,80.14,0,0,1-9.4-1c-1.8-.35-3.64-.55-5.47-.72a49.06,49.06,0,0,1-7.8-1,20.16,20.16,0,0,0-2.33-.36c-5.21-.67-10.43-1.27-15.63-2-4.93-.72-9.83-1.71-14.77-2.36-5.21-.68-10.36-1.74-15.57-2.4-4.43-.56-8.8-1.48-13.2-2.24-3.36-.58-6.71-1.31-10.09-1.7-5.23-.61-10.38-1.66-15.6-2.24-4.69-.53-9.37-1.24-14-2.07-2.6-.45-5.22-.67-7.79-1.15-6.21-1.15-12.52-1.47-18.74-2.54-4.65-.8-9.37-1.19-14.05-1.87a5,5,0,0,1-4-3.41,16.54,16.54,0,0,1-.82-3,23.44,23.44,0,0,1-.53-3.9c-.2-8.15-1.36-16.23-2-24.34,0-.53-.1-1-.12-1.58-.09-2.47.46-4.69,2.48-6.34a7.41,7.41,0,0,0,.58-.54,4.67,4.67,0,0,1,3.53-1.45,43.7,43.7,0,0,1,8.62.89,62.08,62.08,0,0,0,8.58,1.17q9,.84,18,2.28c1.56.25,3.12.49,4.68.65a57.33,57.33,0,0,1,7,.94,13.07,13.07,0,0,0,2.34.34c7.62.44,15.11,1.84,22.65,2.88,1.82.25,3.66.39,5.49.54a54,54,0,0,1,7.81,1,8.33,8.33,0,0,0,1.56.26c5.52.25,11,1.18,16.42,1.9,5.21.68,10.4,1.43,15.64,1.9,3.91.36,7.79,1.18,11.65,1.92,2.33.45,4.65.85,7,1.09,1.56.16,3.12.44,4.68.66,1.82.25,3.63.58,5.46.74a58.75,58.75,0,0,1,7.8,1.08,16.6,16.6,0,0,0,2.33.36c6.81.58,13.52,1.91,20.29,2.83,4.42.6,8.86,1,13.3,1.54.26,0,.52-.08.78-.06a2,2,0,0,0,1.62-1.44,13.77,13.77,0,0,0,.17-1.56c0-3.15,0-6.3-.1-9.45-.19-6.57-.47-13.13-.62-19.69-.07-3.41.24-6.84,0-10.24s-.29-6.82-.22-10.24C727.32,286.84,727.28,284.21,727.28,282.49ZM867.87,443.07a58.17,58.17,0,0,1,8.47-1.07c1.31-.11,2.63-.17,3.93-.38,7.78-1.25,15.58-2.32,23.43-3a4,4,0,0,0,1.5-.41,3.08,3.08,0,0,0,1.09-1.06,3.85,3.85,0,0,0,.45-1.49,62.09,62.09,0,0,0,0-9.45,6.78,6.78,0,0,1,1.08-3.74c1.77-3,5.23-4.51,8.78-2.34a5.56,5.56,0,0,1,2.47,3,16.13,16.13,0,0,1,.77,3c.16,1.3.1,2.63.16,3.94s.13,2.62.21,3.92a2.32,2.32,0,0,0,2,2,77.25,77.25,0,0,0,11.76-.92c2.08-.32,4.16-.64,6.25-.83a53.41,53.41,0,0,0,8.51-1.6,2.67,2.67,0,0,0,1.8-2.3,21.07,21.07,0,0,1,.43-3.9,6.83,6.83,0,0,1,5.13-5.4c2.52-.64,6.5.95,7.17,4.57.19,1,.27,2.08.39,3.12a2.2,2.2,0,0,0,2.13,1.88c3.37-.52,6.75-1,10.12-1.55,1.54-.27,3-.74,4.58-1.1a2.74,2.74,0,0,0,1.47-1.69,36.7,36.7,0,0,0,0-6.29c-.06-1.58-.15-3.16-.06-4.73a5.88,5.88,0,0,1,3.28-5,5.24,5.24,0,0,1,3-.84,6.86,6.86,0,0,1,6.15,5.27,21.43,21.43,0,0,1,.35,3.12c.15,2.09.26,4.19.4,6.28a2.06,2.06,0,0,0,2.16,1.84c3.36-.63,6.74-1,10.13-1.43,4.17-.51,8.32-1.19,12.45-2,2.07-.39,4.13-.75,6.22-1,2.61-.28,5.21-.67,7.82-1,4.44-.52,8.84-1.29,13.27-1.82,5.48-.64,10.87-1.89,16.38-2.27,3.6-.78,7.27-1.06,10.91-1.56,3.91-.53,7.8-1.15,11.73-1.46a23,23,0,0,0,2.33-.36c.52-.1,1-.25,1.53-.37,2-.45,2.78-1.38,2.8-3.21q0-6.71,0-13.4a33,33,0,0,1,.29-6.29,39.74,39.74,0,0,0,.49-7.85c0-4.21,0-8.41,0-12.62a47.06,47.06,0,0,0-.23-6.29,85.34,85.34,0,0,1-.48-10.23c0-3.15-.16-6.3-.23-9.45-.16-7.1-.37-14.19-.45-21.28-.09-7.88,0-15.77-.07-23.65a59.51,59.51,0,0,0-.59-11,19.39,19.39,0,0,1-.16-3.15c0-1.31,0-2.62-.06-3.94,0-.52-.13-1-.19-1.55a2.67,2.67,0,0,0-2.09-2.06c-5.23-.51-10.45-1.09-15.68-1.47-5.51-.39-11-.83-16.48-1.44-6-.67-12-1.12-18-1.77-4.69-.51-9.43-.6-14.09-1.54a39.11,39.11,0,0,0-3.92-.39c-1.57-.16-3.15-.24-4.69-.52-2.85-.52-5.73-.79-8.6-1.1q-2.74-.28-5.46-.8a70.47,70.47,0,0,0-9.39-1,3,3,0,0,0-1.82,1.33,10.13,10.13,0,0,0-.35,1.52,29.42,29.42,0,0,0,.15,6.29c.17,1.3.35,2.6.46,3.91a7.93,7.93,0,0,1-1.07,4.53,6,6,0,0,1-8.8,1.95,6.71,6.71,0,0,1-2.58-3.83,37.07,37.07,0,0,1-1.14-8.58c0-2.1,0-4.2,0-6.3,0-.52-.19-1-.25-1.55a2.79,2.79,0,0,0-1.5-1.67c-4.41-.67-8.82-1.37-13.24-2-2.34-.33-4.7-.51-7-.8a1.88,1.88,0,0,0-2,1.93c0,1.84.08,3.67.14,5.51a54.94,54.94,0,0,1,.13,6.29,6.55,6.55,0,0,1-5.68,5.67,5.9,5.9,0,0,1-2.32-.28,6,6,0,0,1-3.1-2.3,7.43,7.43,0,0,1-1.44-3.63c-.28-3.4-.51-6.81-.77-10.21-.09-1-.23-2.09-.36-3.13a2.84,2.84,0,0,0-2.06-2.1c-4.71-.52-9.33-1.6-14-2-1.57-.12-3.1-.59-4.66-.78-1.82-.23-3.66-.35-5.49-.49A2.38,2.38,0,0,0,911.8,258a46.53,46.53,0,0,0-.3,4.71c0,1.57.32,3.14.41,4.71a11.68,11.68,0,0,1-.79,4.63A6.08,6.08,0,0,1,899.7,271a17.56,17.56,0,0,1-.84-4.64c-.07-2.1-.07-4.2-.12-6.3,0-1.31-.1-2.63-.17-3.94a2.46,2.46,0,0,0-1.39-1.72,48.75,48.75,0,0,0-7.75-1.36,84.79,84.79,0,0,1-10.16-1.32,25,25,0,0,0-3.13-.37c-7.59-.67-15.16-1.42-22.66-2.82a37,37,0,0,0-4.71-.45c-3.41-.21-6.79-.58-10.18-1.1-4.14-.64-8.34-.93-12.52-1.37a1.93,1.93,0,0,0-1.68,1.35,20.39,20.39,0,0,0-.22,2.33c0,8.94.57,17.86.45,26.8-.08,5.78.09,11.56.57,17.33.15,1.83.18,3.67.23,5.51.17,6.3.34,12.6.47,18.91.07,3.68.1,7.36,0,11,0,3.16-.08,6.3.09,9.46.29,5.51.58,11,.51,16.54a30.54,30.54,0,0,0,.15,3.94,46.56,46.56,0,0,1,.05,10.22,25,25,0,0,0,.07,6.29,92.93,92.93,0,0,1,.56,12.59c0,3.68-.12,7.37,0,11,.24,5,.27,10,.17,15a75.59,75.59,0,0,0,.68,12.58,60.09,60.09,0,0,1,.47,6.28c.17,4.46.43,8.91.66,13.37a1.74,1.74,0,0,0,1.61,1.4c5.72-.77,11.47-1.32,17.2-2,6-.73,11.95-1.87,18-2.18A13.61,13.61,0,0,0,867.87,443.07ZM740.65,311.61h-.1q.21,13.78.42,27.57a20.61,20.61,0,0,0,.16,2.35,6.54,6.54,0,0,0,.41,1.5,2.07,2.07,0,0,0,1.07,1.09c1.22.6,2.57.42,3.85.62,4.93.76,9.85,1.62,14.79,2.27,3.64.47,7.31.69,11,1a2,2,0,0,0,2.17-1.76,77.82,77.82,0,0,0,.09-11c-.34-7.62-.43-15.23-.68-22.84-.15-4.73-.43-9.45-.32-14.18.17-7.88-.37-15.75-.53-23.63-.19-9.18-.85-18.36-1-27.55,0-1.31-.21-2.61-.32-3.92-.15-1.83-.37-3.66-.45-5.49-.18-4.2-.29-8.4-.44-12.6a12.14,12.14,0,0,0-.24-2.34,2.49,2.49,0,0,0-.81-1.32,2.45,2.45,0,0,0-1.47-.46,17.19,17.19,0,0,0-4.65.76A226,226,0,0,0,742,229.08c-.24.1-.45.26-.69.37a2.5,2.5,0,0,0-1.3,1.86,27.51,27.51,0,0,0-.28,6.28q0,18.91.15,37.82a35.38,35.38,0,0,0,.32,4.71,49.26,49.26,0,0,1,.35,7.86c0,2.1-.16,4.2-.14,6.3C740.45,300.06,740.56,305.84,740.65,311.61ZM728.81,366h.12c-.12-2.36-.21-4.71-.37-7.07a3.32,3.32,0,0,0-1.67-2.51,7.17,7.17,0,0,0-2.85-1.27c-3.11-.47-6.2-1.1-9.35-1.32a87.1,87.1,0,0,1-10.14-1.32c-3.86-.71-7.76-1.29-11.67-1.69-5.74-.59-11.4-1.84-17.17-2.18-3.59-.8-7.3-.89-10.89-1.62-3.86-.8-7.78-1.13-11.62-2a28.08,28.08,0,0,0-4.67-.65c-5.77-.33-11.43-1.54-17.18-2.06-3.85-.92-7.8-1-11.71-1.34s-7.75-1.41-11.71-1.47a6.81,6.81,0,0,1-.78-.05c-1.82-.23-3.64-.46-5.46-.71-1.3-.18-2.59-.46-3.89-.59-5.74-.58-11.39-1.88-17.18-2a13.32,13.32,0,0,1-2.34-.33c-5.14-1.06-10.44-1.07-15.56-2.29a20.34,20.34,0,0,0-2.35-.25c-2.34-.27-4.69-.56-7-.81-2.87-.3-5.75-.57-8.62-.82a3.4,3.4,0,0,0-1.56.13,2.51,2.51,0,0,0-1.16,1,3,3,0,0,0-.3,1.52c.25,4.45.53,8.9.8,13.35a3.12,3.12,0,0,0,2,2.24,10.11,10.11,0,0,0,1.51.38c5.75.52,11.41,1.79,17.18,2.14,1.3.08,2.59.39,3.88.59,1.56.24,3.11.49,4.67.72,5.19.75,10.38,1.48,15.57,2.24,5.7.84,11.41,1.68,17.11,2.56,4.66.71,9.35,1.33,14,2.26s9.33,1.42,14,2.29c4.89.92,9.86,1.41,14.76,2.32,3.36.62,6.77.87,10.12,1.5,6.19,1.16,12.45,1.77,18.68,2.69l5.44.82c1.3.19,2.59.43,3.89.54a82.56,82.56,0,0,1,10.15,1.28,25,25,0,0,0,3.12.36,80.85,80.85,0,0,1,10.16,1.18,31.79,31.79,0,0,0,3.91.42c4.44.34,8.9.49,13.31,1.23a2.92,2.92,0,0,0,.78,0c.26,0,.51-.1.77-.12a2.43,2.43,0,0,0,1.92-2.17C729.18,370.72,729,368.37,728.81,366Zm363.76,79.07h-.11c.15-3.41.37-6.82.44-10.23,0-2.09-.13-4.2-.25-6.29a2.3,2.3,0,0,0-2.44-2.45,78.21,78.21,0,0,0-9.41.89c-1.55.24-3.1.59-4.67.7-5.51.38-10.89,1.77-16.4,2.17-3.31.93-6.75,1-10.12,1.51s-6.75,1-10.14,1.49c-4.16.57-8.32,1.15-12.51,1.51-1.3.12-2.58.47-3.88.68-4.4.71-8.79,1.59-13.23,2.07-4.18.46-8.3,1.24-12.44,2a2.9,2.9,0,0,0-1.83,2.33c0,.52-.07,1.05,0,1.57a141,141,0,0,1-.28,22,30.85,30.85,0,0,0,.36,8.63,2.47,2.47,0,0,0,1.8,1.32,11.65,11.65,0,0,0,1.57-.06c3.89-.64,7.78-1.25,11.72-1.55,1-.07,2.08-.32,3.12-.47,4.93-.72,9.85-1.67,14.81-2.11,5.77-.5,11.42-1.78,17.17-2.33,2.09-.2,4.13-.79,6.21-1.06,7.56-1,15.14-1.75,22.67-2.9,5-.11,9.88-1.37,14.81-2.06A3.73,3.73,0,0,0,1091,462a2.33,2.33,0,0,0,1-1.18,8.68,8.68,0,0,0,.33-2.33C1092.39,454,1092.47,449.55,1092.57,445.09ZM830.35,481.57c.13,2.64.3,6,.46,9.44.1,2.1.19,4.19.29,6.28,0,.52,1.07,1.41,1.6,1.49a19.5,19.5,0,0,0,6.24-.38c6.72-1.13,13.42-2.36,20.22-2.91,1-.09,2.06-.35,3.1-.53,1.28-.23,2.57-.52,3.86-.7,4.93-.68,9.88-1.22,14.79-2,3.88-.64,7.78-1.11,11.65-1.78,3.1-.53,6.2-1,9.32-1.38.52-.06,1-.21,1.54-.3a3.38,3.38,0,0,0,2.11-2.14c.12-.5.29-1,.36-1.52.12-1,.26-2.09.28-3.13.2-8.91.06-17.82.51-26.72a5.21,5.21,0,0,0,0-.79c0-.26-.09-.52-.1-.78a2.18,2.18,0,0,0-1.94-2,43.25,43.25,0,0,0-4.7.23c-3.62.54-7.28.92-10.9,1.46-4.67.69-9.33,1.32-14,1.69-.78.06-1.55.24-2.33.34-2.33.32-4.67.68-7,.92s-4.68.58-7,.87c-6.24.76-12.44,1.89-18.73,2.26a38.72,38.72,0,0,0-8.46,1.64A2.31,2.31,0,0,0,830,462.8a10.11,10.11,0,0,0-.24,4.67,55.82,55.82,0,0,1,.61,9.4C830.34,478.18,830.35,479.49,830.35,481.57Zm-44.16-195h.19c0,2.36,0,4.72,0,7.08-.17,9.2.25,18.38.44,27.57a96.29,96.29,0,0,0,.82,13.35,27,27,0,0,1,.16,3.93c0,2.36,0,4.73.05,7.09a9.45,9.45,0,0,0,.28,2.32,2.17,2.17,0,0,0,.92,1.2,10.68,10.68,0,0,0,4.55,1.12c3.93.26,7.85.56,11.79.73,2.1.08,4.12.79,6.24.64a2.4,2.4,0,0,0,1.68-1.42,15.17,15.17,0,0,0,.22-4.7c-.37-6.3-.46-12.59-.34-18.9.06-2.88.09-5.78-.13-8.66-.57-7.59-.59-15.21-.88-22.82-.2-5.24-.31-10.49-.37-15.74-.08-6.83.07-13.66-.42-20.47-.13-1.83-.06-3.68-.09-5.51,0-1.05,0-2.11-.09-3.15a12.39,12.39,0,0,0-1.44-5.27,2.65,2.65,0,0,0-1.2-.95,4.36,4.36,0,0,0-1.53-.32,130.7,130.7,0,0,1-14.09-1.5,25.79,25.79,0,0,0-6.27-.33,2.3,2.3,0,0,0-1.64,1.44c0,.52-.14,1-.15,1.56-.12,8.94.37,17.85,1,26.75.17,2.36.32,4.72.31,7.08ZM775.72,427.86c.23-8.93-.29-17.85.16-26.78a24.68,24.68,0,0,0-.28-5.49,2.73,2.73,0,0,0-2-2.15c-3.37-.51-6.77-.76-10.12-1.46a13.1,13.1,0,0,0-2.35-.25,77.22,77.22,0,0,1-12.5-1.36,21.91,21.91,0,0,0-3.14-.24c-1.28-.06-2.2.74-2.15,1.7.58,11.54.58,23.09,1.6,34.6a13.9,13.9,0,0,1,0,1.58c-.08,7.35.52,14.69.07,22,0,.52,0,1.05,0,1.58a3.36,3.36,0,0,0,2.08,3,52.27,52.27,0,0,0,10.58,3,108.2,108.2,0,0,1,10.69,2.62c1.76.51,3.54,1,5.32,1.43a1.63,1.63,0,0,0,2.14-1.58c.06-3.41.12-6.82.13-10.22,0-6,.22-12.08-.29-18.11C775.63,430.49,775.72,429.17,775.72,427.86Zm-29.8,67.67c.06,1.47.11,4.61.35,7.74.34,4.44.66,8.88.79,13.33a4.12,4.12,0,0,0,.3,1.52,2.56,2.56,0,0,0,.91,1.19,11.22,11.22,0,0,0,2.88,1.23c5.61,1.28,11.18,2.7,16.68,4.41,2,.62,4.07,1,6.11,1.41a1.58,1.58,0,0,0,.78,0,1.39,1.39,0,0,0,.53-.47,3.29,3.29,0,0,0,.62-2.22,137.61,137.61,0,0,1,.7-18.82,20.51,20.51,0,0,0,.08-2.35q-.09-11.79-.2-23.56a3.62,3.62,0,0,0-2.53-3.57c-4.52-1.32-9-2.61-13.58-3.9a19,19,0,0,0-3-.76,71,71,0,0,1-7.66-1.65,12.86,12.86,0,0,0-2.33-.19c-.26,0-.64,0-.75.12a3.17,3.17,0,0,0-.75,1.33,9.72,9.72,0,0,0-.08,2.35,153.08,153.08,0,0,1,.2,17.27C745.86,491.23,745.92,492.55,745.92,495.53Zm68.88-75.35v-8.6c0-2.61,0-5.23,0-7.84,0-1.3-.26-2.6-.4-3.9a3.09,3.09,0,0,0-2-2.19,44.31,44.31,0,0,0-5.41-.92c-5-.25-9.9-.82-14.82-1.52a7.47,7.47,0,0,0-1.55.12,2.72,2.72,0,0,0-1.63,1.52c-.1,1-.27,2.07-.28,3.11-.05,8.37-.07,16.74-.11,25.11a59.61,59.61,0,0,0,.49,10.17,23.25,23.25,0,0,1,.2,3.92c0,4.18.15,8.37-.23,12.54a6.78,6.78,0,0,0,0,.78,2.21,2.21,0,0,0,2,2,22.67,22.67,0,0,0,3.1-.43q9.49-2.43,19.16-4.07c.26-.05.51-.13.76-.19a2.71,2.71,0,0,0,2-2.16,23.73,23.73,0,0,0,0-7,62.82,62.82,0,0,1-.64-10.16c0-1.83-.21-3.66-.33-5.48S814.88,421.26,814.8,420.18ZM919,467.08c0,5.93,0,10.9,0,15.87a6.5,6.5,0,0,0,.38,2.28,1.65,1.65,0,0,0,1.1.95,26.15,26.15,0,0,0,7.79-.48c1.55-.25,3.08-.71,4.63-.82,5-.35,9.83-1.45,14.76-2a2.91,2.91,0,0,0,2.32-2.77c0-.52,0-1,0-1.57a75.61,75.61,0,0,1,.07-17.21,77.93,77.93,0,0,0,.1-13.32,2.51,2.51,0,0,0-1.67-1.45c-.25,0-.51-.14-.76-.11-2.08.18-4.18.3-6.24.62-4.66.72-9.32,1.31-14,1.67a56.71,56.71,0,0,0-6.15,1.12,2.81,2.81,0,0,0-1.42,1.76C919.57,457.08,919.25,462.56,919,467.08ZM817.57,482.32h.1c-.08-2.36,0-4.74-.29-7.08-.34-3.13-.47-6.28-.57-9.42a13.47,13.47,0,0,0-.23-1.55,2.05,2.05,0,0,0-1.73-1.29,75.87,75.87,0,0,0-10.06,1.76c-4.57,1.21-9.17,2.2-13.83,3-.36.38-.88.69-1.05,1.13a6.7,6.7,0,0,0-.43,2.3q0,14.56,0,29.13a6.27,6.27,0,0,0,.42,2.28c.17.42.73.69,1.16,1a1.42,1.42,0,0,0,.77.1c7.85-.62,15.67-1.44,23.5-2.24.25,0,.49-.17.75-.23a3,3,0,0,0,1.88-2.29c0-2.62.06-5.24,0-7.87C817.89,488.09,817.71,485.21,817.57,482.32Zm145.59-21.85a116.57,116.57,0,0,0-.38,12.82c0,1.57.21,3.13.35,4.7a2.42,2.42,0,0,0,2.71,2.13,38.57,38.57,0,0,0,6.23-.77c1.78-.39,3.59-.71,5.39-1.05.77-.15,1.54-.26,2.32-.4a3,3,0,0,0,2.37-2.74c.11-1.3.25-2.61.27-3.91.06-3.93.07-7.86.09-11.79q0-6.29,0-12.57a11.5,11.5,0,0,0-.44-3.88,1.83,1.83,0,0,0-1.05-1.06,8.22,8.22,0,0,0-2.33-.14c-4.46.22-8.79,1.36-13.19,2a2.76,2.76,0,0,0-2.23,2.8c-.07,1.83-.13,3.66-.14,5.5C963.15,455.23,963.16,458.37,963.16,460.47ZM759,378.78a76.36,76.36,0,0,1,12.43,1.35,13.47,13.47,0,0,0,1.56.09,2.44,2.44,0,0,0,2.12-1.92,95.49,95.49,0,0,0-.22-14.84,2.77,2.77,0,0,0-2.1-2c-2.33-.31-4.65-.68-7-.92-3.63-.38-7.25-.78-10.85-1.42-3.33-.59-6.74-.76-10.11-1.1a5,5,0,0,0-.76.13,2.44,2.44,0,0,0-1.93,2.09,80.26,80.26,0,0,0,.19,12.5c.07.77.27,1.53.41,2.3a2.36,2.36,0,0,0,1.57,1.6,7.93,7.93,0,0,0,2.26.59,97.9,97.9,0,0,1,10.08,1.33A17.85,17.85,0,0,0,759,378.78Zm54.85-4.2h-.06v-3.91c0-1.05,0-2.09,0-3.13a2.83,2.83,0,0,0-2.3-2.73c-2.58-.35-5.16-.78-7.76-1a91.7,91.7,0,0,0-14.06-.63,2.19,2.19,0,0,0-1.51,1.55,7,7,0,0,0-.12.78q.09,7,.19,14.08a6.92,6.92,0,0,0,.14.77,2.25,2.25,0,0,0,1.53,1.58l12.42,1.54a50.51,50.51,0,0,0,10.14.45A1.86,1.86,0,0,0,814,382.4Q814,378.5,813.88,374.58Z" transform="translate(-527.69 -206.76)"/><path class="cls-1" d="M867.87,443.07a13.61,13.61,0,0,1-1.68.26c-6,.31-12,1.45-18,2.18-5.73.69-11.48,1.24-17.2,2a1.74,1.74,0,0,1-1.61-1.4c-.23-4.46-.49-8.91-.66-13.37a60.09,60.09,0,0,0-.47-6.28,75.59,75.59,0,0,1-.68-12.58c.1-5,.07-10-.17-15-.17-3.67,0-7.36,0-11a92.93,92.93,0,0,0-.56-12.59,25,25,0,0,1-.07-6.29,46.56,46.56,0,0,0-.05-10.22,30.54,30.54,0,0,1-.15-3.94c.07-5.52-.22-11-.51-16.54-.17-3.16-.14-6.3-.09-9.46.06-3.67,0-7.35,0-11-.13-6.31-.3-12.61-.47-18.91,0-1.84-.08-3.68-.23-5.51-.48-5.77-.65-11.55-.57-17.33.12-8.94-.46-17.86-.45-26.8a20.39,20.39,0,0,1,.22-2.33,1.93,1.93,0,0,1,1.68-1.35c4.18.44,8.38.73,12.52,1.37,3.39.52,6.77.89,10.18,1.1a37,37,0,0,1,4.71.45c7.5,1.4,15.07,2.15,22.66,2.82a25,25,0,0,1,3.13.37A84.79,84.79,0,0,0,889.43,253a48.75,48.75,0,0,1,7.75,1.36,2.46,2.46,0,0,1,1.39,1.72c.07,1.31.14,2.63.17,3.94,0,2.1,0,4.2.12,6.3a17.56,17.56,0,0,0,.84,4.64A6.08,6.08,0,0,0,911.12,272a11.68,11.68,0,0,0,.79-4.63c-.09-1.57-.39-3.14-.41-4.71a46.53,46.53,0,0,1,.3-4.71,2.38,2.38,0,0,1,2.17-1.92c1.83.14,3.67.26,5.49.49,1.56.19,3.09.66,4.66.78,4.72.36,9.34,1.44,14,2a2.84,2.84,0,0,1,2.06,2.1c.13,1,.27,2.08.36,3.13.26,3.4.49,6.81.77,10.21a7.43,7.43,0,0,0,1.44,3.63,6,6,0,0,0,3.1,2.3,5.9,5.9,0,0,0,2.32.28,6.55,6.55,0,0,0,5.68-5.67,54.94,54.94,0,0,0-.13-6.29c-.06-1.84-.11-3.67-.14-5.51a1.88,1.88,0,0,1,2-1.93c2.34.29,4.7.47,7,.8,4.42.62,8.83,1.32,13.24,2a2.79,2.79,0,0,1,1.5,1.67c.06.52.24,1,.25,1.55,0,2.1,0,4.2,0,6.3a37.07,37.07,0,0,0,1.14,8.58,6.71,6.71,0,0,0,2.58,3.83,6,6,0,0,0,8.8-1.95,7.93,7.93,0,0,0,1.07-4.53c-.11-1.31-.29-2.61-.46-3.91a29.42,29.42,0,0,1-.15-6.29,10.13,10.13,0,0,1,.35-1.52,3,3,0,0,1,1.82-1.33,70.47,70.47,0,0,1,9.39,1q2.71.51,5.46.8c2.87.31,5.75.58,8.6,1.1,1.54.28,3.12.36,4.69.52a39.11,39.11,0,0,1,3.92.39c4.66.94,9.4,1,14.09,1.54,6,.65,12,1.1,18,1.77,5.48.61,11,1.05,16.48,1.44,5.23.38,10.45,1,15.68,1.47a2.67,2.67,0,0,1,2.09,2.06c.06.52.18,1,.19,1.55,0,1.32,0,2.63.06,3.94a19.39,19.39,0,0,0,.16,3.15,59.51,59.51,0,0,1,.59,11c0,7.88,0,15.77.07,23.65.08,7.09.29,14.18.45,21.28.07,3.15.18,6.3.23,9.45a85.34,85.34,0,0,0,.48,10.23,47.06,47.06,0,0,1,.23,6.29c0,4.21,0,8.41,0,12.62a39.74,39.74,0,0,1-.49,7.85,33,33,0,0,0-.29,6.29q0,6.69,0,13.4c0,1.83-.84,2.76-2.8,3.21-.51.12-1,.27-1.53.37a23,23,0,0,1-2.33.36c-3.93.31-7.82.93-11.73,1.46-3.64.5-7.31.78-10.91,1.56-5.51.38-10.9,1.63-16.38,2.27-4.43.53-8.83,1.3-13.27,1.82-2.61.31-5.21.7-7.82,1-2.09.22-4.15.58-6.22,1-4.13.78-8.28,1.46-12.45,2-3.39.41-6.77.8-10.13,1.43a2.06,2.06,0,0,1-2.16-1.84c-.14-2.09-.25-4.19-.4-6.28a21.43,21.43,0,0,0-.35-3.12,6.86,6.86,0,0,0-6.15-5.27,5.24,5.24,0,0,0-3,.84,5.88,5.88,0,0,0-3.28,5c-.09,1.57,0,3.15.06,4.73a36.7,36.7,0,0,1,0,6.29,2.74,2.74,0,0,1-1.47,1.69c-1.53.36-3,.83-4.58,1.1-3.37.57-6.75,1-10.12,1.55a2.2,2.2,0,0,1-2.13-1.88c-.12-1-.2-2.09-.39-3.12-.67-3.62-4.65-5.21-7.17-4.57a6.83,6.83,0,0,0-5.13,5.4,21.07,21.07,0,0,0-.43,3.9,2.67,2.67,0,0,1-1.8,2.3,53.41,53.41,0,0,1-8.51,1.6c-2.09.19-4.17.51-6.25.83a77.25,77.25,0,0,1-11.76.92,2.32,2.32,0,0,1-2-2c-.08-1.3-.16-2.61-.21-3.92s0-2.64-.16-3.94a16.13,16.13,0,0,0-.77-3,5.56,5.56,0,0,0-2.47-3c-3.55-2.17-7-.63-8.78,2.34a6.78,6.78,0,0,0-1.08,3.74,62.09,62.09,0,0,1,0,9.45,3.85,3.85,0,0,1-.45,1.49,3.08,3.08,0,0,1-1.09,1.06,4,4,0,0,1-1.5.41c-7.85.71-15.65,1.78-23.43,3-1.3.21-2.62.27-3.93.38A58.17,58.17,0,0,0,867.87,443.07Zm72.43-36.86c-.61,0-.09,0,.44,0,4.49.2,8.92,0,13.16-1.78,1-.39,2-.52,3-.82a40.16,40.16,0,0,0,8.66-3.71,72.83,72.83,0,0,0,7.27-4.71,16.76,16.76,0,0,0,2.38-2.06c2.13-2.32,4.26-4.64,6.26-7.08a39.07,39.07,0,0,0,6-10.11c1.87-4.63,3.67-9.27,4.39-14.25,1.9-7,1.67-14.05,1.14-21.14a13.32,13.32,0,0,0-.33-2.34A54.76,54.76,0,0,0,989.18,327c-1.14-2.36-2.3-4.72-3.42-7.09a37.43,37.43,0,0,0-11.44-13.83A61.13,61.13,0,0,0,946.41,294c-3.6-.69-7.28-1-10.94-1.34a43.49,43.49,0,0,0-16.37,1.68,48.1,48.1,0,0,0-14.26,6.56c-2.59,1.78-5.09,3.71-7.57,5.65a26.32,26.32,0,0,0-4.86,5.14,67.63,67.63,0,0,0-8.8,15.78,16.22,16.22,0,0,0-.72,2.24,48.83,48.83,0,0,0-1.32,10.92c.09,4.2,0,8.41.93,12.54a18.18,18.18,0,0,1,.3,2.35,38.41,38.41,0,0,0,1.09,5.39c1.85,7.48,5.27,14.26,9.07,20.88a20.49,20.49,0,0,0,5,6,51.93,51.93,0,0,1,4.63,4.26,37,37,0,0,0,14.38,9.4c1,.34,1.93.82,2.91,1.19a45.15,45.15,0,0,0,14.54,3.2C936,405.91,937.59,406,940.3,406.21Z" transform="translate(-527.69 -206.76)"/><path class="cls-2" d="M740.65,311.61c-.09-5.77-.2-11.55-.25-17.33,0-2.1.1-4.2.14-6.3a49.26,49.26,0,0,0-.35-7.86,35.38,35.38,0,0,1-.32-4.71q-.12-18.92-.15-37.82a27.51,27.51,0,0,1,.28-6.28,2.5,2.5,0,0,1,1.3-1.86c.24-.11.45-.27.69-.37a226,226,0,0,1,21.59-7.39,17.19,17.19,0,0,1,4.65-.76,2.45,2.45,0,0,1,1.47.46,2.49,2.49,0,0,1,.81,1.32,12.14,12.14,0,0,1,.24,2.34c.15,4.2.26,8.4.44,12.6.08,1.83.3,3.66.45,5.49.11,1.31.29,2.61.32,3.92.15,9.19.81,18.37,1,27.55.16,7.88.7,15.75.53,23.63-.11,4.73.17,9.45.32,14.18.25,7.61.34,15.22.68,22.84a77.82,77.82,0,0,1-.09,11,2,2,0,0,1-2.17,1.76c-3.67-.32-7.34-.54-11-1-4.94-.65-9.86-1.51-14.79-2.27-1.28-.2-2.63,0-3.85-.62a2.07,2.07,0,0,1-1.07-1.09,6.54,6.54,0,0,1-.41-1.5,20.61,20.61,0,0,1-.16-2.35q-.22-13.79-.42-27.57Z" transform="translate(-527.69 -206.76)"/><path class="cls-3" d="M728.81,366c.18,2.35.37,4.7.54,7.05a2.43,2.43,0,0,1-1.92,2.17c-.26,0-.51.09-.77.12a2.92,2.92,0,0,1-.78,0c-4.41-.74-8.87-.89-13.31-1.23a31.79,31.79,0,0,1-3.91-.42,80.85,80.85,0,0,0-10.16-1.18,25,25,0,0,1-3.12-.36,82.56,82.56,0,0,0-10.15-1.28c-1.3-.11-2.59-.35-3.89-.54l-5.44-.82c-6.23-.92-12.49-1.53-18.68-2.69-3.35-.63-6.76-.88-10.12-1.5-4.9-.91-9.87-1.4-14.76-2.32-4.64-.87-9.34-1.36-14-2.29s-9.31-1.55-14-2.26c-5.7-.88-11.41-1.72-17.11-2.56-5.19-.76-10.38-1.49-15.57-2.24-1.56-.23-3.11-.48-4.67-.72-1.29-.2-2.58-.51-3.88-.59-5.77-.35-11.43-1.62-17.18-2.14a10.11,10.11,0,0,1-1.51-.38,3.12,3.12,0,0,1-2-2.24c-.27-4.45-.55-8.9-.8-13.35a3,3,0,0,1,.3-1.52,2.51,2.51,0,0,1,1.16-1,3.4,3.4,0,0,1,1.56-.13c2.87.25,5.75.52,8.62.82,2.34.25,4.69.54,7,.81a20.34,20.34,0,0,1,2.35.25c5.12,1.22,10.42,1.23,15.56,2.29a13.32,13.32,0,0,0,2.34.33c5.79.13,11.44,1.43,17.18,2,1.3.13,2.59.41,3.89.59,1.82.25,3.64.48,5.46.71a6.81,6.81,0,0,0,.78.05c4,.06,7.79,1.13,11.71,1.47s7.86.42,11.71,1.34c5.75.52,11.41,1.73,17.18,2.06a28.08,28.08,0,0,1,4.67.65c3.84.9,7.76,1.23,11.62,2,3.59.73,7.3.82,10.89,1.62,5.77.34,11.43,1.59,17.17,2.18,3.91.4,7.81,1,11.67,1.69a87.1,87.1,0,0,0,10.14,1.32c3.15.22,6.24.85,9.35,1.32a7.17,7.17,0,0,1,2.85,1.27,3.32,3.32,0,0,1,1.67,2.51c.16,2.36.25,4.71.37,7.07Z" transform="translate(-527.69 -206.76)"/><path class="cls-1" d="M1092.57,445.09c-.1,4.46-.18,8.93-.3,13.39a8.68,8.68,0,0,1-.33,2.33,2.33,2.33,0,0,1-1,1.18,3.73,3.73,0,0,1-1.49.47c-4.93.69-9.79,2-14.81,2.06-7.53,1.15-15.11,1.9-22.67,2.9-2.08.27-4.12.86-6.21,1.06-5.75.55-11.4,1.83-17.17,2.33-5,.44-9.88,1.39-14.81,2.11-1,.15-2.08.4-3.12.47-3.94.3-7.83.91-11.72,1.55a11.65,11.65,0,0,1-1.57.06,2.47,2.47,0,0,1-1.8-1.32,30.85,30.85,0,0,1-.36-8.63,141,141,0,0,0,.28-22c0-.52,0-1.05,0-1.57a2.9,2.9,0,0,1,1.83-2.33c4.14-.74,8.26-1.52,12.44-2,4.44-.48,8.83-1.36,13.23-2.07,1.3-.21,2.58-.56,3.88-.68,4.19-.36,8.35-.94,12.51-1.51,3.39-.47,6.76-.95,10.14-1.49s6.81-.58,10.12-1.51c5.51-.4,10.89-1.79,16.4-2.17,1.57-.11,3.12-.46,4.67-.7a78.21,78.21,0,0,1,9.41-.89,2.3,2.3,0,0,1,2.44,2.45c.12,2.09.29,4.2.25,6.29-.07,3.41-.29,6.82-.44,10.23Z" transform="translate(-527.69 -206.76)"/><path class="cls-1" d="M830.35,481.57c0-2.08,0-3.39,0-4.7a55.82,55.82,0,0,0-.61-9.4,10.11,10.11,0,0,1,.24-4.67,2.31,2.31,0,0,1,1.45-1.73,38.72,38.72,0,0,1,8.46-1.64c6.29-.37,12.49-1.5,18.73-2.26,2.33-.29,4.67-.62,7-.87s4.68-.6,7-.92c.78-.1,1.55-.28,2.33-.34,4.71-.37,9.37-1,14-1.69,3.62-.54,7.28-.92,10.9-1.46a43.25,43.25,0,0,1,4.7-.23,2.18,2.18,0,0,1,1.94,2c0,.26.08.52.1.78a5.21,5.21,0,0,1,0,.79c-.45,8.9-.31,17.81-.51,26.72,0,1-.16,2.09-.28,3.13-.07.51-.24,1-.36,1.52a3.38,3.38,0,0,1-2.11,2.14c-.51.09-1,.24-1.54.3-3.12.34-6.22.85-9.32,1.38-3.87.67-7.77,1.14-11.65,1.78-4.91.8-9.86,1.34-14.79,2-1.29.18-2.58.47-3.86.7-1,.18-2.06.44-3.1.53-6.8.55-13.5,1.78-20.22,2.91a19.5,19.5,0,0,1-6.24.38c-.53-.08-1.57-1-1.6-1.49-.1-2.09-.19-4.18-.29-6.28C830.65,487.61,830.48,484.21,830.35,481.57Z" transform="translate(-527.69 -206.76)"/><path class="cls-2" d="M786.19,286.53v-7.88c0-2.36-.14-4.72-.31-7.08-.62-8.9-1.11-17.81-1-26.75,0-.52.11-1,.15-1.56a2.3,2.3,0,0,1,1.64-1.44,25.79,25.79,0,0,1,6.27.33,130.7,130.7,0,0,0,14.09,1.5,4.36,4.36,0,0,1,1.53.32,2.65,2.65,0,0,1,1.2.95,12.39,12.39,0,0,1,1.44,5.27c.08,1,.07,2.1.09,3.15,0,1.83,0,3.68.09,5.51.49,6.81.34,13.64.42,20.47.06,5.25.17,10.5.37,15.74.29,7.61.31,15.23.88,22.82.22,2.88.19,5.78.13,8.66-.12,6.31,0,12.6.34,18.9a15.17,15.17,0,0,1-.22,4.7,2.4,2.4,0,0,1-1.68,1.42c-2.12.15-4.14-.56-6.24-.64-3.94-.17-7.86-.47-11.79-.73a10.68,10.68,0,0,1-4.55-1.12,2.17,2.17,0,0,1-.92-1.2,9.45,9.45,0,0,1-.28-2.32c0-2.36,0-4.73-.05-7.09a27,27,0,0,0-.16-3.93,96.29,96.29,0,0,1-.82-13.35c-.19-9.19-.61-18.37-.44-27.57,0-2.36,0-4.72,0-7.08Z" transform="translate(-527.69 -206.76)"/><path class="cls-2" d="M775.72,427.86c0,1.31-.09,2.63,0,3.93.51,6,.31,12.07.29,18.11,0,3.4-.07,6.81-.13,10.22a1.63,1.63,0,0,1-2.14,1.58c-1.78-.46-3.56-.92-5.32-1.43a108.2,108.2,0,0,0-10.69-2.62,52.27,52.27,0,0,1-10.58-3,3.36,3.36,0,0,1-2.08-3c0-.53-.06-1.06,0-1.58.45-7.35-.15-14.69-.07-22a13.9,13.9,0,0,0,0-1.58c-1-11.51-1-23.06-1.6-34.6-.05-1,.87-1.76,2.15-1.7a21.91,21.91,0,0,1,3.14.24,77.22,77.22,0,0,0,12.5,1.36,13.1,13.1,0,0,1,2.35.25c3.35.7,6.75.95,10.12,1.46a2.73,2.73,0,0,1,2,2.15,24.68,24.68,0,0,1,.28,5.49C775.43,410,776,418.93,775.72,427.86Z" transform="translate(-527.69 -206.76)"/><path class="cls-2" d="M745.92,495.53c0-3-.06-4.3,0-5.6a153.08,153.08,0,0,0-.2-17.27,9.72,9.72,0,0,1,.08-2.35,3.17,3.17,0,0,1,.75-1.33c.11-.15.49-.13.75-.12a12.86,12.86,0,0,1,2.33.19,71,71,0,0,0,7.66,1.65,19,19,0,0,1,3,.76c4.53,1.29,9.06,2.58,13.58,3.9a3.62,3.62,0,0,1,2.53,3.57q.12,11.77.2,23.56a20.51,20.51,0,0,1-.08,2.35,137.61,137.61,0,0,0-.7,18.82,3.29,3.29,0,0,1-.62,2.22,1.39,1.39,0,0,1-.53.47,1.58,1.58,0,0,1-.78,0c-2-.45-4.12-.79-6.11-1.41-5.5-1.71-11.07-3.13-16.68-4.41a11.22,11.22,0,0,1-2.88-1.23,2.56,2.56,0,0,1-.91-1.19,4.12,4.12,0,0,1-.3-1.52c-.13-4.45-.45-8.89-.79-13.33C746,500.14,746,497,745.92,495.53Z" transform="translate(-527.69 -206.76)"/><path class="cls-2" d="M814.8,420.18c.08,1.08.21,2.9.33,4.73s.29,3.65.33,5.48a62.82,62.82,0,0,0,.64,10.16,23.73,23.73,0,0,1,0,7,2.71,2.71,0,0,1-2,2.16c-.25.06-.5.14-.76.19q-9.66,1.63-19.16,4.07a22.67,22.67,0,0,1-3.1.43,2.21,2.21,0,0,1-2-2,6.78,6.78,0,0,1,0-.78c.38-4.17.23-8.36.23-12.54a23.25,23.25,0,0,0-.2-3.92,59.61,59.61,0,0,1-.49-10.17c0-8.37.06-16.74.11-25.11,0-1,.18-2.07.28-3.11a2.72,2.72,0,0,1,1.63-1.52,7.47,7.47,0,0,1,1.55-.12c4.92.7,9.85,1.27,14.82,1.52a44.31,44.31,0,0,1,5.41.92,3.09,3.09,0,0,1,2,2.19c.14,1.3.37,2.6.4,3.9.06,2.61,0,5.23,0,7.84Z" transform="translate(-527.69 -206.76)"/><path class="cls-1" d="M919,467.08c.26-4.52.58-10,.91-15.48a2.81,2.81,0,0,1,1.42-1.76,56.71,56.71,0,0,1,6.15-1.12c4.7-.36,9.36-1,14-1.67,2.06-.32,4.16-.44,6.24-.62.25,0,.51.12.76.11a2.51,2.51,0,0,1,1.67,1.45,77.93,77.93,0,0,1-.1,13.32,75.61,75.61,0,0,0-.07,17.21c0,.52,0,1.05,0,1.57a2.91,2.91,0,0,1-2.32,2.77c-4.93.57-9.79,1.67-14.76,2-1.55.11-3.08.57-4.63.82a26.15,26.15,0,0,1-7.79.48,1.65,1.65,0,0,1-1.1-.95A6.5,6.5,0,0,1,919,483C919,478,919,473,919,467.08Z" transform="translate(-527.69 -206.76)"/><path class="cls-2" d="M817.57,482.32c.14,2.89.32,5.77.4,8.65.06,2.63,0,5.25,0,7.87a3,3,0,0,1-1.88,2.29c-.26.06-.5.2-.75.23-7.83.8-15.65,1.62-23.5,2.24a1.42,1.42,0,0,1-.77-.1c-.43-.27-1-.54-1.16-1a6.27,6.27,0,0,1-.42-2.28q0-14.56,0-29.13a6.7,6.7,0,0,1,.43-2.3c.17-.44.69-.75,1.05-1.13,4.66-.76,9.26-1.75,13.83-3A75.87,75.87,0,0,1,814.85,463a2.05,2.05,0,0,1,1.73,1.29,13.47,13.47,0,0,1,.23,1.55c.1,3.14.23,6.29.57,9.42.26,2.34.21,4.72.29,7.08Z" transform="translate(-527.69 -206.76)"/><path class="cls-1" d="M963.16,460.47c0-2.1,0-5.24,0-8.38,0-1.84.07-3.67.14-5.5a2.76,2.76,0,0,1,2.23-2.8c4.4-.62,8.73-1.76,13.19-2a8.22,8.22,0,0,1,2.33.14,1.83,1.83,0,0,1,1.05,1.06,11.5,11.5,0,0,1,.44,3.88q0,6.28,0,12.57c0,3.93,0,7.86-.09,11.79,0,1.3-.16,2.61-.27,3.91a3,3,0,0,1-2.37,2.74c-.78.14-1.55.25-2.32.4-1.8.34-3.61.66-5.39,1.05a38.57,38.57,0,0,1-6.23.77,2.42,2.42,0,0,1-2.71-2.13c-.14-1.57-.34-3.13-.35-4.7A116.57,116.57,0,0,1,963.16,460.47Z" transform="translate(-527.69 -206.76)"/><path class="cls-3" d="M759,378.78a17.85,17.85,0,0,1-2.33-.25,97.9,97.9,0,0,0-10.08-1.33,7.93,7.93,0,0,1-2.26-.59,2.36,2.36,0,0,1-1.57-1.6c-.14-.77-.34-1.53-.41-2.3a80.26,80.26,0,0,1-.19-12.5,2.44,2.44,0,0,1,1.93-2.09,5,5,0,0,1,.76-.13c3.37.34,6.78.51,10.11,1.1,3.6.64,7.22,1,10.85,1.42,2.33.24,4.65.61,7,.92a2.77,2.77,0,0,1,2.1,2,95.49,95.49,0,0,1,.22,14.84,2.44,2.44,0,0,1-2.12,1.92,13.47,13.47,0,0,1-1.56-.09A76.36,76.36,0,0,0,759,378.78Z" transform="translate(-527.69 -206.76)"/><path class="cls-3" d="M813.88,374.58q.07,3.92.13,7.82a1.86,1.86,0,0,1-1.53,1.51,50.51,50.51,0,0,1-10.14-.45l-12.42-1.54a2.25,2.25,0,0,1-1.53-1.58,6.92,6.92,0,0,1-.14-.77q-.11-7-.19-14.08a7,7,0,0,1,.12-.78,2.19,2.19,0,0,1,1.51-1.55,91.7,91.7,0,0,1,14.06.63c2.6.24,5.18.67,7.76,1a2.83,2.83,0,0,1,2.3,2.73c0,1,0,2.08,0,3.13v3.91Z" transform="translate(-527.69 -206.76)"/><path d="M940.3,406.21c-2.71-.17-4.28-.3-5.86-.35a45.15,45.15,0,0,1-14.54-3.2c-1-.37-1.92-.85-2.91-1.19a37,37,0,0,1-14.38-9.4,51.93,51.93,0,0,0-4.63-4.26,20.49,20.49,0,0,1-5-6c-3.8-6.62-7.22-13.4-9.07-20.88a38.41,38.41,0,0,1-1.09-5.39,18.18,18.18,0,0,0-.3-2.35c-1-4.13-.84-8.34-.93-12.54a48.83,48.83,0,0,1,1.32-10.92,16.22,16.22,0,0,1,.72-2.24,67.63,67.63,0,0,1,8.8-15.78,26.32,26.32,0,0,1,4.86-5.14c2.48-1.94,5-3.87,7.57-5.65a48.1,48.1,0,0,1,14.26-6.56,43.49,43.49,0,0,1,16.37-1.68c3.66.38,7.34.65,10.94,1.34a61.13,61.13,0,0,1,27.91,12.06,37.43,37.43,0,0,1,11.44,13.83c1.12,2.37,2.28,4.73,3.42,7.09a54.76,54.76,0,0,1,3.57,11.23,13.32,13.32,0,0,1,.33,2.34c.53,7.09.76,14.17-1.14,21.14-.72,5-2.52,9.62-4.39,14.25a39.07,39.07,0,0,1-6,10.11c-2,2.44-4.13,4.76-6.26,7.08a16.76,16.76,0,0,1-2.38,2.06,72.83,72.83,0,0,1-7.27,4.71,40.16,40.16,0,0,1-8.66,3.71c-1,.3-2.07.43-3,.82-4.24,1.74-8.67,2-13.16,1.78C940.21,406.19,939.69,406.21,940.3,406.21Zm.26-12.86a24.12,24.12,0,0,0,10.7-1.61c.73-.27,1.55-.3,2.28-.58,5.45-2.06,10.55-4.68,14.34-9.31.83-1,1.74-2,2.63-2.93a29.58,29.58,0,0,0,5.39-8.62,63.91,63.91,0,0,0,4.41-16.69A39.21,39.21,0,0,0,977,331.34c-1-2.14-2-4.28-3.12-6.36a23.55,23.55,0,0,0-5.27-6.82,45.41,45.41,0,0,0-17.75-9.83,48.27,48.27,0,0,0-11.58-2.19c-1.82-.05-3.64-.45-5.47-.62a17.34,17.34,0,0,0-3.14-.06,40.16,40.16,0,0,0-15.08,4.11c-2.11,1.08-4,2.53-6,3.77a29.35,29.35,0,0,0-10,10.89c-.91,1.59-1.7,3.25-2.58,4.86a18.92,18.92,0,0,0-2.14,8.31c-.12,2.88-.16,5.78-.05,8.66a54.14,54.14,0,0,0,3.81,18.4c1.09,2.68,2.57,5.16,3.8,7.77a12,12,0,0,0,4.49,5.34,10.57,10.57,0,0,1,2.67,2.86,27,27,0,0,0,12.49,9.2l2.22.82a36.16,36.16,0,0,0,12.23,2.67C937.57,393.15,938.61,393.24,940.56,393.35Z" transform="translate(-527.69 -206.76)"/><path class="cls-4" d="M940.56,393.35c-1.95-.11-3-.2-4-.23a36.16,36.16,0,0,1-12.23-2.67l-2.22-.82a27,27,0,0,1-12.49-9.2,10.57,10.57,0,0,0-2.67-2.86,12,12,0,0,1-4.49-5.34c-1.23-2.61-2.71-5.09-3.8-7.77a54.14,54.14,0,0,1-3.81-18.4c-.11-2.88-.07-5.78.05-8.66a18.92,18.92,0,0,1,2.14-8.31c.88-1.61,1.67-3.27,2.58-4.86a29.35,29.35,0,0,1,10-10.89c2-1.24,3.87-2.69,6-3.77a40.16,40.16,0,0,1,15.08-4.11,17.34,17.34,0,0,1,3.14.06c1.83.17,3.65.57,5.47.62a48.27,48.27,0,0,1,11.58,2.19,45.41,45.41,0,0,1,17.75,9.83,23.55,23.55,0,0,1,5.27,6.82c1.11,2.08,2.12,4.22,3.12,6.36a39.21,39.21,0,0,1,3.32,22.27,63.91,63.91,0,0,1-4.41,16.69,29.58,29.58,0,0,1-5.39,8.62c-.89,1-1.8,1.91-2.63,2.93-3.79,4.63-8.89,7.25-14.34,9.31-.73.28-1.55.31-2.28.58A24.12,24.12,0,0,1,940.56,393.35Z" transform="translate(-527.69 -206.76)"/></svg>