<svg id="Layer_1" data-name="Layer 1" xmlns="http://www.w3.org/2000/svg" viewBox="0 0 582.52 555.1"><defs><style>.cls-1{fill:#beb0a3;stroke:#b7a999;}.cls-1,.cls-2,.cls-4{stroke-miterlimit:10;}.cls-2{fill:#7d726d;stroke:#8c8279;}.cls-3{fill:#fff;}.cls-4{fill:#00643c;stroke:#006341;}</style></defs><path d="M1109.94,595.67c-1,0-2.11,0-3.15-.08q-10.18-1.11-20.36-2.27c-1.57-.18-3.11-.51-4.68-.67a62,62,0,0,1-7.8-1.08,29.69,29.69,0,0,0-3.12-.46c-5.74-.67-11.42-1.75-17.09-2.84s-11.35-2.18-17-3.27c-6.71-1.29-13.35-2.86-20.07-4.1-5.68-1.06-11.32-2.29-17.08-2.86-6.44-1.4-13.07-1.33-19.55-2.45a43.34,43.34,0,0,0-4.71-.38,82.47,82.47,0,0,1-11-1.07,34.25,34.25,0,0,0-3.92-.4c-3.15-.24-6.29-.53-9.4-1.08-1.8-.32-3.65-.43-5.48-.65-1.56-.18-3.15-.25-4.69-.58a85.91,85.91,0,0,0-8.59-1.13c-2.87-.31-5.73-.7-8.6-1a2.54,2.54,0,0,0-1.88,1.24,4.79,4.79,0,0,0-.41,1.5,10.16,10.16,0,0,0,.27,2.33,10.32,10.32,0,0,1-.45,6.19c-.28.73-.42,1.52-.72,2.25a5.75,5.75,0,0,1-4.71,3.7,10.87,10.87,0,0,1-2.35.13,107.71,107.71,0,0,1-12.54-1.33,13.49,13.49,0,0,0-1.55-.24c-7.89-.56-15.55-2.55-23.33-3.75-2.33-.37-4.6-1.06-6.9-1.6a12.13,12.13,0,0,1-4.22-2.07,8.19,8.19,0,0,1-3.45-6c-.31-2.6-.36-5.24-.64-7.85a2.26,2.26,0,0,0-1.4-1.77,8.58,8.58,0,0,0-1.46-.55,18.45,18.45,0,0,0-2.33-.35A71.27,71.27,0,0,1,847,560a21.82,21.82,0,0,0-3.12-.4c-5.78-.33-11.44-1.65-17.21-2.11-5.64-1.35-11.51-1.14-17.15-2.46-6.56-.42-13-1.8-19.57-2.31-4.44-.34-8.86-1.05-13.32-1.41-1.3-.11-2.59-.4-3.89-.59q-2.73-.39-5.47-.74c-1.56-.19-3.15-.24-4.69-.54a76,76,0,0,0-9.38-1.24,23.35,23.35,0,0,1-3.12-.4,64,64,0,0,0-8.6-1.07c-1.05-.08-2.11-.09-3.14-.25-4.68-.74-9.38-1.25-14.1-1.56-1.05-.07-2.08-.27-3.12-.43S719,544.06,718,544c-6.57-.29-13-1.42-19.59-2.09-6.26-.64-12.5-1.56-18.8-1.94a74.93,74.93,0,0,0-11.77-1,212.74,212.74,0,0,1-23.5-2.49,43.93,43.93,0,0,0-4.68-.67c-4.73-.18-9.4-1-14.1-1.42a55.24,55.24,0,0,1-7.79-1.16,15,15,0,0,0-3.12-.47c-5.79-.17-11.47-1.41-17.23-1.91-1.3-.11-2.6-.36-3.89-.58a30.58,30.58,0,0,0-3.1-.56c-5.52-.3-10.94-1.46-16.44-1.89a10.87,10.87,0,0,1-3.84-.78,8.52,8.52,0,0,0-5.4-.53c-4.38.9-8.8,1.43-13.24,2a66.83,66.83,0,0,0-8.47,1.8,23.55,23.55,0,0,1-6.23.83,8.37,8.37,0,0,1-6.25-2.88,7.12,7.12,0,0,1-1.19-2,10.94,10.94,0,0,1-.76-3.84c-.53-10-.78-20-.64-30,.13-8.67.19-17.34.31-26,0-2.1,0-4.21.24-6.3.49-4.71.62-9.43.75-14.16.08-2.89.31-5.77.46-8.66.1-1.84.26-3.67.28-5.51a44.57,44.57,0,0,1,.83-8.62c.1-.51.14-1,.22-1.56.65-4.16.31-8.4,1-12.56a71.52,71.52,0,0,0,.7-11.79,67.26,67.26,0,0,1,1-11.77c.28-1.55.39-3.13.56-4.69a36.14,36.14,0,0,1,.41-3.92,76.66,76.66,0,0,0,1.49-17.23,22.47,22.47,0,0,1,.43-4.7,51.24,51.24,0,0,0,1-10.19,45,45,0,0,1,.53-7.06,8.89,8.89,0,0,1,3.05-5.38,17.87,17.87,0,0,1,4.6-3,67.08,67.08,0,0,1,8.09-3.1c2.26-.67,4.51-1.4,6.77-2.09a2.25,2.25,0,0,0,1.46-1.69,5.75,5.75,0,0,0,.22-1.55c.19-4.73.39-9.45.54-14.18.07-2.36-.07-4.74.12-7.09.29-3.4.12-6.83.82-10.2a11,11,0,0,0,0-2.36,2,2,0,0,0-1.26-1.79,4.35,4.35,0,0,0-.75-.24,12.43,12.43,0,0,1-4.56-1.12c-4-1.92-8.16-3.63-12.32-5.25a16.55,16.55,0,0,1-4.67-2.88,7.44,7.44,0,0,1-2.6-4.73,21.9,21.9,0,0,1-.22-3.14q-.07-13.41-.12-26.81c0-4.73.09-9.46-.09-14.19-.12-3.41-.07-6.82,0-10.24.05-3.68.22-7.36.19-11-.07-7.11.29-14.19.66-21.28.09-1.57.36-3.13.49-4.7a37.15,37.15,0,0,0-.19-9.42,33.5,33.5,0,0,1,.05-11,52.32,52.32,0,0,0,.53-7.07c.16-8.41.42-16.81.53-25.22a50.76,50.76,0,0,1,1.24-10.15,8.2,8.2,0,0,1,4.26-5.4,7.85,7.85,0,0,1,2.17-.94,31.32,31.32,0,0,0,6.64-2.45,67.66,67.66,0,0,1,13.43-4.47,2.8,2.8,0,0,0,1.82-2.3c.07-2.1.12-4.2.21-6.3a7.2,7.2,0,0,1,1.38-3.63,13.06,13.06,0,0,1,2.68-2.87,8.44,8.44,0,0,1,5-2.08c3.94-.18,7.88-.36,11.81-.46a51.09,51.09,0,0,0,8.65-.54,15.21,15.21,0,0,1,2.35-.22c7.37-.22,14.67-1.2,22-2.14q8.21-1.06,16.41-2.15c2.61-.35,5.21-.6,7.85-.69A108.22,108.22,0,0,0,659.85,79c2.84-.43,5.75-.51,8.63-.7,3.67-.24,7.34-.4,11-.9,2.85-.39,5.76-.47,8.65-.58,6-.23,12.07-.44,18.09-1.07,3.39-.35,6.82-.42,10.23-.63a68.8,68.8,0,0,0,7.84-.72A46.08,46.08,0,0,1,729,74a145.93,145.93,0,0,0,14.9-1.48c7.61-.38,15.13-1.76,22.77-1.92a64.69,64.69,0,0,0,9.41-.87,64,64,0,0,1,7-.68c4.2-.25,8.41-.4,12.57-1,.26,0,.52,0,.79-.07,4.45-.27,8.93-.39,13.37-.85s8.88-1,13.34-1.18c1.58-.07,3.15-.16,4.72-.35,8.61-1,17.26-1.68,25.93-2,6.52-.91,13.11-.63,19.65-1.24.43,0,.86-.55,1.22-.91a1.22,1.22,0,0,0,.19-.75c.1-1.57.27-3.15.23-4.71A17.47,17.47,0,0,1,877,48.33a5,5,0,0,1,.93-1.26,5.55,5.55,0,0,1,3.36-1.91,77.16,77.16,0,0,1,10.19-1c2.62,0,5.25-.18,7.87-.35,3.67-.24,7.35-.34,11-.35,2.89,0,5.78-.11,8.67-.17,1.05,0,2.1-.06,3.15-.07a18.18,18.18,0,0,1,7.62,1.71c3,1.32,4.31,3.7,4.61,6.77.13,1.31,0,2.63.09,3.94a3,3,0,0,0,.39,1.5,2.63,2.63,0,0,0,1.24.9,4.43,4.43,0,0,0,1.55.15c3.16-.07,6.31-.12,9.46-.27,2.89-.15,5.78-.3,8.64-.66,5.48-.7,11-1,16.43-2,1.8-.35,3.66-.37,5.49-.55s3.68-.24,5.49-.57c3.11-.56,6.27-.68,9.39-1.1,6.26-.83,12.55-1.23,18.85-1.53.79,0,1.58-.05,2.36-.16,5-.73,9.94-.89,14.92-1.21,4.2-.27,8.38-.6,12.56-1.1,4.7-.56,9.41-.86,14.09-1.63a45.87,45.87,0,0,1,7.86-.51c6.35.08,12.55-1.13,18.79-2a52.21,52.21,0,0,1,13.29-1.42,27.47,27.47,0,0,0,7-1.09c2.53-.65,5-1.66,7.65-1.79V54.75a7.69,7.69,0,0,0-3.9.06,40.76,40.76,0,0,1-11.68,1.5,27.83,27.83,0,0,0-6.26.53c-3.6.83-7.29,1-10.88,1.8a39.78,39.78,0,0,1-7,.75c-3.42.13-6.84.19-10.23.51-4.71.45-9.39,1.11-14.08,1.69-.26,0-.51.12-.77.16a3.55,3.55,0,0,0-1.56,1.68,8.22,8.22,0,0,0-.28,1.53,60.25,60.25,0,0,1-.78,11.77,25.58,25.58,0,0,0-.37,4.71c0,9.47-.46,18.91-1.13,28.34,0,.26,0,.53,0,.79q-.39,18.92-.78,37.82a79.48,79.48,0,0,1-.57,10.22,38.84,38.84,0,0,0-.3,5.5q-.19,16.54-.33,33.1c0,5,0,10,0,15,0,6.83-.17,13.65-.87,20.46a27.57,27.57,0,0,0-.15,3.15c.1,6.57-.37,13.12-.51,19.69-.17,8.67-.25,17.34-.39,26,0,2.63-.06,5.26-.28,7.88-.64,7.33-.84,14.68-.92,22-.08,8.14-.17,16.28-.64,24.42-.61,10.49-1.13,21-1.16,31.5a88.19,88.19,0,0,1-.84,12.57c-.27,1.81-.3,3.66-.39,5.5A13.9,13.9,0,0,0,1033,387a2.36,2.36,0,0,0,1.57,1.56,12.05,12.05,0,0,0,1.56.25c10,.16,19.9,1.48,29.86,2.06a43.84,43.84,0,0,1,4.69.58,36.08,36.08,0,0,0,5.49.45c5,.11,10,.25,15,.36a142.92,142.92,0,0,1,18.81,1.6v12.62c-3.94-.18-7.86-.43-11.78-.91-2.08-.26-4.18-.36-6.28-.43q-7.49-.22-15-.34a54.9,54.9,0,0,1-9.41-.68,62.27,62.27,0,0,0-8.62-.84c-3.93-.18-7.86-.44-11.77-1a87.55,87.55,0,0,0-11.79-.63c-.26,0-.52.07-.79.08a2.3,2.3,0,0,0-2.09,1.94,208.62,208.62,0,0,0-1.35,24.36c0,1.57,0,3.15,0,4.72-.17,3.94-.28,7.88-.64,11.8-.24,2.62-.37,5.23-.47,7.86-.24,6.29-.43,12.59-1.2,18.86-.22,1.82-.24,3.67-.3,5.5-.18,5.51-.3,11-.52,16.54-.1,2.62-.26,5.25-.61,7.85-.58,4.17-.89,8.35-1.11,12.55a48.48,48.48,0,0,1-.51,6.27,101,101,0,0,0-1.11,11.76c-.17,2.88-.39,5.76-.64,8.64-.28,3.13-.64,6.26-.91,9.4a68.51,68.51,0,0,1-.87,7.82,38.52,38.52,0,0,0-.52,9.41,2.26,2.26,0,0,0,1.38,1.73c4.77,1.48,9.71,2.27,14.59,3.28q9.63,2,19.32,3.72c5.68,1,11.34,2.16,17.09,2.78,1,.12,2.09.23,3.12.44,5.41,1.11,10.94,1.32,16.37,2.29,5.52.26,11,1.18,16.43,1.82ZM720.87,376.06c-4.65-.93-9.9-1.11-15.14-1.51-1.31-.1-2.61-.33-3.91-.46-2.09-.2-4.18-.45-6.28-.53-8.93-.36-17.78-1.59-26.69-2.24a16.6,16.6,0,0,1-2.34-.27,65.77,65.77,0,0,0-9.38-1.11c-3.4-.3-6.77-.83-10.17-1.17-2.35-.23-4.71-.29-7.07-.44-1.58-.1-3.16-.14-4.72-.34-6.51-.85-13.09-.95-19.57-2.11a27.53,27.53,0,0,0-4.71-.37c-6.33-.07-12.51-1.47-18.77-2.14A61.87,61.87,0,0,0,581.19,362c-1.83-.13-3.65-.35-5.48-.53a2.3,2.3,0,0,0-2.18,1.86l-.93,5.43a2.6,2.6,0,0,0,1.31,2.61c4.15,1.64,8.27,3.36,12.47,4.87,5.69,2,11.3,4.24,16.8,6.73,2.15,1,4.34,1.89,6.53,2.75,7.82,3.08,15.62,6.17,23.18,9.86,6.12,3,12.5,5.49,18.32,9.1a139.87,139.87,0,0,1,12.47,6.73,118.29,118.29,0,0,0,15.39,7.92,24.86,24.86,0,0,1,4.16,2.23,139.36,139.36,0,0,0,14.48,8c1.65.8,3.27,1.67,4.88,2.57a26.46,26.46,0,0,1,2.65,1.7,10.25,10.25,0,0,1,3.07,3.53,8.49,8.49,0,0,1,1.17,3.72c.11,3.41.13,6.83.17,10.24a67.45,67.45,0,0,1-1.16,14.11,43.76,43.76,0,0,0-.72,7c0,1.05-.09,2.1-.17,3.15a11.38,11.38,0,0,1-1,3.79,18.15,18.15,0,0,1-3.42,5.25,7.74,7.74,0,0,1-2.53,1.83c-3.62,1.54-7.33,2.87-10.93,4.45-4.57,2-9.2,3.84-13.93,5.43-9.45,3.18-18.76,6.78-28.23,9.9-3,1-6,1.82-9.07,2.61-1.27.34-2.55.62-3.82.95-5.59,1.45-11.18,2.86-16.84,4-4.63,1-9.2,2.14-13.79,3.25-.24,0-.6.29-.6.46,0,.37.39.69,1,.82a48.51,48.51,0,0,0,8.55,1.37,52.68,52.68,0,0,1,10.14,1.34,26.5,26.5,0,0,0,3.9.51c5.74.59,11.49,1.14,17.24,1.74,1.56.16,3.13.35,4.68.64,3.62.68,7.28.95,10.94,1.32,3.92.4,7.82.94,11.77,1,6.57.09,13,1.49,19.6,1.73,1,0,2.09.21,3.14.32a7,7,0,0,1,.78.13,64.08,64.08,0,0,0,9.37,1.12,36.26,36.26,0,0,1,3.91.45c3.63.68,7.31.82,11,1.18s7.29.94,10.94,1.3c2.88.28,5.75.51,8.61,1,1.81.3,3.65.45,5.48.59a69,69,0,0,1,8.59,1c1.54.32,3.13.35,4.69.55,2.35.31,4.68.66,7,1,5.21.66,10.42,1.29,15.61,2.09.78.12,1.57.14,2.35.22q9,.93,18,1.88c1,.11,2.07.35,3.11.5,1.81.26,3.64.49,5.46.73l6.24.85c1.3.18,2.59.44,3.9.53,6,.41,11.93,1.86,18,2.31a79.78,79.78,0,0,0,8.59,1.13c2.08.23,4.16.55,6.23.87a38,38,0,0,0,7.82.62c.52,0,1.74-.93,1.79-1.37.12-1,.29-2.08.34-3.12.12-2.62.12-5.25.29-7.87a62.71,62.71,0,0,0,.33-7.87c-.16-2.91.56-5.74.68-8.62,0-.27,0-.53,0-.79,0-6.83.52-13.65.36-20.48,0-1.31,0-2.63.06-3.94.42-7.34.37-14.7.54-22.05,0-1.58,0-3.15.18-4.72.69-8.91,1.11-17.83,1.12-26.76,0-5,.09-10,.58-14.95.57-5.76.64-11.53.86-17.3.19-5,.39-10,1-14.93a22.9,22.9,0,0,0,.06-2.35,2.46,2.46,0,0,0-1.8-2.27,98.82,98.82,0,0,0-13.29-1.39,96.21,96.21,0,0,1-11-.8c-3.12-.47-6.27-.64-9.41-.87-1.83-.14-3.7-.09-5.5-.39-5.19-.89-10.45-1.06-15.68-1.45-1.05-.07-2.1-.12-3.14-.28a117.18,117.18,0,0,0-12.54-1.2,27.33,27.33,0,0,1-3.14-.28A130.8,130.8,0,0,0,778.67,381c-1.83-.12-3.67-.26-5.48-.54a59.85,59.85,0,0,0-7.06-.6c-1.84-.06-3.68-.09-5.51-.24-8.11-.68-16.22-1.4-24.32-2.1a69.61,69.61,0,0,0-11-1.11C724,376.29,722.71,376.19,720.87,376.06ZM981.26,334.2v3.28c0,4.46,0,8.93-.41,13.38-.11,1.31-.13,2.62-.15,3.94q-.18,13-.33,26a11.94,11.94,0,0,0,.23,1.54,2.77,2.77,0,0,0,1.53,1.63c1.82.26,3.64.47,5.45.77,7.26,1.23,14.61,1.62,21.91,2.42,2.34.26,4.72.23,7.08.29a11.88,11.88,0,0,0,1.55-.18,2.38,2.38,0,0,0,1.58-1.55,13.93,13.93,0,0,0,.26-1.55c.43-8.39,1.63-16.73,1.34-25.15,0-1.31.13-2.62.17-3.94.16-5.25.3-10.49.47-15.74.07-2.1.11-4.2.3-6.29.55-6.29.84-12.58.8-18.88-.09-11.56.61-23.1,1-34.64.2-6.56.43-13.12.53-19.69,0-2.36,0-4.72.11-7.08.17-6.3.4-12.6.55-18.9.09-4.2.16-8.39.64-12.58a59.7,59.7,0,0,0,.28-7.08c0-15.23.16-30.45.26-45.68,0-6.31.36-12.6.76-18.89.13-2.09.3-4.19.34-6.28q.42-19.69.78-39.38a35.13,35.13,0,0,1,.25-4.71,83.07,83.07,0,0,0,.66-11.79,109.6,109.6,0,0,1,1-16.49,14.19,14.19,0,0,0,.13-2.35c0-.79-.11-1.57-.19-2.36-.24-2.35-1.38-3.41-3.58-3.09-3.39.48-6.79.68-10.2.82-8.4.35-16.74,1.34-25.11,2a11.47,11.47,0,0,0-3.85.76c-.68.31-1.45.66-1.61,1.58,0,.25-.19.49-.21.75a171.27,171.27,0,0,0,.11,17.29,30.34,30.34,0,0,1,.41,7.06c-.11,1.29.15,2.61.15,3.92,0,3.15.08,6.31-.14,9.45-.19,2.88-.28,5.76-.29,8.65q0,5.13-.05,10.24-.1,12.21-.21,24.42c0,5,0,10-.05,15,0,5.51-.16,11-.2,16.53,0,5.78,0,11.56,0,17.33,0,3.15-.07,6.31-.14,9.46-.08,4.46-.22,8.92-.28,13.38-.06,4.2,0,8.4-.06,12.6,0,2.1-.13,4.2-.24,6.3-.13,2.62-.3,5.24-.44,7.86-.37,6.82-.38,13.64-.4,20.47a121.27,121.27,0,0,1-1,18.07c-.2,1.29-.17,2.62-.26,3.93-.38,5.51-.28,11-.3,16.54,0,7.87-.1,15.75-.81,23.6C981.32,332.23,981.3,333.28,981.26,334.2Zm-107.67-164c.17-3,.35-5.92.49-8.81s.32-5.77.34-8.66c.08-12.08,0-24.17.28-36.25.24-12.35.21-24.7.29-37,0-.52-.07-1-.09-1.57A2.18,2.18,0,0,0,873,75.78a86.83,86.83,0,0,0-14.15.3c-1.57.14-3.14.26-4.72.35-3.67.2-7.35.32-11,.6-7.33.56-14.63,1.51-22,1.85-.52,0-1,.09-1.56.17A117.34,117.34,0,0,1,807,80.13c-2.1.13-4.21.16-6.29.45-3.39.48-6.79.67-10.2.87a136.37,136.37,0,0,0-14.12,1.27c-2.07.35-4.19.36-6.28.54-1.05.09-2.09.19-3.13.3a2.83,2.83,0,0,0-2.36,2.71c0,2.36-.17,4.73,0,7.09.2,3.68.12,7.35.05,11-.06,2.88.06,5.78.16,8.66a15.23,15.23,0,0,0,.46,2.29,2.5,2.5,0,0,0,1.84,1.24c.52-.08,1-.1,1.56-.23a66.11,66.11,0,0,1,13.18-2.2,5.29,5.29,0,0,0,.78-.13,33,33,0,0,1,9.41-.47c4.19.33,8.36.87,12.53,1.35a20.16,20.16,0,0,1,2.3.53A68.26,68.26,0,0,1,828.34,125a46,46,0,0,1,5.61,4.32,54.28,54.28,0,0,1,11.81,15.64,35.75,35.75,0,0,1,2.22,5,105.09,105.09,0,0,1,3.21,10.55c.93,4.09,1.88,8.18,2.78,12.29a25.57,25.57,0,0,1,.53,3.9c.43,7.86,1.12,15.72.92,23.62-.09,3.41,0,6.83,0,10.24,0,7.1-.86,14.16-1.14,21.25a19.51,19.51,0,0,1-.43,3.12,60.83,60.83,0,0,0-1.18,10.16,20.49,20.49,0,0,1-.3,3.14,82.81,82.81,0,0,0-1,13.34,136.67,136.67,0,0,1-1.09,14.14c-.35,2.59-.35,5.24-.53,7.86-.14,2.09-.19,4.2-.48,6.28-.84,6-1.7,12-2.72,17.91a50.76,50.76,0,0,1-3.2,10.53,11.88,11.88,0,0,1-1.18,2,27.75,27.75,0,0,1-4.6,5.37c-1,.87-2,1.74-2.95,2.62a85.12,85.12,0,0,1-25.43,15.5,39.15,39.15,0,0,1-8.29,2.49c-3.11.5-6.23.91-9.34,1.43a41.19,41.19,0,0,1-6.28.46c-2.89.05-5.78-.07-8.67-.12a38.65,38.65,0,0,1-6.26-.66c-2.85-.5-5.71-.93-8.56-1.4a1.73,1.73,0,0,0-1.89.95,61.54,61.54,0,0,0-1.63,17.93,2.68,2.68,0,0,0,1.55,1.61c2.09.18,4.18.38,6.28.51,2.36.15,4.73.13,7.08.37,5.75.59,11.49,1.2,17.27,1.51a16.59,16.59,0,0,1,2.34.26c3.88.8,7.84.79,11.76,1.17,4.18.41,8.36.86,12.54,1.29.52,0,1.05.06,1.58.08a84.84,84.84,0,0,1,10.19,1,27.27,27.27,0,0,0,3.13.37q9,.58,18.06,1.51c5.74.6,11.53.7,17.3,1,.64,0,1.42-.76,1.52-1.53.51-3.9.23-7.87,1.06-11.75a9,9,0,0,0,.09-1.57c.21-8.4.44-16.81.62-25.21a63.51,63.51,0,0,1,.57-10.22,19.27,19.27,0,0,0,.18-3.14q.21-11,.39-22.07c.16-10.24.29-20.49.46-30.73a46,46,0,0,1,.26-5.51,67.6,67.6,0,0,0,.39-8.65c0-8.15,0-16.29.1-24.44,0-4.72.25-9.45.3-14.18C873.38,201,873.48,185.54,873.59,170.19Zm99.17-29.66h-.08c.11-5.51.3-11,.33-16.53.07-10,0-20,0-29.93,0-1.84,0-3.68-.14-5.51-.28-3.14-.26-6.29-.29-9.44,0-2.89-.16-5.77-.26-8.66a2.18,2.18,0,0,0-1.55-1.53,13.79,13.79,0,0,0-1.56-.11c-2.87.27-5.75.48-8.61.91-3.38.5-6.79.67-10.2.83-1.31.06-2.62,0-3.93.07-2.36.11-4.73.21-7.08.43a36.36,36.36,0,0,0-3.86.71,2.46,2.46,0,0,0-1.71,2.37q0,14.56.06,29.14c0,2.36.06,4.73-.14,7.08-.29,3.41-.3,6.82-.31,10.23,0,8.66-.42,17.32-.11,26,0,.78,0,1.57,0,2.36-.06,6-.15,12.07-.17,18.11,0,8.93-.44,17.85-.17,26.77a27.55,27.55,0,0,1-.07,3.15c-.31,4.2-.31,8.4-.27,12.6,0,4.47-.1,8.92-.44,13.38-.18,2.35-.28,4.71-.32,7.08q-.21,13-.36,26a61.9,61.9,0,0,1-.61,9.43,52.85,52.85,0,0,0-.45,7.85q-.18,15.34-.39,30.71c0,.79,0,1.57-.05,2.36-.28,10.76-.31,21.53-1,32.27-.07,1.05-.09,2.1-.09,3.15q0,14.18,0,28.36c0,2.1.06,4.2.1,6.3,0,.52.08,1,.11,1.57a3.23,3.23,0,0,0,2,2.2,18.38,18.38,0,0,0,4.65.71c6.3.26,12.59.55,18.89.73a67.33,67.33,0,0,1,8.63.65,9.54,9.54,0,0,0,2.32-.09,1.43,1.43,0,0,0,1.19-.93,5.09,5.09,0,0,0,.55-2.26c.18-6.82.61-13.63.51-20.46,0-2.36,0-4.73.1-7.09.11-5,.27-10,.33-15,0-3.41.12-6.82.45-10.22a136.64,136.64,0,0,0,.62-14.16c0-3.67-.07-7.35,0-11a207.75,207.75,0,0,1,1.16-22,66.54,66.54,0,0,0,.34-7.07c.11-5.77.1-11.55.27-17.32.31-10.76.54-21.52.49-32.29,0-1.84,0-3.67,0-5.51a36.82,36.82,0,0,1,.21-3.93,82.54,82.54,0,0,0,.54-11c0-6.31,0-12.61,0-18.91,0-3.67-.07-7.35.07-11,.25-6.3.22-12.6.23-18.9C972.77,148.94,972.76,144.74,972.76,140.53ZM842.38,202.22c-.12-6.07-.24-13.17-.42-20.26a31.79,31.79,0,0,0-1.17-8.56c-.3-1-.35-2.08-.59-3.1a132,132,0,0,0-4.42-15.93,37.78,37.78,0,0,0-3.52-7c-.84-1.33-1.82-2.58-2.72-3.87a25.2,25.2,0,0,0-7.35-7c-2.44-1.54-4.9-3.08-7.47-4.37a42,42,0,0,0-17.3-4.92,53.42,53.42,0,0,1-5.48-.62,17.43,17.43,0,0,0-5.49,0,31.12,31.12,0,0,1-4.69.57c-3.74,0-7.24,1.22-10.81,2.07a103.66,103.66,0,0,0-19.79,9.61,16.05,16.05,0,0,0-4,3.74c-4.28,5.48-4.27,5.48-7.43,12a70.44,70.44,0,0,0-4.42,10.95c-.8,2.77-1.41,5.59-2.09,8.39A2.63,2.63,0,0,0,734,176a54.07,54.07,0,0,1,8.75,5.3c5.57,4.17,10.3,9,12.31,15.91a3.8,3.8,0,0,0,.38.68,1.74,1.74,0,0,0,1.23.89,9.41,9.41,0,0,0,1.54.33c6.56.3,13.12.56,19.68.87a45.07,45.07,0,0,1,6.27.52c3.12.56,6.28.61,9.41.95a6.85,6.85,0,0,0,5.15-1.46c1.25-1,2.53-1.87,3.75-2.87a6.93,6.93,0,0,0,2.43-4.8,27.08,27.08,0,0,0-.18-7.08,15.8,15.8,0,0,0-.7-3.06c-.87-2.3-2.16-4.21-4.86-4.65a15,15,0,0,1-2.28-.59,7.38,7.38,0,0,1-4.48-4.15,5.78,5.78,0,0,1,.32-5.29,7.08,7.08,0,0,1,7.36-3.4,47.23,47.23,0,0,1,4.55,1.29,15.83,15.83,0,0,1,6,3.7,23.17,23.17,0,0,1,7.24,16.13c.1,2.62,0,5.25,0,7.88a17,17,0,0,1-2,7.55,20.86,20.86,0,0,1-3.56,5.18,7.86,7.86,0,0,0-2,2.41,1.48,1.48,0,0,0-.08.72,6.35,6.35,0,0,0,1.63,2.65,23.8,23.8,0,0,1,5.27,12.13,14.41,14.41,0,0,1-.37,8.52,51.21,51.21,0,0,1-3.72,8.68,23.85,23.85,0,0,1-4.22,5.67,18.15,18.15,0,0,1-5,3.72,16.46,16.46,0,0,1-8.43,1.56,6.22,6.22,0,0,1-4.86-9.37,6.84,6.84,0,0,1,3.6-2.94c1-.36,2-.49,3-.76a6.08,6.08,0,0,0,3.18-2.21,20.46,20.46,0,0,0,3.77-7.74,9.88,9.88,0,0,0-.86-6.89,11.49,11.49,0,0,0-5.53-5.41,23.35,23.35,0,0,0-9.8-2.63,58,58,0,0,1-6.27-.67c-1-.12-2.08-.35-3.12-.39q-9.45-.37-18.91-.68a8.25,8.25,0,0,0-1.57.06,3.14,3.14,0,0,0-2.57,1.54c-.84,1.64-1.57,3.34-2.46,4.94a13.54,13.54,0,0,1-2.91,3.7,23.55,23.55,0,0,1-6.61,4.22,34.64,34.64,0,0,1-5.95,2.07c-1.54.32-3.05.78-4.6,1.08a2.55,2.55,0,0,0-1.68,2.35,65.92,65.92,0,0,0,1.39,11.71c1.08,4.87,2.3,9.71,3.51,14.55,1.7,6.78,5.36,12.51,9.81,17.78a9,9,0,0,0,1.13,1.1,57.8,57.8,0,0,0,8.26,6,83.5,83.5,0,0,0,17.41,7.28,13.2,13.2,0,0,0,2.31.49c4.18.42,8.35,1.09,12.57.54,1-.13,2.1-.08,3.15-.13a60.78,60.78,0,0,0,13.88-2.7,24.14,24.14,0,0,0,4.44-1.62c2.58-1.29,5.21-2.48,7.82-3.73a26.8,26.8,0,0,0,6.55-4.33,38.65,38.65,0,0,0,10.19-13.85c1.4-3.41,2.53-6.9,3.65-10.4a32.85,32.85,0,0,0,1.53-6.91c.46-5,1.34-9.89,2.09-14.82a67.5,67.5,0,0,0,.88-8.62C842,217.43,842.2,210.34,842.38,202.22ZM540.9,488h-.12c0,6,0,12.07,0,18.1,0,2.62.19,5.24.34,7.86a10.38,10.38,0,0,0,.37,1.51,2.42,2.42,0,0,0,1.85,1.23A121.82,121.82,0,0,1,555.82,515c4.07-1,8.25-1.43,12.32-2.54q9.09-2.48,18.25-4.78c6.1-1.53,12.27-2.76,18.41-4.16,10-2.26,20-4.31,29.83-7.09a36.68,36.68,0,0,0,6.84-1.81c5-1.62,9.92-3.37,14.87-5.1,2.48-.86,4.92-1.82,7.4-2.65,8.46-2.83,16.81-5.94,25-9.57,1-.46,1.45-1.05,1.21-1.72a1.81,1.81,0,0,0-1-1.1c-2.63-1.17-5.28-2.31-7.9-3.52-6.66-3.08-13.68-5.35-20-9.09a5.1,5.1,0,0,0-.73-.3c-7.54-3.05-14.81-6.71-22.25-10-10.78-4.72-21.46-9.06-32.15-12.78-5-1.73-9.88-3.51-14.73-5.49-1.46-.6-2.93-1.17-4.42-1.67-5-1.67-9.78-3.78-14.64-5.73a60.28,60.28,0,0,1-5.72-2.63c-6.26-3.3-12.76-6.12-19.06-9.34a2.83,2.83,0,0,0-.75-.23,1.23,1.23,0,0,0-1.3.58,6.18,6.18,0,0,0-.87,3c-.47,6.8-1.77,13.53-1.78,20.37A130.62,130.62,0,0,0,542,452.6a62.42,62.42,0,0,1-.51,8.64,43.46,43.46,0,0,0-.28,4.71C541.07,473.29,541,480.64,540.9,488ZM639.11,252v-.19c-5.78,0-11.55,0-17.32,0-3.42,0-6.83.1-10.24.16-.26,0-.52.08-.78.09a2.91,2.91,0,0,0-2.66,2.45,43.56,43.56,0,0,1-.3,5.5,57.15,57.15,0,0,0-.6,10.2c0,2.89-.05,5.78-.2,8.66-.35,6.56-.17,13.12-.25,19.68a2.79,2.79,0,0,0,2.53,2.52,25.23,25.23,0,0,0,5.49.23,64.38,64.38,0,0,1,11.76,1,21.43,21.43,0,0,1,5.24,1.65,7.79,7.79,0,0,1,4.58,6,7.46,7.46,0,0,1,.18,1.56c0,4.46,0,8.92.06,13.38q0,1.58,0,3.15a2.71,2.71,0,0,0,2,2.12c2.09.17,4.18.33,6.28.46,3.4.2,6.85.12,10.21.61,5,.73,9.93.93,14.9,1.2,1.57.09,3.15.19,4.71.35,7.58.77,15.18,1.17,22.8,1.31a70.27,70.27,0,0,1,11.75.94,55.52,55.52,0,0,0,12.56.41,2.17,2.17,0,0,0,1.55-1.56c.42-2.85.83-5.69,1.22-8.54a1.53,1.53,0,0,0-.21-.76,9.08,9.08,0,0,0-2-2.4,36.33,36.33,0,0,1-5.72-6.47,6.6,6.6,0,0,1-1.18-2.89,116.81,116.81,0,0,1-1.11-14.11c.07-6.57.08-13.13.16-19.69a53,53,0,0,1,.3-5.5c.76-6.55.55-13.11.42-19.67a3.39,3.39,0,0,0-.36-1.51,2.5,2.5,0,0,0-1.08-1.08,7.7,7.7,0,0,0-3.1-.43q-16.53,0-33.07,0a63.27,63.27,0,0,0-11,.53,19.33,19.33,0,0,1-3.14.19Zm-.58-52.15v-.11c-3.41.06-6.83.2-10.24.18-4.46,0-8.93-.17-13.39-.28-1.58,0-3.15-.15-4.73-.21a18.71,18.71,0,0,1-5.38-1.13,8.08,8.08,0,0,1-5.74-6.86,60.44,60.44,0,0,1-.45-11q.38-10.64.09-21.28a46.41,46.41,0,0,1,.08-4.72c.36-4.46.38-8.93.38-13.39a55.79,55.79,0,0,1,.51-7.86c.25-1.82.41-3.66.55-5.49.1-1.31,0-2.63.16-3.93a6.23,6.23,0,0,1,1.58-3.54,11.44,11.44,0,0,1,6.74-3.8c3.62-.62,7.28-1,10.93-1.47,1.3-.17,2.61-.23,3.92-.28,2.63-.11,5.26-.16,7.88-.27a36.57,36.57,0,0,0,3.92-.34c4.68-.71,9.32-1.61,14-2.19,3.66-.46,7.24-1.32,10.87-1.87A161.31,161.31,0,0,1,676.62,108a13.54,13.54,0,0,0,1.56-.18,114.55,114.55,0,0,1,12.54-1.28c4.46-.29,8.84-1.29,13.31-1.47a37.19,37.19,0,0,0,4.71-.47c4.92-.84,9.93-1,14.82-2.08a28.34,28.34,0,0,1,4.7-.45c5.41-.28,5.79.09,10,3.57a7,7,0,0,1,2.52,4.77c.19,1.83.29,3.67.34,5.5.06,2.63,0,5.26,0,7.89,0,1,.1,2.09.14,3.14a1.48,1.48,0,0,0,2.22,1.26c2.48-1.47,5-2.9,7.44-4.43a2.57,2.57,0,0,0,1.11-2,11.84,11.84,0,0,0,.11-1.57c-.21-7.09-.63-14.17-.21-21.27,0-.52,0-1,0-1.58-.09-3.15-.17-6.3-.28-9.45a3.69,3.69,0,0,0-.28-1.53,2.12,2.12,0,0,0-1.09-1,7.18,7.18,0,0,0-2.32-.21c-3.15.15-6.22.93-9.38,1.09-8.66.45-17.24,1.9-25.92,2a5.16,5.16,0,0,0-.79.07,128.9,128.9,0,0,1-15.71,1.09c-5.25.2-10.5.4-15.73,1-2.86.34-5.76.39-8.64.58-2.62.18-5.26.24-7.86.61-4.43.63-8.87,1-13.34,1.18-6,.29-12,1-18,1.87-8.58,1.22-17.16,2.43-25.82,3-1.05.07-2.1.18-3.14.31a98.43,98.43,0,0,1-14.15.81c-1.31,0-2.63,0-3.94.1-.52,0-1,.22-1.53.29a2.59,2.59,0,0,0-1.57,1.6c-.11,1.31-.19,2.62-.33,3.92a157.11,157.11,0,0,0-.78,21.25c.07,2.89.08,5.78.06,8.67a30.85,30.85,0,0,1-.22,4.72,80.25,80.25,0,0,0-.65,12.58c0,5,.08,10-.11,15-.2,5.51-.16,11-.23,16.55a173.59,173.59,0,0,1-.86,18.09,47,47,0,0,0-.13,7.87,2.89,2.89,0,0,0,2.49,2.6c6.83.16,13.65.63,20.48.38,6.57-.24,13.14-.14,19.71-.1,5.52,0,11,.13,16.55.11,7.63,0,15.24.35,22.85.64,1.31,0,2.63.12,3.93.3a81.68,81.68,0,0,0,14.16.43c5-.2,10-.18,15,0,6.3.18,12.61.12,18.92.15a13.8,13.8,0,0,0,1.56-.18,2.2,2.2,0,0,0,1.51-1.61c0-1.57-.1-3.14,0-4.71.11-1.82.39-3.64.59-5.47a2,2,0,0,0-2-2c-.26,0-.52-.1-.77-.1-7.36,0-14.72-.25-22-1a20.73,20.73,0,0,0-2.36-.12c-7.61.12-15.24-.44-22.83.63a20.61,20.61,0,0,1-2.36.13Zm89.84-67.63h-.08c0-4.46,0-8.92,0-13.38a7.51,7.51,0,0,0-.31-2.32c-.14-.42-.65-.75-1.05-1a1.14,1.14,0,0,0-.76-.14c-7.81.86-15.56,2.31-23.43,2.66a114.13,114.13,0,0,1-15.65,1.57,145.05,145.05,0,0,1-14.85,1.67c-1,.09-2.07.3-3.11.44-6,.85-11.86,2.19-17.85,2.93-3.56,1-7.3.83-10.88,1.67a40.42,40.42,0,0,1-10.16,1,70.43,70.43,0,0,0-14.84,1.49,2.81,2.81,0,0,0-2.35,2.73,103.78,103.78,0,0,0-1.15,14.1c.05,3.14-.17,6.29-.33,9.43a44,44,0,0,0,.06,7.08,3.6,3.6,0,0,0,.41,1.5,2.14,2.14,0,0,0,1.18.95,32,32,0,0,0,6.27.17c4.46,0,8.92-.1,13.38-.1a26.92,26.92,0,0,1,3.91.34,5,5,0,0,1,2.76,1.41,6.23,6.23,0,0,1,2.08,4.11c.19,3.41.34,6.81.49,10.22,0,1.31,0,2.62.06,3.93a2.16,2.16,0,0,0,1.88,2.11,98.69,98.69,0,0,0,11.79-.11c2.36-.15,4.71-.28,7.07-.36q9-.3,18.09-.53a179.1,179.1,0,0,1,19.66.59,98.6,98.6,0,0,0,11.78.4,14.18,14.18,0,0,0,3.9-.24,1.85,1.85,0,0,0,1.19-.94,5.76,5.76,0,0,0,.61-1.43c.49-2.84.6-5.74,1.52-8.51,1-3,.87-6.24,2.09-9.19a62.9,62.9,0,0,1,4.08-12.7c.49-1.22,1-2.43,1.62-3.59a10.78,10.78,0,0,0,1.2-5.31Zm290.08,286.39c.1-2.22.29-5.89.43-9.56q.11-3.15,0-6.3a2.49,2.49,0,0,0-.61-1.42,2.62,2.62,0,0,0-1.31-.81,25,25,0,0,0-3.13-.33c-3.67-.21-7.37-.15-11-.66-6.5-.91-13.09-1.07-19.55-2.33a5.16,5.16,0,0,0-.79-.06l-.78,0a2.39,2.39,0,0,0-2.56,2.35c-.3,6.3-.33,12.6-.65,18.9-.17,3.41-.23,6.81-.74,10.2a30.9,30.9,0,0,0-.33,4.71c0,3.95-.39,7.87-.73,11.79-.49,5.5-.81,11-.79,16.53,0,4.72,0,9.45-.12,14.18,0,2.36-.08,4.73-.32,7.08-.66,6.28-.78,12.58-.83,18.88,0,3.68-.1,7.36-.3,11-.31,5.5-.27,11-1,16.51a16.82,16.82,0,0,0-.09,2.36A97.55,97.55,0,0,1,972,544.18c-.29,2.08-.61,4.16-.81,6.25a43.51,43.51,0,0,1-1.13,7,13,13,0,0,0-.19,2.35,2.62,2.62,0,0,0,1.27,1.85,12.93,12.93,0,0,0,2.26.58c5.75.48,11.54.63,17.24,1.68.51.09,1,.1,1.57.14a73.36,73.36,0,0,1,8.59,1.1c1.8.34,3.65.41,5.48.58a2.6,2.6,0,0,0,2.24-1.87c.27-2.87.43-5.76.84-8.62.7-4.94,1.05-9.92,1.48-14.89.48-5.76.91-11.52,1.37-17.28a29.6,29.6,0,0,1,.3-3.13,109.85,109.85,0,0,0,1.18-12.55,62.76,62.76,0,0,1,.5-6.28,98,98,0,0,0,1.08-14.91c.06-3.68.14-7.35.26-11a59.63,59.63,0,0,1,.37-6.28,158.68,158.68,0,0,0,1.16-17.29c.1-3.94.26-7.88.64-11.8.31-3.14.5-6.28.53-9.43C1018.31,426.93,1018.37,423.51,1018.45,418.64ZM923.27,555.25c.43.29.83.76,1.29.84,3.89.6,7.78,1.18,11.69,1.66,2.34.29,4.69.54,7,.94a62.43,62.43,0,0,0,11.74,1,2.53,2.53,0,0,0,1.74-1.37c.72-4.13,1.79-8.21,2-12.43a53.58,53.58,0,0,1,.79-5.46,59.28,59.28,0,0,0,.84-9.4,69.85,69.85,0,0,1,.41-7.08c.64-7.06,1.07-14.14,1.08-21.24,0-7.88,0-15.76,1-23.59a18.56,18.56,0,0,0,.11-2.36c.09-5.78.21-11.56.26-17.33a168.54,168.54,0,0,1,1.17-22,11.84,11.84,0,0,0,.11-1.57c0-6.05.92-12.05.74-18.11a12.33,12.33,0,0,1,.16-2.35,99.58,99.58,0,0,0,.85-15.72,23.25,23.25,0,0,0-.19-2.35,2.59,2.59,0,0,0-1.41-1.71,22.38,22.38,0,0,0-5.46-.63c-2.63-.08-5.24-.19-7.86-.45-6.8-.68-13.63-.8-20.46-.9a2.29,2.29,0,0,0-2.19,1.85c0,.26-.13.51-.14.77-.37,9.19-.63,18.38-.49,27.57a48.06,48.06,0,0,1-.16,7.87,62,62,0,0,0-.44,9.43c0,11-.33,22.06-.49,33.09,0,.79,0,1.58-.12,2.36-.39,4.71-.37,9.44-.75,14.16-.53,6.54-.49,13.12-1.27,19.64-.12,1-.06,2.1-.09,3.15-.15,5-.18,10-.5,15-.24,3.67-.49,7.33-.55,11,0,3.94-.32,7.87-.47,11.8C923.22,552.63,923.27,553.94,923.27,555.25ZM657.36,239c1.51-.12,3.08-.2,4.65-.36a149.13,149.13,0,0,1,15-.65c11,0,22.06-.06,33.08-.11,1.31,0,2.62-.15,3.93-.24a2.56,2.56,0,0,0,1.67-1.46,17.85,17.85,0,0,0,.13-7.8,2.57,2.57,0,0,0-1.66-1.46c-.26,0-.52-.1-.78-.1-8.93-.12-17.85-.28-26.78-.34-4.72,0-9.45.24-14.17.16s-9.45-.39-14.17-.62c-1.57-.08-3.15-.12-4.71-.31a91.88,91.88,0,0,0-10.22-.48c-5.52-.05-11-.21-16.54-.22-7.62,0-15.23-.17-22.85.13q-7.08.27-14.17-.07c-2.62-.13-5.25-.08-7.88-.07a10.5,10.5,0,0,0-1.54.25,2.49,2.49,0,0,0-1.57,1.58c-.67,3.63-.25,7.34-.87,11a36.27,36.27,0,0,0-.37,7.86,60.8,60.8,0,0,1-.19,7.87c-.12,1.57-.15,3.15-.17,4.72-.11,8.93-.16,17.86-.32,26.78-.08,4.73-.15,9.47-.56,14.17-.77,8.9-1.09,17.82-1,26.75q0,3.15.07,6.3a59.34,59.34,0,0,1-.92,12.55,9,9,0,0,0,0,1.56,2.11,2.11,0,0,0,1.42,1.68,51.62,51.62,0,0,0,9.33,1.38c3.41.27,6.77.78,10.15,1.29,5.71.84,11.42,1.76,17.2,2.05a64.4,64.4,0,0,1,10.17,1.08,25,25,0,0,0,3.13.36c5.75.5,11.51,1,17.27,1.47a145.88,145.88,0,0,1,14.89,1.41c1,.18,2.09.16,3.13.25,2.62.25,5.25.37,7.84.78,4.68.75,9.38,1.11,14.1,1.45,1.31.1,2.61.27,3.92.38,3.13.27,6.27.57,9.41.79a107.68,107.68,0,0,1,11.76,1,43.35,43.35,0,0,0,4.71.4c3.4.24,6.81.47,10.18,1a34.5,34.5,0,0,0,3.92.41A148.42,148.42,0,0,1,741.78,365a2.29,2.29,0,0,0,2.44-1.52,40.73,40.73,0,0,0,1.29-7.75,94.27,94.27,0,0,1,1.11-10.18,12.27,12.27,0,0,0,.12-2.35A3.48,3.48,0,0,0,745,339.9c-2.28-1.28-4.6-2.5-6.91-3.74-.61-.33-1.59.32-1.66,1.12-.16,1.82-.26,3.66-.48,5.48a7.5,7.5,0,0,1-6.95,6.38,44.67,44.67,0,0,1-8.65-.11c-2.6-.28-5.22-.48-7.84-.72s-5.24-.41-7.83-.8a73.49,73.49,0,0,0-8.63-.62c-6.3-.21-12.6-.5-18.89-.76-6-.91-12-1.08-18-1.44-1.05-.06-2.1-.14-3.14-.29a131,131,0,0,0-15.7-1.16c-6.59-.11-13.07-1.2-19.6-1.85A76.81,76.81,0,0,0,609,339.77c-1.83-.17-3.63-.61-5.45-.78a20.11,20.11,0,0,1-6.69-2.2,7.11,7.11,0,0,1-4.38-6.84,232,232,0,0,1,1-26.76c.36-4.19.53-8.38.54-12.58,0-3.41.11-6.83.18-10.24.09-3.94.23-7.87.28-11.81.1-6.56.49-13.12.28-19.68a10.7,10.7,0,0,1,6-8.64,5.45,5.45,0,0,1,2.27-.58c5-.08,9.94-.71,14.94-.64,7.35.1,14.7-.06,22.05.1C645.75,239.24,651.52,238.89,657.36,239ZM914.65,446.57c0-4.91-.16-8.34,0-11.74.36-6,.13-12.08.2-18.12,0-.78-.09-1.57-.14-2.36a3.34,3.34,0,0,0-2.6-2.59c-1-.16-2.07-.31-3.11-.43-1.57-.18-3.17-.19-4.7-.52-4.62-1-9.36-1.26-14-2.27-2.8-.61-5.69-.81-8.54-1.16a1.3,1.3,0,0,0-1.25.82,4.83,4.83,0,0,0-.55,2.25c-.26,6.56-.51,13.12-.88,19.68-.29,5.24-.58,10.49-.53,15.74,0,1.31-.15,2.62-.2,3.94-.29,7.34-.67,14.69-.82,22q-.23,10.25-.75,20.46c-.19,3.94-.3,7.87-.35,11.82-.09,8.92-.26,17.85-.44,26.78a25.57,25.57,0,0,1-.43,3.9,47,47,0,0,0-.63,7.85,108,108,0,0,1-1,14.92,24.91,24.91,0,0,0,.12,7.85,3,3,0,0,0,1.93,2.31,15.92,15.92,0,0,0,3,.93c5.18.86,10.33,1.86,15.49,2.81,1,.19,2.07.36,3.12.47,2.87.3,5.74.57,8.61.86a1.83,1.83,0,0,0,1.73-1.27c1.2-4.61,1.41-9.33,1.71-14,.33-5.23.12-10.5,1.11-15.69a24.47,24.47,0,0,0,.2-3.93c0-1.84,0-3.69.13-5.51.55-6,.44-12.07.45-18.11a38.79,38.79,0,0,1,.78-8.6,28.21,28.21,0,0,0,.39-4.7c.45-8.65.35-17.33,1.35-25.95.12-1,.09-2.1.11-3.15C914.37,462.93,914.52,454,914.65,446.57Zm5.9-319.23c.1-6.57.05-13.13.42-19.69,0-.79,0-1.58,0-2.36,0-7.62,0-15.24,0-22.85-.09-7.87-.29-15.75.06-23.62a3.43,3.43,0,0,0-.12-.77c0-.26,0-.58-.19-.73-.37-.36-.81-.88-1.23-.9a182.43,182.43,0,0,0-29.09,1.07,3.29,3.29,0,0,0-2.18,2c-.05.52-.16,1-.16,1.57-.12,8.92-.25,17.85-.34,26.77-.06,5.52-.08,11-.12,16.55q-.12,18.51-.25,37c-.07,8.66.31,17.34-.63,26-.16,7.35-.34,14.69-.48,22a4.25,4.25,0,0,0,.3,1.53.91.91,0,0,0,1.27.4,8.17,8.17,0,0,0,1.88-1.39c1.73-1.61,3.41-3.27,5.14-4.87a9.69,9.69,0,0,1,3.35-2,5.69,5.69,0,0,1,4.59.19,8.18,8.18,0,0,1,2,1.24c3.43,3.25,7.19,6.14,10.48,9.54a27.34,27.34,0,0,0,2.38,2.05,1.33,1.33,0,0,0,.72.29,1.37,1.37,0,0,0,1.32-.58,6.3,6.3,0,0,0,.45-3.08q.1-16.53.2-33.08c0-1.58-.06-3.16.05-4.73.33-5,.2-10,.2-15Q920.56,133.64,920.55,127.34ZM696.83,452.47c0-2.28,0-4.12,0-6a4.36,4.36,0,0,0-2.76-4.32c-1.19-.56-2.32-1.23-3.51-1.79a99.45,99.45,0,0,1-12.4-6.8,33.58,33.58,0,0,0-5.56-2.94,148.36,148.36,0,0,1-16.7-8.78,105.07,105.07,0,0,0-9.67-5.26c-1.19-.54-2.35-1.17-3.48-1.82-3.19-1.84-6.5-3.41-9.84-4.94-2.87-1.3-5.74-2.59-8.56-4s-5.73-2.61-8.65-3.79c-5.1-2.06-10.26-4-15.29-6.22-7-3.08-14-5.94-21.17-8.47-2.47-.88-4.88-1.92-7.33-2.85a21.75,21.75,0,0,0-4.46-1.52,28.75,28.75,0,0,1-6.68-2.26c-2.67-1.09-5.3-2.28-8-3.39-.72-.31-1.48-.5-2.23-.74s-2.42.32-2.59,1.21-.55,1.48-.65,2.25c-.59,4.68-1.16,9.37-1.65,14.06a21.4,21.4,0,0,0,.08,3.92,1.91,1.91,0,0,0,1.33,1.76,56.56,56.56,0,0,1,8.62,3.8c2.34,1.18,4.65,2.43,7.06,3.47,3.13,1.36,6.19,2.84,9.18,4.49a47.55,47.55,0,0,0,5.7,2.65c9,3.54,18.09,7,27.13,10.52.25.1.49.19.74.27,9,2.87,17.8,6.29,26.51,9.92q6.18,2.57,12.29,5.28c6.7,3,13.33,6.14,20.09,9A33.93,33.93,0,0,1,668,451a69.93,69.93,0,0,0,8.57,4c1.46.58,2.88,1.25,4.33,1.86q6.51,2.77,13,5.52a1.56,1.56,0,0,0,1.87-1,8.92,8.92,0,0,0,.53-1.47A39.89,39.89,0,0,0,696.83,452.47ZM901.14,291.12v-.06c-4.46,0-8.92,0-13.37,0a5.52,5.52,0,0,0-1.53.33,1.57,1.57,0,0,0-1.1,1,8.41,8.41,0,0,0-.41,2.28c-.23,9.18-.34,18.36-.65,27.53-.24,7.34.1,14.7-.87,22a23,23,0,0,0-.08,2.35c-.1,4.46-.15,8.92-.3,13.38-.15,4.19-.21,8.4-.68,12.57-.58,5.22-.49,10.47-.86,15.7a19,19,0,0,0,.25,3.91,1.83,1.83,0,0,0,.83,1.27,22.28,22.28,0,0,0,7.55,2,42.11,42.11,0,0,1,6.22,1A28.21,28.21,0,0,0,900,397a36.29,36.29,0,0,1,6.21,1,28.6,28.6,0,0,0,7,.64,2.66,2.66,0,0,0,2.25-1.86,87.22,87.22,0,0,0,.56-9.42c0-12.59,0-25.18,0-37.78,0-8.13.21-16.26.35-24.39a36.91,36.91,0,0,1,.29-3.92,66.45,66.45,0,0,0,.38-7.85c0-3.15.1-6.3.13-9.45s0-6.29,0-9.44A3.83,3.83,0,0,0,917,293a2.27,2.27,0,0,0-1-1.17,6.57,6.57,0,0,0-2.29-.45C909.53,291.25,905.34,291.19,901.14,291.12Zm-173.5-1.28a80.33,80.33,0,0,0,.11,15.46,12.74,12.74,0,0,0,3.15,7.86c1.41,1.56,2.7,3.22,4.08,4.81a25.3,25.3,0,0,0,4.68,4.21A75.49,75.49,0,0,0,757.2,331a54,54,0,0,0,13,3.2c1.3.13,2.58.52,3.88.69a55.32,55.32,0,0,0,13.36.36c3.65-.4,7.24-1.26,10.9-1.61a15.37,15.37,0,0,0,2.29-.58,54.9,54.9,0,0,0,10.88-4.55,63.58,63.58,0,0,0,19.28-14.75,4.16,4.16,0,0,0,.85-1.31,42.09,42.09,0,0,0,2.38-8.3c.21-1.56.38-3.13.69-4.68a94.1,94.1,0,0,0,1.45-11.71c0-.59-.49-.9-1.06-.92a1.88,1.88,0,0,0-1.34.62,42.28,42.28,0,0,1-10.28,7.22c-3.55,1.71-7.12,3.37-10.7,5a24.64,24.64,0,0,1-2.94,1.1,77.37,77.37,0,0,1-16.15,3.4c-2.36.21-4.71.43-7.07.62a30.42,30.42,0,0,1-7.07-.2c-1.3-.2-2.6-.43-3.91-.5a36.81,36.81,0,0,1-10.71-2.44c-1.24-.45-2.48-.87-3.71-1.34a75.35,75.35,0,0,1-19.26-10.58,42.67,42.67,0,0,1-8.8-8.95,28,28,0,0,0-3.32-4.39,1.65,1.65,0,0,0-.73-.23.83.83,0,0,0-1,.81,21.72,21.72,0,0,0-.32,3.11C727.67,283.52,727.67,286.93,727.64,289.84Zm158.12-57.78c0,4.91,0,8.58,0,12.25,0,3.15.06,6.3.1,9.44a2.84,2.84,0,0,0,1.9,2.25,12.83,12.83,0,0,0,6.22-.18,2,2,0,0,0,1-1.08,7.11,7.11,0,0,0,.54-2.27c.16-2.1.15-4.2.34-6.29a7.06,7.06,0,0,1,4.27-6.13,5.21,5.21,0,0,1,4.56,0,6.48,6.48,0,0,1,3.83,4.69,13.89,13.89,0,0,1,.37,3.9c-.13,1.83-.31,3.66-.46,5.49a2.23,2.23,0,0,0,1.73,2.25,19,19,0,0,0,6.25-.14,1.49,1.49,0,0,0,.73-.26,3.32,3.32,0,0,0,1-1.13,7.52,7.52,0,0,0,.41-2.3q.4-15.74.76-31.46c0-.79,0-1.58,0-2.36a4.64,4.64,0,0,0-1.16-2.85,25.4,25.4,0,0,1-2-2.38,33.9,33.9,0,0,0-5.23-5.86l-8.08-7.48c-.38-.36-.81-.66-1.21-1a2.23,2.23,0,0,0-2.87.05,105.56,105.56,0,0,1-8.63,8,29.28,29.28,0,0,0-2.8,2.77,4.47,4.47,0,0,0-1.19,2.83c0,.53-.06,1-.07,1.58C886,220.71,885.85,227,885.76,232.06Zm-335.59-1.4c0,3.54-.13,9.3-.23,15.06-.12,6.28,0,12.56.3,18.84a3.41,3.41,0,0,0,2.19,3c3.34,1.49,6.65,3.05,10.08,4.31.6.22,1.57-.52,1.6-1.26.07-1.57.16-3.14.18-4.7,0-3.67-.06-7.34.09-11s.26-7.32.21-11a52.49,52.49,0,0,1,.6-10.17,26.78,26.78,0,0,0,.31-3.91c.13-3.66.2-7.33.32-11,.19-5.22-.09-10.48,1.16-15.62a7.43,7.43,0,0,0,.15-1.56q.06-6.28.08-12.56a2.3,2.3,0,0,0-1.34-1.75c-4.22-1.4-8.37-3-12.5-4.6a1.72,1.72,0,0,0-1.85,1,103.88,103.88,0,0,0-1.35,14.84Zm353.49,38.53a128.45,128.45,0,0,0-16.71.14,2.63,2.63,0,0,0-1.58,1.57,12.87,12.87,0,0,0-.21,4.67,3,3,0,0,0,2.1,2.06l4.7.14c2.6.09,5.22.09,7.81.31a143.22,143.22,0,0,0,15.64.28,2.39,2.39,0,0,0,2.12-1.91,19.3,19.3,0,0,0,.11-4.68c0-.25-.15-.5-.19-.76a2.23,2.23,0,0,0-1.59-1.5Zm-336-102.8h-.07c.16-2.09.37-4.18.44-6.28,0-.43-.43-.9-.71-1.32a1.56,1.56,0,0,0-.6-.51,66.21,66.21,0,0,0-12.49-4.7,5.73,5.73,0,0,0-1.55-.11c-.18,0-.38.26-.51.45a1.67,1.67,0,0,0-.33.7,51.22,51.22,0,0,0-.56,9.41c.14,1.84.67,3.64,2.64,4.51,3.11,1.38,6.21,2.82,9.34,4.16a10.1,10.1,0,0,0,2.29.45,1.66,1.66,0,0,0,1.68-1.27C567.41,170,567.55,168.22,567.69,166.39ZM569,125c-.08-.8-.22-2.62-.47-4.43a10.84,10.84,0,0,0-.74-2.21,1.71,1.71,0,0,0-1.88-1A50.86,50.86,0,0,0,554.33,122a3,3,0,0,0-1.48,2.61c-.16,2.61-.3,5.21-.68,7.8a5.49,5.49,0,0,0,.11.77,1.71,1.71,0,0,0,1.64,1.34c1.77-.44,3.57-.77,5.29-1.36a42.4,42.4,0,0,1,6.08-1.47c3.24-.6,3.71-1.72,3.69-4.9C569,126.54,569,126.28,569,125ZM561.3,346.84h-.11c.13-1.55.27-3.1.41-4.65.06-.77.11-1.55.16-2.32a1.65,1.65,0,0,0-1.44-1.51,17.1,17.1,0,0,0-7.41,2,3.77,3.77,0,0,0-2.19,3c-.26,2.06-.35,4.13-.46,6.2-.11,1.81-.16,3.62-.22,5.43a1.48,1.48,0,0,0,1.42,1.48l6.17-.74.77-.13a3.18,3.18,0,0,0,2.54-2.58C561.08,351,561.18,348.9,561.3,346.84Z" transform="translate(-527.92 -40.56)"/><path class="cls-1" d="M1109.94,393.81a142.92,142.92,0,0,0-18.81-1.6c-5-.11-10-.25-15-.36a36.08,36.08,0,0,1-5.49-.45,43.84,43.84,0,0,0-4.69-.58c-10-.58-19.87-1.9-29.86-2.06a12.05,12.05,0,0,1-1.56-.25A2.36,2.36,0,0,1,1033,387a13.9,13.9,0,0,1-.18-1.55c.09-1.84.12-3.69.39-5.5a88.19,88.19,0,0,0,.84-12.57c0-10.51.55-21,1.16-31.5.47-8.14.56-16.28.64-24.42.08-7.36.28-14.71.92-22,.22-2.62.23-5.25.28-7.88.14-8.66.22-17.33.39-26,.14-6.57.61-13.12.51-19.69a27.57,27.57,0,0,1,.15-3.15c.7-6.81.82-13.63.87-20.46,0-5,0-10,0-15q.13-16.54.33-33.1a38.84,38.84,0,0,1,.3-5.5,79.48,79.48,0,0,0,.57-10.22q.38-18.91.78-37.82c0-.26,0-.53,0-.79.67-9.43,1.15-18.87,1.13-28.34a25.58,25.58,0,0,1,.37-4.71,60.25,60.25,0,0,0,.78-11.77,8.22,8.22,0,0,1,.28-1.53,3.55,3.55,0,0,1,1.56-1.68c.26,0,.51-.13.77-.16,4.69-.58,9.37-1.24,14.08-1.69,3.39-.32,6.81-.38,10.23-.51a39.78,39.78,0,0,0,7-.75c3.59-.78,7.28-1,10.88-1.8a27.83,27.83,0,0,1,6.26-.53,40.76,40.76,0,0,0,11.68-1.5,7.69,7.69,0,0,1,3.9-.06Z" transform="translate(-527.92 -40.56)"/><path class="cls-1" d="M1109.94,583.05c-5.47-.64-10.91-1.56-16.43-1.82-5.43-1-11-1.18-16.37-2.29-1-.21-2.08-.32-3.12-.44-5.75-.62-11.41-1.76-17.09-2.78q-9.69-1.74-19.32-3.72c-4.88-1-9.82-1.8-14.59-3.28a2.26,2.26,0,0,1-1.38-1.73,38.52,38.52,0,0,1,.52-9.41,68.51,68.51,0,0,0,.87-7.82c.27-3.14.63-6.27.91-9.4.25-2.88.47-5.76.64-8.64a101,101,0,0,1,1.11-11.76,48.48,48.48,0,0,0,.51-6.27c.22-4.2.53-8.38,1.11-12.55.35-2.6.51-5.23.61-7.85.22-5.51.34-11,.52-16.54.06-1.83.08-3.68.3-5.5.77-6.27,1-12.57,1.2-18.86.1-2.63.23-5.24.47-7.86.36-3.92.47-7.86.64-11.8.07-1.57.06-3.15,0-4.72a208.62,208.62,0,0,1,1.35-24.36,2.3,2.3,0,0,1,2.09-1.94c.27,0,.53-.08.79-.08a87.55,87.55,0,0,1,11.79.63c3.91.53,7.84.79,11.77,1a62.27,62.27,0,0,1,8.62.84,54.9,54.9,0,0,0,9.41.68q7.48.11,15,.34c2.1.07,4.2.17,6.28.43,3.92.48,7.84.73,11.78.91Z" transform="translate(-527.92 -40.56)"/><path class="cls-1" d="M720.87,376.06c1.84.13,3.15.23,4.46.31a69.61,69.61,0,0,1,11,1.11c8.1.7,16.21,1.42,24.32,2.1,1.83.15,3.67.18,5.51.24a59.85,59.85,0,0,1,7.06.6c1.81.28,3.65.42,5.48.54a130.8,130.8,0,0,1,14.11,1.36,27.33,27.33,0,0,0,3.14.28,117.18,117.18,0,0,1,12.54,1.2c1,.16,2.09.21,3.14.28,5.23.39,10.49.56,15.68,1.45,1.8.3,3.67.25,5.5.39,3.14.23,6.29.4,9.41.87a96.21,96.21,0,0,0,11,.8A98.82,98.82,0,0,1,866.48,389a2.46,2.46,0,0,1,1.8,2.27,22.9,22.9,0,0,1-.06,2.35c-.65,5-.85,9.94-1,14.93-.22,5.77-.29,11.54-.86,17.3-.49,5-.58,10-.58,14.95,0,8.93-.43,17.85-1.12,26.76-.13,1.57-.14,3.14-.18,4.72-.17,7.35-.12,14.71-.54,22.05-.08,1.31-.09,2.63-.06,3.94.16,6.83-.34,13.65-.36,20.48,0,.26,0,.52,0,.79-.12,2.88-.84,5.71-.68,8.62a62.71,62.71,0,0,1-.33,7.87c-.17,2.62-.17,5.25-.29,7.87,0,1-.22,2.08-.34,3.12-.05.44-1.27,1.34-1.79,1.37a38,38,0,0,1-7.82-.62c-2.07-.32-4.15-.64-6.23-.87a79.78,79.78,0,0,1-8.59-1.13c-6-.45-11.93-1.9-18-2.31-1.31-.09-2.6-.35-3.9-.53l-6.24-.85c-1.82-.24-3.65-.47-5.46-.73-1-.15-2.07-.39-3.11-.5q-9-1-18-1.88c-.78-.08-1.57-.1-2.35-.22-5.19-.8-10.4-1.43-15.61-2.09-2.34-.3-4.67-.65-7-1-1.56-.2-3.15-.23-4.69-.55a69,69,0,0,0-8.59-1c-1.83-.14-3.67-.29-5.48-.59-2.86-.48-5.73-.71-8.61-1-3.65-.36-7.29-.94-10.94-1.3s-7.34-.5-11-1.18a36.26,36.26,0,0,0-3.91-.45,64.08,64.08,0,0,1-9.37-1.12,7,7,0,0,0-.78-.13c-1-.11-2.09-.28-3.14-.32-6.56-.24-13-1.64-19.6-1.73-3.95,0-7.85-.59-11.77-1-3.66-.37-7.32-.64-10.94-1.32-1.55-.29-3.12-.48-4.68-.64-5.75-.6-11.5-1.15-17.24-1.74a26.5,26.5,0,0,1-3.9-.51A52.68,52.68,0,0,0,613,519.73a48.51,48.51,0,0,1-8.55-1.37c-.59-.13-1-.45-1-.82,0-.17.36-.41.6-.46,4.59-1.11,9.16-2.29,13.79-3.25,5.66-1.17,11.25-2.58,16.84-4,1.27-.33,2.55-.61,3.82-.95,3-.79,6.07-1.63,9.07-2.61,9.47-3.12,18.78-6.72,28.23-9.9,4.73-1.59,9.36-3.43,13.93-5.43,3.6-1.58,7.31-2.91,10.93-4.45a7.74,7.74,0,0,0,2.53-1.83,18.15,18.15,0,0,0,3.42-5.25,11.38,11.38,0,0,0,1-3.79c.08-1,.13-2.1.17-3.15a43.76,43.76,0,0,1,.72-7,67.45,67.45,0,0,0,1.16-14.11c0-3.41-.06-6.83-.17-10.24a8.49,8.49,0,0,0-1.17-3.72,10.25,10.25,0,0,0-3.07-3.53,26.46,26.46,0,0,0-2.65-1.7c-1.61-.9-3.23-1.77-4.88-2.57a139.36,139.36,0,0,1-14.48-8,24.86,24.86,0,0,0-4.16-2.23,118.29,118.29,0,0,1-15.39-7.92,139.87,139.87,0,0,0-12.47-6.73c-5.82-3.61-12.2-6.1-18.32-9.1-7.56-3.69-15.36-6.78-23.18-9.86-2.19-.86-4.38-1.77-6.53-2.75-5.5-2.49-11.11-4.69-16.8-6.73-4.2-1.51-8.32-3.23-12.47-4.87a2.6,2.6,0,0,1-1.31-2.61l.93-5.43a2.3,2.3,0,0,1,2.18-1.86c1.83.18,3.65.4,5.48.53a61.87,61.87,0,0,1,10.93,1.36c6.26.67,12.44,2.07,18.77,2.14a27.53,27.53,0,0,1,4.71.37c6.48,1.16,13.06,1.26,19.57,2.11,1.56.2,3.14.24,4.72.34,2.36.15,4.72.21,7.07.44,3.4.34,6.77.87,10.17,1.17a65.77,65.77,0,0,1,9.38,1.11,16.6,16.6,0,0,0,2.34.27c8.91.65,17.76,1.88,26.69,2.24,2.1.08,4.19.33,6.28.53,1.3.13,2.6.36,3.91.46C711,375,716.22,375.13,720.87,376.06Z" transform="translate(-527.92 -40.56)"/><path class="cls-1" d="M981.26,334.2c0-.92.06-2,.15-3,.71-7.85.78-15.73.81-23.6,0-5.52-.08-11,.3-16.54.09-1.31.06-2.64.26-3.93a121.27,121.27,0,0,0,1-18.07c0-6.83,0-13.65.4-20.47.14-2.62.31-5.24.44-7.86.11-2.1.22-4.2.24-6.3,0-4.2,0-8.4.06-12.6.06-4.46.2-8.92.28-13.38.07-3.15.13-6.31.14-9.46,0-5.77,0-11.55,0-17.33,0-5.51.16-11,.2-16.53,0-5,0-10,.05-15q.09-12.21.21-24.42,0-5.11.05-10.24c0-2.89.1-5.77.29-8.65.22-3.14.14-6.3.14-9.45,0-1.31-.26-2.63-.15-3.92a30.34,30.34,0,0,0-.41-7.06,171.27,171.27,0,0,1-.11-17.29c0-.26.17-.5.21-.75.16-.92.93-1.27,1.61-1.58a11.47,11.47,0,0,1,3.85-.76c8.37-.69,16.71-1.68,25.11-2,3.41-.14,6.81-.34,10.2-.82,2.2-.32,3.34.74,3.58,3.09.08.79.18,1.57.19,2.36a14.19,14.19,0,0,1-.13,2.35,109.6,109.6,0,0,0-1,16.49,83.07,83.07,0,0,1-.66,11.79,35.13,35.13,0,0,0-.25,4.71q-.39,19.7-.78,39.38c0,2.09-.21,4.19-.34,6.28-.4,6.29-.71,12.58-.76,18.89-.1,15.23-.29,30.45-.26,45.68a59.7,59.7,0,0,1-.28,7.08c-.48,4.19-.55,8.38-.64,12.58-.15,6.3-.38,12.6-.55,18.9-.07,2.36-.08,4.72-.11,7.08-.1,6.57-.33,13.13-.53,19.69-.36,11.54-1.06,23.08-1,34.64,0,6.3-.25,12.59-.8,18.88-.19,2.09-.23,4.19-.3,6.29-.17,5.25-.31,10.49-.47,15.74,0,1.32-.21,2.63-.17,3.94.29,8.42-.91,16.76-1.34,25.15a13.93,13.93,0,0,1-.26,1.55,2.38,2.38,0,0,1-1.58,1.55,11.88,11.88,0,0,1-1.55.18c-2.36-.06-4.74,0-7.08-.29-7.3-.8-14.65-1.19-21.91-2.42-1.81-.3-3.63-.51-5.45-.77a2.77,2.77,0,0,1-1.53-1.63,11.94,11.94,0,0,1-.23-1.54q.15-13,.33-26c0-1.32,0-2.63.15-3.94.38-4.45.42-8.92.41-13.38Z" transform="translate(-527.92 -40.56)"/><path class="cls-1" d="M873.59,170.19c-.11,15.35-.21,30.85-.35,46.35,0,4.73-.26,9.46-.3,14.18-.07,8.15-.07,16.29-.1,24.44a67.6,67.6,0,0,1-.39,8.65,46,46,0,0,0-.26,5.51c-.17,10.24-.3,20.49-.46,30.73q-.16,11-.39,22.07a19.27,19.27,0,0,1-.18,3.14,63.51,63.51,0,0,0-.57,10.22c-.18,8.4-.41,16.81-.62,25.21a9,9,0,0,1-.09,1.57c-.83,3.88-.55,7.85-1.06,11.75-.1.77-.88,1.57-1.52,1.53-5.77-.32-11.56-.42-17.3-1q-9-.93-18.06-1.51a27.27,27.27,0,0,1-3.13-.37,84.84,84.84,0,0,0-10.19-1c-.53,0-1.06,0-1.58-.08-4.18-.43-8.36-.88-12.54-1.29-3.92-.38-7.88-.37-11.76-1.17a16.59,16.59,0,0,0-2.34-.26c-5.78-.31-11.52-.92-17.27-1.51-2.35-.24-4.72-.22-7.08-.37-2.1-.13-4.19-.33-6.28-.51a2.68,2.68,0,0,1-1.55-1.61A61.54,61.54,0,0,1,759.85,347a1.73,1.73,0,0,1,1.89-.95c2.85.47,5.71.9,8.56,1.4a38.65,38.65,0,0,0,6.26.66c2.89.05,5.78.17,8.67.12a41.19,41.19,0,0,0,6.28-.46c3.11-.52,6.23-.93,9.34-1.43a39.15,39.15,0,0,0,8.29-2.49,85.12,85.12,0,0,0,25.43-15.5c1-.88,2-1.75,2.95-2.62a27.75,27.75,0,0,0,4.6-5.37,11.88,11.88,0,0,0,1.18-2,50.76,50.76,0,0,0,3.2-10.53c1-5.95,1.88-11.93,2.72-17.91.29-2.08.34-4.19.48-6.28.18-2.62.18-5.27.53-7.86a136.67,136.67,0,0,0,1.09-14.14,82.81,82.81,0,0,1,1-13.34,20.49,20.49,0,0,0,.3-3.14,60.83,60.83,0,0,1,1.18-10.16,19.51,19.51,0,0,0,.43-3.12c.28-7.09,1.13-14.15,1.14-21.25,0-3.41-.06-6.83,0-10.24.2-7.9-.49-15.76-.92-23.62a25.57,25.57,0,0,0-.53-3.9c-.9-4.11-1.85-8.2-2.78-12.29A105.09,105.09,0,0,0,848,149.94a35.75,35.75,0,0,0-2.22-5A54.28,54.28,0,0,0,834,129.27a46,46,0,0,0-5.61-4.32,68.26,68.26,0,0,0-21.51-9.52,20.16,20.16,0,0,0-2.3-.53c-4.17-.48-8.34-1-12.53-1.35a33,33,0,0,0-9.41.47,5.29,5.29,0,0,1-.78.13,66.11,66.11,0,0,0-13.18,2.2c-.51.13-1,.15-1.56.23a2.5,2.5,0,0,1-1.84-1.24,15.23,15.23,0,0,1-.46-2.29c-.1-2.88-.22-5.78-.16-8.66.07-3.68.15-7.35-.05-11-.13-2.36,0-4.73,0-7.09A2.83,2.83,0,0,1,767,83.56c1-.11,2.08-.21,3.13-.3,2.09-.18,4.21-.19,6.28-.54a136.37,136.37,0,0,1,14.12-1.27c3.41-.2,6.81-.39,10.2-.87,2.08-.29,4.19-.32,6.29-.45a117.34,117.34,0,0,0,12.56-1.08c.52-.08,1-.14,1.56-.17,7.36-.34,14.66-1.29,22-1.85,3.66-.28,7.34-.4,11-.6,1.58-.09,3.15-.21,4.72-.35a86.83,86.83,0,0,1,14.15-.3,2.18,2.18,0,0,1,1.93,2.07c0,.53.09,1.05.09,1.57-.08,12.35,0,24.7-.29,37.05-.24,12.08-.2,24.17-.28,36.25,0,2.89-.2,5.78-.34,8.66S873.76,167.15,873.59,170.19Z" transform="translate(-527.92 -40.56)"/><path class="cls-1" d="M972.76,140.53c0,4.21,0,8.41,0,12.61,0,6.3,0,12.6-.23,18.9-.14,3.67-.06,7.35-.07,11,0,6.3,0,12.6,0,18.91a82.54,82.54,0,0,1-.54,11,36.82,36.82,0,0,0-.21,3.93c0,1.84,0,3.67,0,5.51.05,10.77-.18,21.53-.49,32.29-.17,5.77-.16,11.55-.27,17.32a66.54,66.54,0,0,1-.34,7.07,207.75,207.75,0,0,0-1.16,22c-.09,3.68,0,7.36,0,11a136.64,136.64,0,0,1-.62,14.16c-.33,3.4-.41,6.81-.45,10.22-.06,5-.22,10-.33,15-.05,2.36-.13,4.73-.1,7.09.1,6.83-.33,13.64-.51,20.46a5.09,5.09,0,0,1-.55,2.26,1.43,1.43,0,0,1-1.19.93,9.54,9.54,0,0,1-2.32.09,67.33,67.33,0,0,0-8.63-.65c-6.3-.18-12.59-.47-18.89-.73a18.38,18.38,0,0,1-4.65-.71,3.23,3.23,0,0,1-2-2.2c0-.53-.1-1.05-.11-1.57,0-2.1-.1-4.2-.1-6.3q0-14.19,0-28.36c0-1,0-2.1.09-3.15.7-10.74.73-21.51,1-32.27,0-.79,0-1.57.05-2.36q.2-15.36.39-30.71a52.85,52.85,0,0,1,.45-7.85,61.9,61.9,0,0,0,.61-9.43q.15-13,.36-26c0-2.37.14-4.73.32-7.08.34-4.46.48-8.91.44-13.38,0-4.2,0-8.4.27-12.6a27.55,27.55,0,0,0,.07-3.15c-.27-8.92.14-17.84.17-26.77,0-6,.11-12.07.17-18.11,0-.79,0-1.58,0-2.36-.31-8.67.11-17.33.11-26,0-3.41,0-6.82.31-10.23.2-2.35.14-4.72.14-7.08q0-14.58-.06-29.14a2.46,2.46,0,0,1,1.71-2.37,36.36,36.36,0,0,1,3.86-.71c2.35-.22,4.72-.32,7.08-.43,1.31-.06,2.62,0,3.93-.07,3.41-.16,6.82-.33,10.2-.83,2.86-.43,5.74-.64,8.61-.91a13.79,13.79,0,0,1,1.56.11,2.18,2.18,0,0,1,1.55,1.53c.1,2.89.23,5.77.26,8.66,0,3.15,0,6.3.29,9.44.16,1.83.14,3.67.14,5.51,0,10,0,20,0,29.93,0,5.51-.22,11-.33,16.53Z" transform="translate(-527.92 -40.56)"/><path class="cls-1" d="M842.38,202.22c-.18,8.12-.34,15.21-.52,22.3a67.5,67.5,0,0,1-.88,8.62c-.75,4.93-1.63,9.85-2.09,14.82a32.85,32.85,0,0,1-1.53,6.91c-1.12,3.5-2.25,7-3.65,10.4a38.65,38.65,0,0,1-10.19,13.85,26.8,26.8,0,0,1-6.55,4.33c-2.61,1.25-5.24,2.44-7.82,3.73a24.14,24.14,0,0,1-4.44,1.62,60.78,60.78,0,0,1-13.88,2.7c-1.05.05-2.11,0-3.15.13-4.22.55-8.39-.12-12.57-.54a13.2,13.2,0,0,1-2.31-.49,83.5,83.5,0,0,1-17.41-7.28,57.8,57.8,0,0,1-8.26-6,9,9,0,0,1-1.13-1.1c-4.45-5.27-8.11-11-9.81-17.78-1.21-4.84-2.43-9.68-3.51-14.55a65.92,65.92,0,0,1-1.39-11.71A2.55,2.55,0,0,1,733,229.8c1.55-.3,3.06-.76,4.6-1.08a34.64,34.64,0,0,0,5.95-2.07,23.55,23.55,0,0,0,6.61-4.22,13.54,13.54,0,0,0,2.91-3.7c.89-1.6,1.62-3.3,2.46-4.94a3.14,3.14,0,0,1,2.57-1.54,8.25,8.25,0,0,1,1.57-.06q9.47.31,18.91.68c1,0,2.08.27,3.12.39a58,58,0,0,0,6.27.67,23.35,23.35,0,0,1,9.8,2.63,11.49,11.49,0,0,1,5.53,5.41,9.88,9.88,0,0,1,.86,6.89,20.46,20.46,0,0,1-3.77,7.74,6.08,6.08,0,0,1-3.18,2.21c-1,.27-2.08.4-3,.76a6.84,6.84,0,0,0-3.6,2.94,6.22,6.22,0,0,0,4.86,9.37,16.46,16.46,0,0,0,8.43-1.56,18.15,18.15,0,0,0,5-3.72,23.85,23.85,0,0,0,4.22-5.67,51.21,51.21,0,0,0,3.72-8.68,14.41,14.41,0,0,0,.37-8.52,23.8,23.8,0,0,0-5.27-12.13,6.35,6.35,0,0,1-1.63-2.65,1.48,1.48,0,0,1,.08-.72,7.86,7.86,0,0,1,2-2.41,20.86,20.86,0,0,0,3.56-5.18,17,17,0,0,0,2-7.55c0-2.63.05-5.26,0-7.88a23.17,23.17,0,0,0-7.24-16.13,15.83,15.83,0,0,0-6-3.7,47.23,47.23,0,0,0-4.55-1.29,7.08,7.08,0,0,0-7.36,3.4,5.78,5.78,0,0,0-.32,5.29,7.38,7.38,0,0,0,4.48,4.15,15,15,0,0,0,2.28.59c2.7.44,4,2.35,4.86,4.65a15.8,15.8,0,0,1,.7,3.06,27.08,27.08,0,0,1,.18,7.08,6.93,6.93,0,0,1-2.43,4.8c-1.22,1-2.5,1.91-3.75,2.87a6.85,6.85,0,0,1-5.15,1.46c-3.13-.34-6.29-.39-9.41-.95a45.07,45.07,0,0,0-6.27-.52c-6.56-.31-13.12-.57-19.68-.87a9.41,9.41,0,0,1-1.54-.33,1.74,1.74,0,0,1-1.23-.89,3.8,3.8,0,0,1-.38-.68c-2-6.92-6.74-11.74-12.31-15.91A54.07,54.07,0,0,0,734,176a2.63,2.63,0,0,1-.81-2.1c.68-2.8,1.29-5.62,2.09-8.39a70.44,70.44,0,0,1,4.42-10.95c3.16-6.52,3.15-6.52,7.43-12a16.05,16.05,0,0,1,4-3.74A103.66,103.66,0,0,1,771,129.2c3.57-.85,7.07-2,10.81-2.07a31.12,31.12,0,0,0,4.69-.57,17.43,17.43,0,0,1,5.49,0,53.42,53.42,0,0,0,5.48.62,42,42,0,0,1,17.3,4.92c2.57,1.29,5,2.83,7.47,4.37a25.2,25.2,0,0,1,7.35,7c.9,1.29,1.88,2.54,2.72,3.87a37.78,37.78,0,0,1,3.52,7,132,132,0,0,1,4.42,15.93c.24,1,.29,2.1.59,3.1A31.79,31.79,0,0,1,842,182C842.14,189.05,842.26,196.15,842.38,202.22ZM805.85,149a6.72,6.72,0,0,0,5.61,6.59,6.29,6.29,0,0,0,6.92-5.93,6.55,6.55,0,0,0-5.54-6.59A6.45,6.45,0,0,0,805.85,149Zm-41.08,8.22a6.14,6.14,0,0,0,4.35-10.55,7.17,7.17,0,0,0-2.67-1.53,5.38,5.38,0,0,0-2.29-.16,6.32,6.32,0,0,0-4,2.22c-1.93,2.42-2.61,5.25.37,8.33A5.46,5.46,0,0,0,764.77,157.26Zm21.42-11.68c3.3-.19,5.93-2.29,6.13-5.86a6,6,0,0,0-5.8-6.13,6.12,6.12,0,0,0-6.13,5.8C780.33,142.92,782.94,145.17,786.19,145.58Zm-12.8,131.84a5.88,5.88,0,0,0,5.8,6,6,6,0,0,0,6-5.85c0-3.78-2.71-5.69-5.79-6.13A6.12,6.12,0,0,0,773.39,277.42Zm27.2-6.63a5.82,5.82,0,1,0,11.6.87c.14-3.08-1.3-5.76-5.38-6.38C803.77,264.81,800.8,267.49,800.59,270.79Zm-45.27-7.06a8.35,8.35,0,0,0,.33,1.5,6,6,0,0,0,7.47,3.87c2.84-.73,5.44-4.66,3.65-8.08a6,6,0,0,0-6.43-3.26c-.25,0-.51.09-.76.15A6,6,0,0,0,755.32,263.73Z" transform="translate(-527.92 -40.56)"/><path class="cls-2" d="M540.9,488c.09-7.34.17-14.69.28-22a43.46,43.46,0,0,1,.28-4.71,62.42,62.42,0,0,0,.51-8.64,130.62,130.62,0,0,1,.63-14.93c0-6.84,1.31-13.57,1.78-20.37a6.18,6.18,0,0,1,.87-3,1.23,1.23,0,0,1,1.3-.58,2.83,2.83,0,0,1,.75.23c6.3,3.22,12.8,6,19.06,9.34a60.28,60.28,0,0,0,5.72,2.63c4.86,1.95,9.67,4.06,14.64,5.73,1.49.5,3,1.07,4.42,1.67,4.85,2,9.78,3.76,14.73,5.49,10.69,3.72,21.37,8.06,32.15,12.78,7.44,3.26,14.71,6.92,22.25,10a5.1,5.1,0,0,1,.73.3c6.36,3.74,13.38,6,20,9.09,2.62,1.21,5.27,2.35,7.9,3.52a1.81,1.81,0,0,1,1,1.1c.24.67-.16,1.26-1.21,1.72-8.15,3.63-16.5,6.74-25,9.57-2.48.83-4.92,1.79-7.4,2.65-5,1.73-9.89,3.48-14.87,5.1a36.68,36.68,0,0,1-6.84,1.81c-9.85,2.78-19.87,4.83-29.83,7.09-6.14,1.4-12.31,2.63-18.41,4.16s-12.19,3.13-18.25,4.78c-4.07,1.11-8.25,1.53-12.32,2.54a121.82,121.82,0,0,0-12.46,1.68,2.42,2.42,0,0,1-1.85-1.23,10.38,10.38,0,0,1-.37-1.51c-.15-2.62-.32-5.24-.34-7.86,0-6,0-12.07,0-18.1Z" transform="translate(-527.92 -40.56)"/><path class="cls-3" d="M639.11,252l24.41-.46a19.33,19.33,0,0,0,3.14-.19,63.27,63.27,0,0,1,11-.53q16.53,0,33.07,0a7.7,7.7,0,0,1,3.1.43,2.5,2.5,0,0,1,1.08,1.08,3.39,3.39,0,0,1,.36,1.51c.13,6.56.34,13.12-.42,19.67a53,53,0,0,0-.3,5.5c-.08,6.56-.09,13.12-.16,19.69a116.81,116.81,0,0,0,1.11,14.11,6.6,6.6,0,0,0,1.18,2.89,36.33,36.33,0,0,0,5.72,6.47,9.08,9.08,0,0,1,2,2.4,1.53,1.53,0,0,1,.21.76c-.39,2.85-.8,5.69-1.22,8.54a2.17,2.17,0,0,1-1.55,1.56,55.52,55.52,0,0,1-12.56-.41,70.27,70.27,0,0,0-11.75-.94c-7.62-.14-15.22-.54-22.8-1.31-1.56-.16-3.14-.26-4.71-.35-5-.27-9.95-.47-14.9-1.2-3.36-.49-6.81-.41-10.21-.61-2.1-.13-4.19-.29-6.28-.46a2.71,2.71,0,0,1-2-2.12q0-1.57,0-3.15c0-4.46,0-8.92-.06-13.38a7.46,7.46,0,0,0-.18-1.56,7.79,7.79,0,0,0-4.58-6,21.43,21.43,0,0,0-5.24-1.65,64.38,64.38,0,0,0-11.76-1,25.23,25.23,0,0,1-5.49-.23,2.79,2.79,0,0,1-2.53-2.52c.08-6.56-.1-13.12.25-19.68.15-2.88.17-5.77.2-8.66a57.15,57.15,0,0,1,.6-10.2,43.56,43.56,0,0,0,.3-5.5,2.91,2.91,0,0,1,2.66-2.45c.26,0,.52-.09.78-.09,3.41-.06,6.82-.14,10.24-.16,5.77,0,11.54,0,17.32,0Z" transform="translate(-527.92 -40.56)"/><path class="cls-1" d="M638.53,199.88l26-.49a20.61,20.61,0,0,0,2.36-.13c7.59-1.07,15.22-.51,22.83-.63a20.73,20.73,0,0,1,2.36.12c7.32.77,14.68,1,22,1,.25,0,.51.08.77.1a2,2,0,0,1,2,2c-.2,1.83-.48,3.65-.59,5.47-.09,1.57,0,3.14,0,4.71a2.2,2.2,0,0,1-1.51,1.61,13.8,13.8,0,0,1-1.56.18c-6.31,0-12.62,0-18.92-.15-5-.14-10-.16-15,0a81.68,81.68,0,0,1-14.16-.43c-1.3-.18-2.62-.25-3.93-.3-7.61-.29-15.22-.67-22.85-.64-5.52,0-11-.08-16.55-.11-6.57,0-13.14-.14-19.71.1-6.83.25-13.65-.22-20.48-.38a2.89,2.89,0,0,1-2.49-2.6,47,47,0,0,1,.13-7.87,173.59,173.59,0,0,0,.86-18.09c.07-5.52,0-11,.23-16.55.19-5,.08-10,.11-15a80.25,80.25,0,0,1,.65-12.58,30.85,30.85,0,0,0,.22-4.72c0-2.89,0-5.78-.06-8.67a157.11,157.11,0,0,1,.78-21.25c.14-1.3.22-2.61.33-3.92a2.59,2.59,0,0,1,1.57-1.6c.51-.07,1-.27,1.53-.29,1.31-.07,2.63-.12,3.94-.1a98.43,98.43,0,0,0,14.15-.81c1-.13,2.09-.24,3.14-.31,8.66-.53,17.24-1.74,25.82-3,6-.84,12-1.58,18-1.87,4.47-.22,8.91-.55,13.34-1.18,2.6-.37,5.24-.43,7.86-.61,2.88-.19,5.78-.24,8.64-.58,5.23-.64,10.48-.84,15.73-1a128.9,128.9,0,0,0,15.71-1.09,5.16,5.16,0,0,1,.79-.07c8.68-.13,17.26-1.58,25.92-2,3.16-.16,6.23-.94,9.38-1.09a7.18,7.18,0,0,1,2.32.21,2.12,2.12,0,0,1,1.09,1,3.69,3.69,0,0,1,.28,1.53c.11,3.15.19,6.3.28,9.45,0,.53.06,1.06,0,1.58-.42,7.1,0,14.18.21,21.27a11.84,11.84,0,0,1-.11,1.57,2.57,2.57,0,0,1-1.11,2c-2.45,1.53-5,3-7.44,4.43a1.48,1.48,0,0,1-2.22-1.26c0-1-.13-2.09-.14-3.14,0-2.63,0-5.26,0-7.89-.05-1.83-.15-3.67-.34-5.5a7,7,0,0,0-2.52-4.77c-4.16-3.48-4.54-3.85-10-3.57a28.34,28.34,0,0,0-4.7.45c-4.89,1.1-9.9,1.24-14.82,2.08A37.19,37.19,0,0,1,704,105c-4.47.18-8.85,1.18-13.31,1.47a114.55,114.55,0,0,0-12.54,1.28,13.54,13.54,0,0,1-1.56.18A161.31,161.31,0,0,0,660.21,110c-3.63.55-7.21,1.41-10.87,1.87-4.69.58-9.33,1.48-14,2.19a36.57,36.57,0,0,1-3.92.34c-2.62.11-5.25.16-7.88.27-1.31,0-2.62.11-3.92.28-3.65.45-7.31.85-10.93,1.47a11.44,11.44,0,0,0-6.74,3.8,6.23,6.23,0,0,0-1.58,3.54c-.14,1.3-.06,2.62-.16,3.93-.14,1.83-.3,3.67-.55,5.49a55.79,55.79,0,0,0-.51,7.86c0,4.46,0,8.93-.38,13.39a46.41,46.41,0,0,0-.08,4.72q.27,10.65-.09,21.28a60.44,60.44,0,0,0,.45,11,8.08,8.08,0,0,0,5.74,6.86,18.71,18.71,0,0,0,5.38,1.13c1.58.06,3.15.17,4.73.21,4.46.11,8.93.25,13.39.28,3.41,0,6.83-.12,10.24-.18Z" transform="translate(-527.92 -40.56)"/><path class="cls-3" d="M728.37,132.25l.27,12.59a10.78,10.78,0,0,1-1.2,5.31c-.6,1.16-1.13,2.37-1.62,3.59a62.9,62.9,0,0,0-4.08,12.7c-1.22,2.95-1.09,6.2-2.09,9.19-.92,2.77-1,5.67-1.52,8.51a5.76,5.76,0,0,1-.61,1.43,1.85,1.85,0,0,1-1.19.94,14.18,14.18,0,0,1-3.9.24,98.6,98.6,0,0,1-11.78-.4,179.1,179.1,0,0,0-19.66-.59q-9,.24-18.09.53c-2.36.08-4.71.21-7.07.36a98.69,98.69,0,0,1-11.79.11,2.16,2.16,0,0,1-1.88-2.11c0-1.31,0-2.62-.06-3.93-.15-3.41-.3-6.81-.49-10.22a6.23,6.23,0,0,0-2.08-4.11,5,5,0,0,0-2.76-1.41,26.92,26.92,0,0,0-3.91-.34c-4.46,0-8.92.09-13.38.1a32,32,0,0,1-6.27-.17,2.14,2.14,0,0,1-1.18-.95,3.6,3.6,0,0,1-.41-1.5,44,44,0,0,1-.06-7.08c.16-3.14.38-6.29.33-9.43a103.78,103.78,0,0,1,1.15-14.1,2.81,2.81,0,0,1,2.35-2.73,70.43,70.43,0,0,1,14.84-1.49,40.42,40.42,0,0,0,10.16-1c3.58-.84,7.32-.64,10.88-1.67,6-.74,11.88-2.08,17.85-2.93,1-.14,2.07-.35,3.11-.44a145.05,145.05,0,0,0,14.85-1.67A114.13,114.13,0,0,0,702.73,118c7.87-.35,15.62-1.8,23.43-2.66a1.14,1.14,0,0,1,.76.14c.4.29.91.62,1.05,1a7.51,7.51,0,0,1,.31,2.32c0,4.46,0,8.92,0,13.38Z" transform="translate(-527.92 -40.56)"/><path class="cls-1" d="M1018.45,418.64c-.08,4.87-.14,8.29-.18,11.7,0,3.15-.22,6.29-.53,9.43-.38,3.92-.54,7.86-.64,11.8a158.68,158.68,0,0,1-1.16,17.29,59.63,59.63,0,0,0-.37,6.28c-.12,3.68-.2,7.35-.26,11a98,98,0,0,1-1.08,14.91,62.76,62.76,0,0,0-.5,6.28,109.85,109.85,0,0,1-1.18,12.55,29.6,29.6,0,0,0-.3,3.13c-.46,5.76-.89,11.52-1.37,17.28-.43,5-.78,9.95-1.48,14.89-.41,2.86-.57,5.75-.84,8.62a2.6,2.6,0,0,1-2.24,1.87c-1.83-.17-3.68-.24-5.48-.58a73.36,73.36,0,0,0-8.59-1.1c-.53,0-1.06,0-1.57-.14-5.7-1-11.49-1.2-17.24-1.68a12.93,12.93,0,0,1-2.26-.58,2.62,2.62,0,0,1-1.27-1.85,13,13,0,0,1,.19-2.35,43.51,43.51,0,0,0,1.13-7c.2-2.09.52-4.17.81-6.25a97.55,97.55,0,0,0,1.24-12.53,16.82,16.82,0,0,1,.09-2.36c.75-5.48.71-11,1-16.51.2-3.67.27-7.35.3-11,0-6.3.17-12.6.83-18.88.24-2.35.28-4.72.32-7.08.08-4.73.13-9.46.12-14.18,0-5.53.3-11,.79-16.53.34-3.92.74-7.84.73-11.79a30.9,30.9,0,0,1,.33-4.71c.51-3.39.57-6.79.74-10.2.32-6.3.35-12.6.65-18.9a2.39,2.39,0,0,1,2.56-2.35l.78,0a5.16,5.16,0,0,1,.79.06c6.46,1.26,13,1.42,19.55,2.33,3.63.51,7.33.45,11,.66a25,25,0,0,1,3.13.33,2.62,2.62,0,0,1,1.31.81,2.49,2.49,0,0,1,.61,1.42q.06,3.15,0,6.3C1018.74,412.75,1018.55,416.42,1018.45,418.64Z" transform="translate(-527.92 -40.56)"/><path class="cls-1" d="M923.27,555.25c0-1.31,0-2.62,0-3.93.15-3.93.42-7.86.47-11.8.06-3.68.31-7.34.55-11,.32-5,.35-10,.5-15,0-1,0-2.11.09-3.15.78-6.52.74-13.1,1.27-19.64.38-4.72.36-9.45.75-14.16.07-.78.11-1.57.12-2.36.16-11,.51-22.05.49-33.09a62,62,0,0,1,.44-9.43,48.06,48.06,0,0,0,.16-7.87c-.14-9.19.12-18.38.49-27.57,0-.26.11-.51.14-.77a2.29,2.29,0,0,1,2.19-1.85c6.83.1,13.66.22,20.46.9,2.62.26,5.23.37,7.86.45a22.38,22.38,0,0,1,5.46.63,2.59,2.59,0,0,1,1.41,1.71,23.25,23.25,0,0,1,.19,2.35,99.58,99.58,0,0,1-.85,15.72,12.33,12.33,0,0,0-.16,2.35c.18,6.06-.74,12.06-.74,18.11a11.84,11.84,0,0,1-.11,1.57,168.54,168.54,0,0,0-1.17,22c0,5.77-.17,11.55-.26,17.33a18.56,18.56,0,0,1-.11,2.36c-1.06,7.83-1,15.71-1,23.59,0,7.1-.44,14.18-1.08,21.24a69.85,69.85,0,0,0-.41,7.08,59.28,59.28,0,0,1-.84,9.4,53.58,53.58,0,0,0-.79,5.46c-.2,4.22-1.27,8.3-2,12.43a2.53,2.53,0,0,1-1.74,1.37,62.43,62.43,0,0,1-11.74-1c-2.33-.4-4.68-.65-7-.94-3.91-.48-7.8-1.06-11.69-1.66C924.1,556,923.7,555.54,923.27,555.25Z" transform="translate(-527.92 -40.56)"/><path class="cls-1" d="M657.36,239c-5.84-.1-11.61.25-17.39.13-7.35-.16-14.7,0-22.05-.1-5-.07-10,.56-14.94.64a5.45,5.45,0,0,0-2.27.58,10.7,10.7,0,0,0-6,8.64c.21,6.56-.18,13.12-.28,19.68,0,3.94-.19,7.87-.28,11.81-.07,3.41-.16,6.83-.18,10.24,0,4.2-.18,8.39-.54,12.58a232,232,0,0,0-1,26.76,7.11,7.11,0,0,0,4.38,6.84,20.11,20.11,0,0,0,6.69,2.2c1.82.17,3.62.61,5.45.78a76.81,76.81,0,0,1,11.69,1.62c6.53.65,13,1.74,19.6,1.85a131,131,0,0,1,15.7,1.16c1,.15,2.09.23,3.14.29,6,.36,12.06.53,18,1.44,6.29.26,12.59.55,18.89.76a73.49,73.49,0,0,1,8.63.62c2.59.39,5.22.55,7.83.8s5.24.44,7.84.72a44.67,44.67,0,0,0,8.65.11,7.5,7.5,0,0,0,6.95-6.38c.22-1.82.32-3.66.48-5.48.07-.8,1.05-1.45,1.66-1.12,2.31,1.24,4.63,2.46,6.91,3.74a3.48,3.48,0,0,1,1.77,3.28,12.27,12.27,0,0,1-.12,2.35,94.27,94.27,0,0,0-1.11,10.18,40.73,40.73,0,0,1-1.29,7.75,2.29,2.29,0,0,1-2.44,1.52,148.42,148.42,0,0,0-14.89-1.37,34.5,34.5,0,0,1-3.92-.41c-3.37-.56-6.78-.79-10.18-1a43.35,43.35,0,0,1-4.71-.4,107.68,107.68,0,0,0-11.76-1c-3.14-.22-6.28-.52-9.41-.79-1.31-.11-2.61-.28-3.92-.38-4.72-.34-9.42-.7-14.1-1.45-2.59-.41-5.22-.53-7.84-.78-1-.09-2.11-.07-3.13-.25A145.88,145.88,0,0,0,643,355.66c-5.76-.43-11.52-1-17.27-1.47a25,25,0,0,1-3.13-.36,64.4,64.4,0,0,0-10.17-1.08c-5.78-.29-11.49-1.21-17.2-2.05-3.38-.51-6.74-1-10.15-1.29a51.62,51.62,0,0,1-9.33-1.38,2.11,2.11,0,0,1-1.42-1.68,9,9,0,0,1,0-1.56,59.34,59.34,0,0,0,.92-12.55q0-3.15-.07-6.3c-.06-8.93.26-17.85,1-26.75.41-4.7.48-9.44.56-14.17.16-8.92.21-17.85.32-26.78,0-1.57,0-3.15.17-4.72a60.8,60.8,0,0,0,.19-7.87,36.27,36.27,0,0,1,.37-7.86c.62-3.63.2-7.34.87-11a2.49,2.49,0,0,1,1.57-1.58,10.5,10.5,0,0,1,1.54-.25c2.63,0,5.26-.06,7.88.07q7.08.33,14.17.07c7.62-.3,15.23-.15,22.85-.13,5.51,0,11,.17,16.54.22a91.88,91.88,0,0,1,10.22.48c1.56.19,3.14.23,4.71.31,4.72.23,9.44.55,14.17.62s9.45-.19,14.17-.16c8.93.06,17.85.22,26.78.34.26,0,.52.08.78.1a2.57,2.57,0,0,1,1.66,1.46,17.85,17.85,0,0,1-.13,7.8,2.56,2.56,0,0,1-1.67,1.46c-1.31.09-2.62.23-3.93.24-11,0-22,.11-33.08.11a149.13,149.13,0,0,0-15,.65C660.44,238.79,658.87,238.87,657.36,239Z" transform="translate(-527.92 -40.56)"/><path class="cls-4" d="M914.65,446.57c-.13,7.43-.28,16.36-.44,25.28,0,1,0,2.11-.11,3.15-1,8.62-.9,17.3-1.35,25.95a28.21,28.21,0,0,1-.39,4.7,38.79,38.79,0,0,0-.78,8.6c0,6,.1,12.08-.45,18.11-.16,1.82-.08,3.67-.13,5.51a24.47,24.47,0,0,1-.2,3.93c-1,5.19-.78,10.46-1.11,15.69-.3,4.72-.51,9.44-1.71,14a1.83,1.83,0,0,1-1.73,1.27c-2.87-.29-5.74-.56-8.61-.86-1-.11-2.09-.28-3.12-.47-5.16-1-10.31-2-15.49-2.81a15.92,15.92,0,0,1-3-.93,3,3,0,0,1-1.93-2.31,24.91,24.91,0,0,1-.12-7.85,108,108,0,0,0,1-14.92,47,47,0,0,1,.63-7.85,25.57,25.57,0,0,0,.43-3.9c.18-8.93.35-17.86.44-26.78,0-3.95.16-7.88.35-11.82q.51-10.21.75-20.46c.15-7.35.53-14.7.82-22,.05-1.32.21-2.63.2-3.94-.05-5.25.24-10.5.53-15.74.37-6.56.62-13.12.88-19.68a4.83,4.83,0,0,1,.55-2.25,1.3,1.3,0,0,1,1.25-.82c2.85.35,5.74.55,8.54,1.16,4.63,1,9.37,1.27,14,2.27,1.53.33,3.13.34,4.7.52,1,.12,2.08.27,3.11.43a3.34,3.34,0,0,1,2.6,2.59c0,.79.14,1.58.14,2.36-.07,6,.16,12.08-.2,18.12C914.49,438.23,914.65,441.66,914.65,446.57ZM897,440.16a6.42,6.42,0,0,0-4.79,2.28,5.83,5.83,0,0,0-1.36,3.57,6.07,6.07,0,0,0,4.28,5.89,5.75,5.75,0,0,0,7.09-3.32,7.05,7.05,0,0,0,.49-1.47,4.22,4.22,0,0,0,.09-1.54,6.58,6.58,0,0,0-1.67-3.46A6.48,6.48,0,0,0,897,440.16ZM891.62,511a7.48,7.48,0,0,0-4.1,2,5.79,5.79,0,0,0-1,6.52,5.94,5.94,0,0,0,5.64,3.46,5.87,5.87,0,0,0,5.27-4c.07-.24.17-.49.25-.73a4.63,4.63,0,0,0-.15-3,6.32,6.32,0,0,0-5.13-4.23A5.16,5.16,0,0,0,891.62,511Zm-2.41-27.74a6,6,0,1,0,5.94-6A6.1,6.1,0,0,0,889.21,483.3Z" transform="translate(-527.92 -40.56)"/><path class="cls-4" d="M920.55,127.34q0,6.3,0,12.6c0,5,.13,10-.2,15-.11,1.57,0,3.15-.05,4.73q-.1,16.55-.2,33.08a6.3,6.3,0,0,1-.45,3.08,1.37,1.37,0,0,1-1.32.58,1.33,1.33,0,0,1-.72-.29,27.34,27.34,0,0,1-2.38-2.05c-3.29-3.4-7.05-6.29-10.48-9.54a8.18,8.18,0,0,0-2-1.24,5.69,5.69,0,0,0-4.59-.19,9.69,9.69,0,0,0-3.35,2c-1.73,1.6-3.41,3.26-5.14,4.87a8.17,8.17,0,0,1-1.88,1.39.91.91,0,0,1-1.27-.4,4.25,4.25,0,0,1-.3-1.53c.14-7.35.32-14.69.48-22,.94-8.64.56-17.32.63-26q.15-18.51.25-37c0-5.52.06-11,.12-16.55.09-8.92.22-17.85.34-26.77,0-.53.11-1.05.16-1.57a3.29,3.29,0,0,1,2.18-2,182.43,182.43,0,0,1,29.09-1.07c.42,0,.86.54,1.23.9.15.15.14.47.19.73a3.43,3.43,0,0,1,.12.77c-.35,7.87-.15,15.75-.06,23.62.09,7.61,0,15.23,0,22.85,0,.78,0,1.57,0,2.36C920.6,114.21,920.65,120.77,920.55,127.34Z" transform="translate(-527.92 -40.56)"/><path class="cls-2" d="M696.83,452.47a39.89,39.89,0,0,1-.54,7.39,8.92,8.92,0,0,1-.53,1.47,1.56,1.56,0,0,1-1.87,1q-6.51-2.74-13-5.52c-1.45-.61-2.87-1.28-4.33-1.86a69.93,69.93,0,0,1-8.57-4,33.93,33.93,0,0,0-3.53-1.73c-6.76-2.86-13.39-6-20.09-9q-6.12-2.72-12.29-5.28c-8.71-3.63-17.51-7-26.51-9.92-.25-.08-.49-.17-.74-.27-9-3.5-18.1-7-27.13-10.52a47.55,47.55,0,0,1-5.7-2.65c-3-1.65-6.05-3.13-9.18-4.49-2.41-1-4.72-2.29-7.06-3.47a56.56,56.56,0,0,0-8.62-3.8,1.91,1.91,0,0,1-1.33-1.76,21.4,21.4,0,0,1-.08-3.92c.49-4.69,1.06-9.38,1.65-14.06.1-.77.49-1.49.65-2.25s1.73-1.49,2.59-1.21,1.51.43,2.23.74c2.66,1.11,5.29,2.3,8,3.39a28.75,28.75,0,0,0,6.68,2.26,21.75,21.75,0,0,1,4.46,1.52c2.45.93,4.86,2,7.33,2.85,7.17,2.53,14.21,5.39,21.17,8.47,5,2.23,10.19,4.16,15.29,6.22,2.92,1.18,5.82,2.4,8.65,3.79s5.69,2.68,8.56,4c3.34,1.53,6.65,3.1,9.84,4.94,1.13.65,2.29,1.28,3.48,1.82a105.07,105.07,0,0,1,9.67,5.26,148.36,148.36,0,0,0,16.7,8.78,33.58,33.58,0,0,1,5.56,2.94,99.45,99.45,0,0,0,12.4,6.8c1.19.56,2.32,1.23,3.51,1.79a4.36,4.36,0,0,1,2.76,4.32C696.79,448.35,696.83,450.19,696.83,452.47Z" transform="translate(-527.92 -40.56)"/><path class="cls-4" d="M901.14,291.12c4.2.07,8.39.13,12.59.24a6.57,6.57,0,0,1,2.29.45,2.27,2.27,0,0,1,1,1.17,3.83,3.83,0,0,1,.28,1.54q0,4.73,0,9.44c0,3.15-.11,6.3-.13,9.45a66.45,66.45,0,0,1-.38,7.85,36.91,36.91,0,0,0-.29,3.92c-.14,8.13-.31,16.26-.35,24.39-.06,12.6,0,25.19,0,37.78a87.22,87.22,0,0,1-.56,9.42,2.66,2.66,0,0,1-2.25,1.86,28.6,28.6,0,0,1-7-.64,36.29,36.29,0,0,0-6.21-1,28.21,28.21,0,0,1-3.88-.61,42.11,42.11,0,0,0-6.22-1,22.28,22.28,0,0,1-7.55-2,1.83,1.83,0,0,1-.83-1.27,19,19,0,0,1-.25-3.91c.37-5.23.28-10.48.86-15.7.47-4.17.53-8.38.68-12.57.15-4.46.2-8.92.3-13.38a23,23,0,0,1,.08-2.35c1-7.31.63-14.67.87-22,.31-9.17.42-18.35.65-27.53a8.41,8.41,0,0,1,.41-2.28,1.57,1.57,0,0,1,1.1-1,5.52,5.52,0,0,1,1.53-.33c4.45,0,8.91,0,13.37,0Zm-8.68,78a12,12,0,0,0,.64,1.89,6.41,6.41,0,0,0,5,3.37,2.28,2.28,0,0,0,.78,0,6.37,6.37,0,0,0,5.58-5.67,2.27,2.27,0,0,0,0-.78,7,7,0,0,0-1.61-3.5,5.62,5.62,0,0,0-5.62-1.91A6.23,6.23,0,0,0,892.46,369.14Zm12.59-42.92a5.87,5.87,0,0,0-5.16-6.53,5.73,5.73,0,0,0-6.45,5.21c-.39,3.51,2.49,6.86,5.92,6.63A5.75,5.75,0,0,0,905.05,326.22Z" transform="translate(-527.92 -40.56)"/><path class="cls-1" d="M727.64,289.84c0-2.91,0-6.32.09-9.74a21.72,21.72,0,0,1,.32-3.11.83.83,0,0,1,1-.81,1.65,1.65,0,0,1,.73.23,28,28,0,0,1,3.32,4.39,42.67,42.67,0,0,0,8.8,8.95,75.35,75.35,0,0,0,19.26,10.58c1.23.47,2.47.89,3.71,1.34a36.81,36.81,0,0,0,10.71,2.44c1.31.07,2.61.3,3.91.5a30.42,30.42,0,0,0,7.07.2c2.36-.19,4.71-.41,7.07-.62a77.37,77.37,0,0,0,16.15-3.4,24.64,24.64,0,0,0,2.94-1.1c3.58-1.65,7.15-3.31,10.7-5a42.28,42.28,0,0,0,10.28-7.22,1.88,1.88,0,0,1,1.34-.62c.57,0,1.11.33,1.06.92a94.1,94.1,0,0,1-1.45,11.71c-.31,1.55-.48,3.12-.69,4.68a42.09,42.09,0,0,1-2.38,8.3,4.16,4.16,0,0,1-.85,1.31,63.58,63.58,0,0,1-19.28,14.75,54.9,54.9,0,0,1-10.88,4.55,15.37,15.37,0,0,1-2.29.58c-3.66.35-7.25,1.21-10.9,1.61a55.32,55.32,0,0,1-13.36-.36c-1.3-.17-2.58-.56-3.88-.69a54,54,0,0,1-13-3.2,75.49,75.49,0,0,1-17.54-8.81A25.3,25.3,0,0,1,735,318c-1.38-1.59-2.67-3.25-4.08-4.81a12.74,12.74,0,0,1-3.15-7.86A80.33,80.33,0,0,1,727.64,289.84Z" transform="translate(-527.92 -40.56)"/><path class="cls-4" d="M885.76,232.06c.09-5.06.2-11.35.32-17.64,0-.53,0-1,.07-1.58a4.47,4.47,0,0,1,1.19-2.83,29.28,29.28,0,0,1,2.8-2.77,105.56,105.56,0,0,0,8.63-8,2.23,2.23,0,0,1,2.87-.05c.4.34.83.64,1.21,1l8.08,7.48a33.9,33.9,0,0,1,5.23,5.86,25.4,25.4,0,0,0,2,2.38,4.64,4.64,0,0,1,1.16,2.85c0,.78,0,1.57,0,2.36q-.37,15.72-.76,31.46a7.52,7.52,0,0,1-.41,2.3,3.32,3.32,0,0,1-1,1.13,1.49,1.49,0,0,1-.73.26,19,19,0,0,1-6.25.14,2.23,2.23,0,0,1-1.73-2.25c.15-1.83.33-3.66.46-5.49a13.89,13.89,0,0,0-.37-3.9,6.48,6.48,0,0,0-3.83-4.69,5.21,5.21,0,0,0-4.56,0,7.06,7.06,0,0,0-4.27,6.13c-.19,2.09-.18,4.19-.34,6.29a7.11,7.11,0,0,1-.54,2.27,2,2,0,0,1-1,1.08,12.83,12.83,0,0,1-6.22.18,2.84,2.84,0,0,1-1.9-2.25c0-3.14-.08-6.29-.1-9.44C885.75,240.64,885.76,237,885.76,232.06Z" transform="translate(-527.92 -40.56)"/><path class="cls-2" d="M550.17,230.66V198.6a103.88,103.88,0,0,1,1.35-14.84,1.72,1.72,0,0,1,1.85-1c4.13,1.62,8.28,3.2,12.5,4.6a2.3,2.3,0,0,1,1.34,1.75q0,6.28-.08,12.56a7.43,7.43,0,0,1-.15,1.56c-1.25,5.14-1,10.4-1.16,15.62-.12,3.66-.19,7.33-.32,11a26.78,26.78,0,0,1-.31,3.91,52.49,52.49,0,0,0-.6,10.17c0,3.67-.06,7.33-.21,11s0,7.33-.09,11c0,1.56-.11,3.13-.18,4.7,0,.74-1,1.48-1.6,1.26-3.43-1.26-6.74-2.82-10.08-4.31a3.41,3.41,0,0,1-2.19-3c-.26-6.28-.42-12.56-.3-18.84C550,240,550.12,234.2,550.17,230.66Z" transform="translate(-527.92 -40.56)"/><path class="cls-3" d="M903.66,269.19l12.2.32a2.23,2.23,0,0,1,1.59,1.5c0,.26.17.51.19.76a19.3,19.3,0,0,1-.11,4.68,2.39,2.39,0,0,1-2.12,1.91,143.22,143.22,0,0,1-15.64-.28c-2.59-.22-5.21-.22-7.81-.31l-4.7-.14a3,3,0,0,1-2.1-2.06,12.87,12.87,0,0,1,.21-4.67,2.63,2.63,0,0,1,1.58-1.57A128.45,128.45,0,0,1,903.66,269.19Z" transform="translate(-527.92 -40.56)"/><path class="cls-2" d="M567.69,166.39c-.14,1.83-.28,3.65-.43,5.48a1.66,1.66,0,0,1-1.68,1.27,10.1,10.1,0,0,1-2.29-.45c-3.13-1.34-6.23-2.78-9.34-4.16-2-.87-2.5-2.67-2.64-4.51a51.22,51.22,0,0,1,.56-9.41,1.67,1.67,0,0,1,.33-.7c.13-.19.33-.44.51-.45a5.73,5.73,0,0,1,1.55.11,66.21,66.21,0,0,1,12.49,4.7,1.56,1.56,0,0,1,.6.51c.28.42.73.89.71,1.32-.07,2.1-.28,4.19-.44,6.28Z" transform="translate(-527.92 -40.56)"/><path class="cls-2" d="M569,125c0,1.29,0,1.55,0,1.81,0,3.18-.45,4.3-3.69,4.9a42.4,42.4,0,0,0-6.08,1.47c-1.72.59-3.52.92-5.29,1.36a1.71,1.71,0,0,1-1.64-1.34,5.49,5.49,0,0,1-.11-.77c.38-2.59.52-5.19.68-7.8a3,3,0,0,1,1.48-2.61,50.86,50.86,0,0,1,11.56-4.68,1.71,1.71,0,0,1,1.88,1,10.84,10.84,0,0,1,.74,2.21C568.76,122.37,568.9,124.19,569,125Z" transform="translate(-527.92 -40.56)"/><path class="cls-2" d="M561.3,346.84c-.12,2.06-.22,4.13-.36,6.2a3.18,3.18,0,0,1-2.54,2.58l-.77.13-6.17.74A1.48,1.48,0,0,1,550,355c.06-1.81.11-3.62.22-5.43.11-2.07.2-4.14.46-6.2a3.77,3.77,0,0,1,2.19-3,17.1,17.1,0,0,1,7.41-2,1.65,1.65,0,0,1,1.44,1.51c0,.77-.1,1.55-.16,2.32-.14,1.55-.28,3.1-.41,4.65Z" transform="translate(-527.92 -40.56)"/><path d="M805.85,149a6.45,6.45,0,0,1,7-5.93,6.55,6.55,0,0,1,5.54,6.59,6.29,6.29,0,0,1-6.92,5.93A6.72,6.72,0,0,1,805.85,149Z" transform="translate(-527.92 -40.56)"/><path d="M764.77,157.26a5.46,5.46,0,0,1-4.22-1.69c-3-3.08-2.3-5.91-.37-8.33a6.32,6.32,0,0,1,4-2.22,5.38,5.38,0,0,1,2.29.16,7.17,7.17,0,0,1,2.67,1.53,6.14,6.14,0,0,1-4.35,10.55Z" transform="translate(-527.92 -40.56)"/><path d="M786.19,145.58c-3.25-.41-5.86-2.66-5.8-6.19a6.12,6.12,0,0,1,6.13-5.8,6,6,0,0,1,5.8,6.13C792.12,143.29,789.49,145.39,786.19,145.58Z" transform="translate(-527.92 -40.56)"/><path d="M773.39,277.42a6.12,6.12,0,0,1,6-6c3.08.44,5.83,2.35,5.79,6.13a6,6,0,0,1-6,5.85A5.88,5.88,0,0,1,773.39,277.42Z" transform="translate(-527.92 -40.56)"/><path d="M800.59,270.79c.21-3.3,3.18-6,6.22-5.51,4.08.62,5.52,3.3,5.38,6.38a5.82,5.82,0,1,1-11.6-.87Z" transform="translate(-527.92 -40.56)"/><path d="M755.32,263.73a6,6,0,0,1,4.26-5.82c.25-.06.51-.11.76-.15a6,6,0,0,1,6.43,3.26c1.79,3.42-.81,7.35-3.65,8.08a6,6,0,0,1-7.47-3.87A8.35,8.35,0,0,1,755.32,263.73Z" transform="translate(-527.92 -40.56)"/><path d="M897,440.16a6.48,6.48,0,0,1,4.13,1.95,6.58,6.58,0,0,1,1.67,3.46,4.22,4.22,0,0,1-.09,1.54,7.05,7.05,0,0,1-.49,1.47,5.75,5.75,0,0,1-7.09,3.32,6.07,6.07,0,0,1-4.28-5.89,5.83,5.83,0,0,1,1.36-3.57A6.42,6.42,0,0,1,897,440.16Z" transform="translate(-527.92 -40.56)"/><path d="M891.62,511a5.16,5.16,0,0,1,.79,0,6.32,6.32,0,0,1,5.13,4.23,4.63,4.63,0,0,1,.15,3c-.08.24-.18.49-.25.73a5.87,5.87,0,0,1-5.27,4,5.94,5.94,0,0,1-5.64-3.46,5.79,5.79,0,0,1,1-6.52A7.48,7.48,0,0,1,891.62,511Z" transform="translate(-527.92 -40.56)"/><path d="M889.21,483.3a6.1,6.1,0,0,1,5.94-6,6,6,0,1,1-5.94,6Z" transform="translate(-527.92 -40.56)"/><path d="M892.46,369.14a6.23,6.23,0,0,1,4.75-6.62,5.62,5.62,0,0,1,5.62,1.91,7,7,0,0,1,1.61,3.5,2.27,2.27,0,0,1,0,.78,6.37,6.37,0,0,1-5.58,5.67,2.28,2.28,0,0,1-.78,0,6.41,6.41,0,0,1-5-3.37A12,12,0,0,1,892.46,369.14Z" transform="translate(-527.92 -40.56)"/><path d="M905.05,326.22a5.75,5.75,0,0,1-5.69,5.31c-3.43.23-6.31-3.12-5.92-6.63a5.73,5.73,0,0,1,6.45-5.21A5.87,5.87,0,0,1,905.05,326.22Z" transform="translate(-527.92 -40.56)"/></svg>