<svg id="Layer_1" data-name="Layer 1" xmlns="http://www.w3.org/2000/svg" viewBox="0 0 255.12 255.12"><defs><style>.cls-1{fill:#fff;}.cls-2{fill:#006341;}</style></defs><path class="cls-1" d="M269.29,141.73A127.56,127.56,0,1,1,141.73,14.17,127.56,127.56,0,0,1,269.29,141.73" transform="translate(-14.17 -14.17)"/><path class="cls-2" d="M154.56,69.33a74.7,74.7,0,0,0-25.66,0c-.64.11-.88-.52-.39-.88l13.22-10.06L155,68.45c.49.36.25,1-.39.88m-22.08,63.16a1.47,1.47,0,0,0-.86.84c2.68,2.06,4.53,6.74,10.11,6.74s7.43-4.68,10.11-6.74a1.47,1.47,0,0,0-.85-.84,44.7,44.7,0,0,1-9.26.82A44.53,44.53,0,0,1,132.48,132.49Zm9.25-7.88c-1.55,0-1.89-.59-2.95-.58s-3,.8-3.39,1.54a1.65,1.65,0,0,0,.44,1c2.26.34,3.28,1.6,5.9,1.6s3.64-1.26,5.9-1.6a1.6,1.6,0,0,0,.44-1c-.42-.74-2.38-1.54-3.39-1.54S143.28,124.61,141.73,124.61ZM269.1,148.72c-.17,3.05-.44,6.08-.81,9.07-14.44,2.39-19.6-10.48-34.39-9.83a91.94,91.94,0,0,1,2.15,9.59c12.2,0,17.12,11.4,30.68,9.72q-1.07,5.23-2.56,10.31c-10.73,1.06-14.51-9.6-26.93-9.31.1,1.77.16,3.56.16,5.35,0,1,0,2-.05,3,10.59-.13,14,9.66,24.12,9.2-1.26,3.43-2.68,6.78-4.22,10.07-7.25-.4-9.75-9.7-20.78-9q-.5,3.57-1.25,7.07c9.58-.68,11.64,8.14,18.5,8.85-1.74,3.2-3.63,6.3-5.63,9.32-4.07-2.17-7.59-8.74-15.3-9.15.79-2.44,1.48-4.91,2.07-7.43a32,32,0,0,1-21.21-8.64c2.12-12.1-16.66-24.42-16.66-33.28,0-9.63,4.87-14.95,4.87-27.93,0-9.63-4.68-20.07-11.73-27.22A23.53,23.53,0,0,0,185.76,95c6.48,8,11.46,17.52,11.46,28.54,0,12.21-5.69,18.66-5.69,29.94s16.5,21,16.5,32.67c0,4.57-1.46,9-6.28,17.81,7.4,7.4,17.05,11.44,23.27,11.44,2,0,3.11-.61,3.83-2.2.62-1.37,1.21-2.75,1.77-4.15,6.71.25,9.77,6.35,13.49,8.79q-3.06,4.09-6.42,7.93c-2.49-2.76-5.83-7.4-10.72-8.68-.88,1.7-1.81,3.38-2.78,5,4.21,1.15,7.09,5.4,9.33,8.19q-3.61,3.75-7.51,7.18c-1.63-2.53-4.17-5.75-7-7.48q-1.58,2.13-3.27,4.16a22.13,22.13,0,0,1,5.94,7q-4.51,3.63-9.35,6.86c-1.59-13-19.28-21.83-14.51-36.87-1.56,2.65-3.43,6-3.43,9.95,0,10.89,11.59,19.52,12.52,30.33-2.41,1.44-4.86,2.8-7.37,4.07-.41-11.88-12.69-24.88-12.69-34.64,0-10.89,14.26-21.83,14.26-34.69s-16.45-21.76-16.45-33,7-17.78,7-32.24a38.63,38.63,0,0,0-12.81-28.18,20.82,20.82,0,0,0-4.36-3c7.33,8.8,11.58,16.78,11.58,28.89,0,13.6-8,21.15-8,34.47s16.14,20.72,16.14,33.13-15,22.89-15,35.64c0,11.6,13.25,23.19,13.45,37q-4.35,1.9-8.86,3.47c1.69-13.91-13.22-28.26-13.22-39.6,0-12.41,15.59-23.07,15.59-36.46s-15.85-19.6-15.85-33.33S180,131.47,180,116.3a37,37,0,0,0-14.37-29l-.54-.4c-.8-.6-1.46.12-.9.83,6,7.54,9.27,15.16,9.27,26.45,0,13.87-11.17,25.15-11.17,38.59,0,15.87,15,20.41,15,33.42s-16.09,23.43-16.09,37.25c0,12.81,15.23,27,12.62,41.83-3.06.79-6.15,1.47-9.29,2,2.85-18.42-12.08-31.65-12.08-43.69,0-13,16.66-24.68,16.66-37.43,0-12-12-15.95-13.53-28.25a2.88,2.88,0,0,0-3.42-2.61c-2.43.44-5.54,2.05-10.43,2.05s-8-1.61-10.43-2.05a2.88,2.88,0,0,0-3.42,2.61c-1.57,12.3-13.53,16.24-13.53,28.25,0,12.75,16.66,24.38,16.66,37.43,0,12-14.93,25.27-12.08,43.69q-4.71-.86-9.28-2c-2.61-14.79,12.61-29,12.61-41.83,0-13.82-16.09-24.23-16.09-37.25s15-17.55,15-33.42c0-13.44-11.17-24.72-11.17-38.59,0-11.29,3.23-18.91,9.27-26.45.57-.71-.09-1.43-.9-.83l-.54.4a37,37,0,0,0-14.36,29.05c0,15.17,9.72,22.78,9.72,36.51s-15.85,19.95-15.85,33.33,15.59,24.05,15.59,36.46c0,11.34-14.91,25.69-13.22,39.6-3-1.05-6-2.2-8.85-3.47.19-13.76,13.44-25.35,13.44-37,0-12.75-15-23.22-15-35.64s16.14-19.82,16.14-33.13-8-20.87-8-34.47c0-12.11,4.25-20.09,11.58-28.89a21.08,21.08,0,0,0-4.36,3,38.63,38.63,0,0,0-12.81,28.18c0,14.46,7,21,7,32.24s-16.45,20.2-16.45,33,14.26,23.8,14.26,34.69c0,9.76-12.28,22.76-12.69,34.64q-3.75-1.91-7.37-4.07c.93-10.81,12.52-19.44,12.52-30.33,0-4-1.87-7.3-3.43-9.95,4.77,15-12.92,23.92-14.5,36.87-3.23-2.14-6.35-4.44-9.35-6.86a22,22,0,0,1,5.93-7c-1.12-1.35-2.22-2.74-3.26-4.16-2.85,1.73-5.38,4.95-7,7.48Q53.56,234,50,230.3c2.23-2.79,5.11-7,9.33-8.19-1-1.64-1.91-3.32-2.78-5-4.9,1.28-8.24,5.92-10.73,8.68q-3.36-3.84-6.41-7.93c3.71-2.44,6.78-8.54,13.48-8.79.56,1.4,1.15,2.78,1.77,4.15.72,1.59,1.81,2.2,3.83,2.2,6.22,0,15.87-4,23.28-11.44-4.82-8.77-6.28-13.24-6.28-17.81,0-11.63,16.49-21.39,16.49-32.67s-5.68-17.73-5.68-29.94c0-11,5-20.52,11.45-28.54a23.87,23.87,0,0,0-4.37,3.51c-7,7.15-11.73,17.59-11.73,27.22,0,13,4.87,18.3,4.87,27.93,0,8.86-18.78,21.18-16.66,33.28a31.94,31.94,0,0,1-21.21,8.64c.59,2.52,1.29,5,2.07,7.43-7.71.41-11.23,7-15.3,9.15q-3-4.53-5.63-9.32c6.86-.71,8.92-9.53,18.5-8.85q-.75-3.5-1.25-7.07c-11-.74-13.53,8.56-20.78,9Q23.9,190.95,22,185.81c10.09.46,13.54-9.33,24.12-9.2,0-1,0-2,0-3,0-1.79.06-3.58.16-5.35C33.8,168,30,178.64,19.29,177.58q-1.48-5.07-2.56-10.31c13.57,1.68,18.48-9.73,30.68-9.72A94.57,94.57,0,0,1,49.56,148c-14.79-.65-20,12.22-34.39,9.83-.37-3-.64-6-.8-9.07,16.78,1.89,23.07-11.91,38.35-10.23a90.55,90.55,0,0,1,5-10.58c-19.16-3.37-25.66,12.65-43.49,10.19a127.56,127.56,0,0,1,255,0c-17.84,2.46-24.34-13.56-43.5-10.19a90.55,90.55,0,0,1,5,10.58C246,136.81,252.31,150.61,269.1,148.72ZM86.9,95.23c-9.39-3.84-20.76-3-30.47,3.28A33.3,33.3,0,0,0,43,76.61a1.14,1.14,0,0,0-1.87,1.09c1.47,19.09-9.69,35.66-23.41,50.24,14.14,4.25,26.18-14,44.53-7.61A96.18,96.18,0,0,1,86.9,95.23Zm54.83-11.55c-11.84,0-21.76,6.7-24.36,15.35-.19.67.07,1.09.84.75a17.54,17.54,0,0,1,7.19-1.42c4.83,0,9.08,1.78,11.6,4.86,1.11,3.67,1.21,9-.05,12-2-.45-2.7-2-4.65-2s-3.44,1.37-6.73,1.37-3.69-1.56-5.85-1.56c-2.54,0-3,2.63-3,5.59,0,13.19,12.12,31.35,25,31.35s25-18.16,25-31.35c0-3-.61-5.49-3.28-5.84a8,8,0,0,1-5.58,1.81c-3.3,0-4.2-1.37-6.15-1.37-2.34,0-2.1,4.95-4.89,5.22a23.43,23.43,0,0,1-.4-15.26c2.52-3.08,6.78-4.86,11.61-4.86a17.46,17.46,0,0,1,7.18,1.42c.77.35,1-.08.84-.75C163.49,90.38,153.57,83.68,141.73,83.68Zm18.86,18.93c-2.85,0-6.18.87-8.27,3.2a3.18,3.18,0,0,0,.09,2.21c5.15-1.76,9.69-1.83,11.88.62a4,4,0,0,0,1.55-3.13C165.84,103.8,164.1,102.61,160.59,102.61Zm-41.42,6c2.48-2.49,7.72-2.38,13.15-.37.24-2.71-4.6-5.66-9.44-5.66-3.52,0-5.25,1.19-5.25,2.9A4,4,0,0,0,119.17,108.64ZM200.77,64a42.17,42.17,0,0,0-24,9.23,95.32,95.32,0,0,1,10.82-21.54c-11.9,1.27-21.85,5.62-29.11,13.06l-5.69-14.9,12.62-11.15-16.89-1.19-6.75-15.71L135,37.49l-16.9,1.19,12.62,11.15L125,64.73c-7.27-7.44-17.22-11.79-29.12-13.06a94.91,94.91,0,0,1,10.82,21.54,42.17,42.17,0,0,0-24-9.23A112.8,112.8,0,0,1,97,87.14a1.56,1.56,0,0,0,2.28.76,95.85,95.85,0,0,1,85,0,1.55,1.55,0,0,0,2.27-.76A112.8,112.8,0,0,1,200.77,64Zm20.42,56.35c18.34-6.36,30.38,11.86,44.52,7.61C252,113.36,240.83,96.79,242.31,77.7a1.15,1.15,0,0,0-1.88-1.09A33.29,33.29,0,0,0,227,98.51c-9.72-6.23-21.09-7.12-30.48-3.28A96.37,96.37,0,0,1,221.19,120.33Z" transform="translate(-14.17 -14.17)"/><polygon class="cls-2" points="197.97 253.88 196.68 253.88 196.68 245.88 193.74 245.88 193.74 244.77 200.91 244.77 200.91 245.88 197.97 245.88 197.97 253.88"/><polygon class="cls-2" points="206.88 251.76 206.9 251.76 209.61 244.77 211.61 244.77 211.61 253.88 210.32 253.88 210.32 246.26 210.3 246.26 207.25 253.88 206.43 253.88 203.4 246.26 203.38 246.26 203.38 253.88 202.13 253.88 202.13 244.77 204.13 244.77 206.88 251.76"/></svg>