<svg id="Layer_1" data-name="Layer 1" xmlns="http://www.w3.org/2000/svg" viewBox="0 0 552.38 53.37"><defs><style>.cls-1{fill:#231f20;}</style></defs><path class="cls-1" d="M395.07,157c0,15.86-8.86,24.35-25.42,24.35-16.25,0-25.41-8.72-25.41-24.2V129h18.27v27.22c0,7.55,2.07,10.88,7,10.88s7.3-3,7.3-11.64V129h18.27Z" transform="translate(-46.77 -127.99)"/><polygon class="cls-1" points="86.31 14.05 86.31 52.32 67.86 52.32 67.86 14.05 52.41 14.05 52.41 1.05 101.76 1.05 101.76 14.05 86.31 14.05"/><path class="cls-1" d="M179.62,140.73l-4.55,17.56h9.21Zm11.88,39.58-3.09-9.39H171.08l-3.28,9.39H149.4L168.07,129h23.36l18.46,51.28Z" transform="translate(-46.77 -127.99)"/><path class="cls-1" d="M454.29,176.32,448.76,163c-3.27,2.46-6.57,4.65-11.94,4.65-7.24,0-12.06-6-12.06-13.22s4.25-13.53,11.78-13.53c4.76,0,8.9,2.37,12.22,5l5.46-13a43.06,43.06,0,0,0-20.61-5c-15.5,0-27.29,10.61-27.29,26.32,0,16.56,11.45,27,27.81,27C443.14,181.35,449.47,179.27,454.29,176.32Z" transform="translate(-46.77 -127.99)"/><polygon class="cls-1" points="449.01 52.32 437.45 33.63 437.45 52.32 419.53 52.32 419.53 1.05 437.45 1.05 437.45 19.82 448.28 1.05 468.31 1.05 451.48 26.32 470.46 52.32 449.01 52.32"/><path class="cls-1" d="M68.33,181.35C80,181.35,92,177.21,92,164.09,92,152.26,82,149,74.11,147.35c-5.91-1.28-8.75-1.87-8.75-4.25,0-3.13,4-3.38,6.12-3.38,5.32,0,10.28,2.17,14.54,4.77l4.79-11.69C84.56,130.12,77,128,69.88,128c-12.06,0-21.5,5.83-21.5,17.55,0,9.61,7.29,13.32,15.33,15.3,5.57,1.38,9.13,1.79,9.13,4.55S70.11,169,67.47,169a23.89,23.89,0,0,1-14.91-5.52l-5.79,11.32A40.23,40.23,0,0,0,68.33,181.35Z" transform="translate(-46.77 -127.99)"/><path class="cls-1" d="M544.4,181.35c11.62,0,23.68-4.14,23.68-17.26,0-11.83-10.06-15.05-17.91-16.74-5.91-1.28-8.75-1.87-8.75-4.25,0-3.13,4-3.38,6.12-3.38,5.32,0,10.28,2.17,14.54,4.77l4.79-11.69C560.62,130.12,553,128,545.94,128c-12.06,0-21.5,5.83-21.5,17.55,0,9.61,7.29,13.32,15.33,15.3,5.57,1.38,9.13,1.79,9.13,4.55s-2.73,3.56-5.37,3.56a23.89,23.89,0,0,1-14.91-5.52l-5.79,11.32A40.24,40.24,0,0,0,544.4,181.35Z" transform="translate(-46.77 -127.99)"/><path class="cls-1" d="M576.17,139.54v-.07a11.49,11.49,0,0,1,23-.06v.06a11.49,11.49,0,0,1-23,.07Zm21.38-.07v-.05a9.89,9.89,0,1,0-19.78.05v.07a9.89,9.89,0,1,0,19.78-.07Zm-14.37-6.18h5.24a4.91,4.91,0,0,1,3.47,1.23,3.12,3.12,0,0,1,.94,2.27v.07a3.45,3.45,0,0,1-3,3.43l3.62,4.7h-2.14l-3.38-4.41h-3V145h-1.74Zm5.08,5.74c1.64,0,2.78-.75,2.78-2.08v-.06c0-1.23-1-2-2.69-2h-3.43V139Z" transform="translate(-46.77 -127.99)"/><path class="cls-1" d="M258.54,161.14c6.27-2.29,9.69-8.6,9.69-14.51,0-12.11-8.28-17.6-20-17.6H220.5v51.28h17.78V165.1h4.49L252,180.31h19.18Zm-8.31-14.44c0,3.36-2.13,5.31-5.63,5.31h-6.31V141.3h6.37c3.38,0,5.57,1.72,5.57,5.24Z" transform="translate(-46.77 -127.99)"/><path class="cls-1" d="M320.85,154.12c6.67-1.43,9.95-5.18,9.95-11.45,0-8.73-6.55-13.64-18.07-13.64H283.49v51.28h28.09c13.56,0,20.31-4.78,20.31-14.46C331.89,159.17,327.66,154.67,320.85,154.12Zm-19.77-14h6.44c3.41,0,5.62,1.46,5.62,4.46v.14c0,2.87-2.15,4.53-5.68,4.53h-6.38Zm12.33,24.27c0,3-2.2,4.77-5.81,4.77h-6.52v-9.61h6.58c3.49,0,5.75,1.54,5.75,4.7Z" transform="translate(-46.77 -127.99)"/></svg>