<svg id="Layer_1" data-name="Layer 1" xmlns="http://www.w3.org/2000/svg" viewBox="0 0 594.5 108.75"><defs><style>.cls-1{fill:#1f3932;stroke:#1f3932;}.cls-1,.cls-2{stroke-miterlimit:10;}.cls-2{fill:none;stroke:#006341;}</style></defs><path class="cls-1" d="M13.62,91H27.48V101.1H.66V91L17,72.18a3.47,3.47,0,0,0,.54-1.92,5.56,5.56,0,0,0-.12-1.08,3.74,3.74,0,0,0-1.35-1.89,3.63,3.63,0,0,0-2.25-.75,3.69,3.69,0,0,0-3.72,3.72H0a13.41,13.41,0,0,1,1.08-5.34,13.88,13.88,0,0,1,7.38-7.38,13.41,13.41,0,0,1,5.34-1.08,13.59,13.59,0,0,1,4.44.72,14.06,14.06,0,0,1,3.84,2,13.34,13.34,0,0,1,3,3.09A14.17,14.17,0,0,1,27,66.18a13.23,13.23,0,0,1,.6,4.08,12.61,12.61,0,0,1-1.05,5.22,15.86,15.86,0,0,1-3,4.38Z" transform="translate(0.5 0.63)"/><path class="cls-2" d="M84.8,101.1H74.72V85.5l-5.46,15.6H59.18L53.6,85V101.1H43.52V56.46H53.78L64.22,86.58l10.5-30.12H84.8Z" transform="translate(0.5 0.63)"/><path class="cls-2" d="M99.2,66.54v7.2h12.72V83.82H99.2V91h17.28V101.1H89.12V56.46h27.36V66.54Z" transform="translate(0.5 0.63)"/><path class="cls-2" d="M150.26,66.54H140.12V101.1H130V66.54H119.9V56.46h30.36Z" transform="translate(0.5 0.63)"/><path class="cls-2" d="M171.5,101.1l-7.8-16.92h-.12V101.1H153.5V56.46h13.62a13.92,13.92,0,0,1,9.87,4,13.93,13.93,0,0,1,3,4.41,13.56,13.56,0,0,1,1.08,5.4,13.31,13.31,0,0,1-2.1,7.35,14,14,0,0,1-5.52,5l8.46,18.42Z" transform="translate(0.5 0.63)"/><path class="cls-2" d="M194.9,101.1H184.82V56.46H194.9Z" transform="translate(0.5 0.63)"/><path class="cls-2" d="M380.72,78.78A22.09,22.09,0,0,1,379,87.33a22.45,22.45,0,0,1-11.67,11.88,22.69,22.69,0,0,1-7.89,1.89H349.16V56.46h9a22.9,22.9,0,0,1,8.61,1.65,22.16,22.16,0,0,1,14,20.67Z" transform="translate(0.5 0.63)"/><path class="cls-2" d="M394.1,66.54v7.2h12.72V83.82H394.1V91h17.28V101.1H384V56.46h27.36V66.54Z" transform="translate(0.5 0.63)"/><path class="cls-2" d="M468.74,83.82h-8.28l-6,17.28H443.6l15.48-44.64h11L485.6,101.1H474.74Z" transform="translate(0.5 0.63)"/><path class="cls-2" d="M506.66,101.1l-7.8-16.92h-.12V101.1H488.66V56.46h13.62a13.92,13.92,0,0,1,9.87,4,13.93,13.93,0,0,1,3,4.41,13.56,13.56,0,0,1,1.08,5.4,13.31,13.31,0,0,1-2.1,7.35,14,14,0,0,1-5.52,5L517,101.1Z" transform="translate(0.5 0.63)"/><path class="cls-2" d="M549.8,66.54H539.66V101.1H529.58V66.54H519.44V56.46H549.8Z" transform="translate(0.5 0.63)"/><path class="cls-2" d="M576.44,83.82h-8.28l-6,17.28H551.3l15.48-44.64h11L593.3,101.1H582.44Z" transform="translate(0.5 0.63)"/><path class="cls-2" d="M573,51.73a8.21,8.21,0,0,1-3.19-.63,8.38,8.38,0,0,1-2.73-1.84,8.36,8.36,0,0,1-2.42-5.47V39.93h16.69v3.36a8.57,8.57,0,0,1-.61,3.22A8.48,8.48,0,0,1,579,49.26a8.38,8.38,0,0,1-2.73,1.84A8.23,8.23,0,0,1,573,51.73Z" transform="translate(0.5 0.63)"/><path class="cls-1" d="M233.38,34.17l20.78,62.08-33.59,11.24L199.79,45.41ZM228.8,76a14.67,14.67,0,0,0,5.17-3,15.41,15.41,0,0,0,3.54-4.55,15.05,15.05,0,0,0-2.16-16.64,15.19,15.19,0,0,0-10.17-5.07,14.74,14.74,0,0,0-5.92.75l-.07,0-13.91,4.66,15.35,45.87L231,94.62l-5.82-17.38,3.55-1.19Z" transform="translate(0.5 0.63)"/><path class="cls-1" d="M232.27,34.54,263.94,24,284.71,86l-31.66,10.6Zm46.66,44-3.47-10.36-14.64,4.9L248.93,37.61l-10.36,3.47L253.92,87Z" transform="translate(0.5 0.63)"/><path class="cls-1" d="M303.54,10.77l20.78,62.08L283,86.69,262.19,24.61Zm-.35,8.76L292.83,23,302,50.45a9,9,0,0,1,.48,3.38,9.14,9.14,0,0,1-.73,3.12A7.62,7.62,0,0,1,300,59.47a7.12,7.12,0,0,1-2.67,1.59,7.3,7.3,0,0,1-3.13.35,7.42,7.42,0,0,1-2.95-.95,9,9,0,0,1-4.12-5L278,28,267.6,31.44l9.26,27.67a20.86,20.86,0,0,0,3.68,6.46,19.12,19.12,0,0,0,5.71,4.63,20.3,20.3,0,0,0,7.16,2.09,17.3,17.3,0,0,0,7.32-.85l.08,0a17.55,17.55,0,0,0,6.36-3.73,20.47,20.47,0,0,0,4.46-6,19.23,19.23,0,0,0,1.76-7.13,20.91,20.91,0,0,0-.94-7.38Z" transform="translate(0.5 0.63)"/><path class="cls-1" d="M335.73,0,356.5,62.08,322.17,73.57,301.4,11.49ZM345,40.75a14.26,14.26,0,0,0-2.94-5.07,14.65,14.65,0,0,0-4.51-3.42,15.05,15.05,0,0,0-11.34-.69,4.21,4.21,0,0,1-3.07-.08,3.47,3.47,0,0,1-2-2.19,7.05,7.05,0,0,1-.22-1.16,3.81,3.81,0,0,1,.76-2.39,4.12,4.12,0,0,1,2-1.51,3.86,3.86,0,0,1,3,.22,3.81,3.81,0,0,1,2,2.29l10.36-3.46a14.39,14.39,0,0,0-2.94-5.11,15.71,15.71,0,0,0-4.56-3.53,14.75,14.75,0,0,0-11.38-.84,14.87,14.87,0,0,0-7.57,5.66,14.59,14.59,0,0,0-2,4.21,15,15,0,0,0-.62,4.65,14.06,14.06,0,0,0,.74,4.44,13.84,13.84,0,0,0,3,5.09,15.42,15.42,0,0,0,4.55,3.38,14.89,14.89,0,0,0,11.34.69,4.06,4.06,0,0,1,3,.1,3.52,3.52,0,0,1,2,2.26,7,7,0,0,1,.23,1.16,4.05,4.05,0,0,1-5.85,3.68,3.92,3.92,0,0,1-2-2.36l-10.36,3.46a14.62,14.62,0,0,0,3,5.18,14.85,14.85,0,0,0,10.07,5A14.87,14.87,0,0,0,345.2,49.81a15,15,0,0,0,.62-4.65A16.57,16.57,0,0,0,345,40.75Z" transform="translate(0.5 0.63)"/></svg>