<svg id="Layer_1" data-name="Layer 1" xmlns="http://www.w3.org/2000/svg" viewBox="0 0 314.4 349.07"><defs><style>.cls-1{fill:#fff;}.cls-2{fill:#00643c;stroke:#006341;stroke-miterlimit:10;}</style></defs><path d="M766.59,161.51c-.35,0,.7,0,1.74.18a55.87,55.87,0,0,0,7.86.4c2.11,0,4.21,0,6.31,0,11.83-.22,23.65.43,35.46.84,9.17,1,18.38.62,27.56,1.09,4.72.24,9.46.2,14.15.94a30.26,30.26,0,0,0,3.93.23c7.35.24,14.71.46,22.06.72a43.82,43.82,0,0,1,4.71.42,73.58,73.58,0,0,0,11,.64c7.1,0,14.19.36,21.27.85,2.35.17,4.72.23,7.08.33,6.82.29,13.65.55,20.47.87a6.78,6.78,0,0,1,5.26,3.07,11.54,11.54,0,0,1,1.52,2.75,39.21,39.21,0,0,0,1.73,4.39c3.11,6.1,5.35,12.56,7.69,19,1.27,3.45,2.38,7,3.71,10.38a44.37,44.37,0,0,1,2.1,7.58,7.84,7.84,0,0,1-.61,4.61,4.42,4.42,0,0,1-.78,1.35c-1.63,1.7-3.27,3.41-5,5a5.76,5.76,0,0,1-3.59,1.46,39.58,39.58,0,0,1-9.41-.63,24.76,24.76,0,0,0-4.7-.43,2.54,2.54,0,0,0-2.34,1.77,27.2,27.2,0,0,0-.65,3.08c-.18,1.56-.25,3.14-.33,4.71a139,139,0,0,1-1.22,14.13,46,46,0,0,0-.46,7.87c0,1.84,0,3.67,0,5.51a30.06,30.06,0,0,1-.15,3.15c-.35,2.6-.84,5.19-1.15,7.79s-.36,5.25-.73,7.85c-.48,3.38-1.18,6.72-1.78,10.08-.23,1.3-.53,2.58-.69,3.88-.63,5.22-1.22,10.44-1.83,15.66a20.21,20.21,0,0,1-.29,2.34c-.79,3.34-.9,6.79-1.57,10.12-1.09,5.42-1.25,11-2.39,16.37a31.94,31.94,0,0,0-.41,3.92,46.88,46.88,0,0,1-.82,6.25,23.37,23.37,0,0,0-.48,3.11c-.38,5-1,9.93-1.66,14.88-.43,3.12-.58,6.28-1.22,9.38a27.12,27.12,0,0,0-.38,3.12c-.62,6.54-1.6,13-2.77,19.5-.18,1-.33,2.07-.44,3.12a76.19,76.19,0,0,1-1.09,7.8c-.33,1.53-.37,3.13-.56,4.69-.31,2.61-.64,5.22-1,7.82-.1.78-.29,1.56-.32,2.34-.24,5.79-1.44,11.47-2,17.22-.3,2.87-.9,5.71-1.23,8.58a68.91,68.91,0,0,1-1.27,8.57,8.21,8.21,0,0,0-.25,1.55c-.24,5.53-1.47,10.93-2.06,16.41-.47,4.44-1.12,8.87-1.92,13.26-.52,2.84-1,5.69-1.3,8.56a8.49,8.49,0,0,1-1.37,3.66,7,7,0,0,1-5.83,3.55c-5,.11-10,.12-15,0-5.52-.11-11,.07-16.55.11-2.89,0-5.78,0-8.67,0-1.05,0-2.11-.06-3.15,0-9.47.57-18.92-.27-28.38-.19-.52,0-1,0-1.57-.09-14.69-1-29.4-1.29-44.11-1.27-8.94,0-17.87-.11-26.8-.4-3.42-.1-6.84-.08-10.25-.1a24.67,24.67,0,0,1-3.94,0c-4.16-.72-8.38-.55-12.57-.86a6,6,0,0,1-5-3.35c-1.38-2.54-2.72-5.11-2.92-8.09-1.23-4.59-1.3-9.36-2.32-14-1.25-9.64-3.18-19.16-4.64-28.77-.16-1-.32-2.08-.42-3.12a73.24,73.24,0,0,0-1.35-8.56c-.88-4.1-1.42-8.28-2.1-12.42-.59-3.63-1-7.29-1.8-10.88-1.1-5.15-1.21-10.45-2.52-15.55q-.92-7.83-1.84-15.66c-.21-1.82-.27-3.68-.62-5.48a89.55,89.55,0,0,1-1.2-9.37c-.15-1.83-.45-3.65-.68-5.47s-.49-3.65-.72-5.47a39,39,0,0,0-.48-3.91c-.81-3.6-.91-7.31-1.64-10.91-.67-3.36-.85-6.78-1.48-10.13-.84-4.39-1.13-8.86-2.18-13.21-.37-1.53-.45-3.12-.67-4.68-.61-4.43-1.33-8.83-2.3-13.19-.34-1.54-.56-3.1-.83-4.65-.77-4.4-1.54-8.79-2.44-13.17s-1.75-8.75-2.31-13.19-1.49-8.79-2.26-13.19a30.08,30.08,0,0,1-.56-3.1c-.36-5-1.17-9.91-1.7-14.87-.31-2.88-.57-5.75-1.08-8.6a46.2,46.2,0,0,1-.49-4.7c-.1-1.31-.14-2.63-.19-3.94-.16-3.47-1.27-3.89-4.5-3.94-1.84,0-3.68,0-5.52.06-2.1,0-4.2.07-6.3.08a20.62,20.62,0,0,1-2.36-.14,5.72,5.72,0,0,1-3.49-1.65,18.61,18.61,0,0,1-3.67-5.09,5.58,5.58,0,0,1-.48-3.84c.68-2.55,1-5.15,1.43-7.74a64.62,64.62,0,0,1,1.73-7.68,105,105,0,0,0,2.49-10.74c.6-3.1,1.4-6.16,2.28-9.17,1-3.28,2-6.53,2.62-9.89.41-2.15,2.87-4.05,5.17-4.21.79,0,1.57-.11,2.36-.13,4.47-.1,8.93-.25,13.4-.25,3.68,0,7.36.11,11,.3,4.47.22,8.93.31,13.4.16a210.72,210.72,0,0,1,22,.62,64.57,64.57,0,0,0,7.87.1A189,189,0,0,1,766.59,161.51Zm97,334.92c0,.07,0,.13,0,.2,2.88-.08,5.77-.18,8.65-.23,5-.09,10-.36,15-.2,3.14.1,6.29,0,9.44-.06a2.74,2.74,0,0,0,2.38-1.74,40.7,40.7,0,0,0,1.17-5.38c.49-5.24,1.81-10.36,2.07-15.62A116.42,116.42,0,0,0,904,460.92a22.77,22.77,0,0,1,.36-2.34c1.15-5.67,1.68-11.42,2.43-17.14s1.75-11.42,2-17.21c.05-1,.33-2.07.47-3.11.24-1.82.54-3.64.68-5.47.4-5.51,1.59-10.91,2.16-16.39.2-1.82.79-3.6.95-5.42.47-5.24,1.71-10.37,2-15.63a18.28,18.28,0,0,1,.48-3.11,48.57,48.57,0,0,0,.81-6.25c.16-1.83.3-3.67.61-5.47.49-2.86.79-5.73,1-8.61a28.15,28.15,0,0,1,.39-3.91c1.28-6.19,1.46-12.51,2.56-18.73.5-2.83.71-5.72,1.27-8.56.61-3.09.63-6.27,1.42-9.34a16.33,16.33,0,0,0,.46-3.11c.24-5.26,1.39-10.41,1.83-15.64a29.67,29.67,0,0,1,.45-3.12,140.5,140.5,0,0,0,2.81-19.47,28.45,28.45,0,0,1,.55-3.89,40.71,40.71,0,0,0,.71-9.41,67.24,67.24,0,0,1,.58-11.79c.85-6,1-12,1.41-18.06,0-.51,0-1-.05-1.56a2.83,2.83,0,0,0-1.36-1.81,15.24,15.24,0,0,0-2.28-.5c-2.88-.21-5.77-.32-8.65-.52-2.09-.14-4.2-.24-6.26-.58a56.84,56.84,0,0,0-8.63-.69q-7.89-.09-15.73-.85c-5-.49-10-.69-14.94-.92-2.36-.11-4.72-.18-7.09-.25a50.55,50.55,0,0,1-7.05-.6,61.79,61.79,0,0,0-9.42-.64c-3.15,0-6.31-.07-9.45-.21-3.94-.18-7.88-.28-11.82-.23a69.65,69.65,0,0,1-7.08-.12,38,38,0,0,0-7.84,0,42.64,42.64,0,0,1-11-.11,23.18,23.18,0,0,0-6.28-.1,48,48,0,0,1-11.79,0,13.65,13.65,0,0,0-3.13,0,66.66,66.66,0,0,1-15.72,0,13.21,13.21,0,0,0-3.14-.06,96.81,96.81,0,0,1-11.8.38q-5.51,0-11,.13c-.78,0-1.57.11-2.35.18a2.55,2.55,0,0,0-.78.13c-.23.09-.41.31-.65.41a1.29,1.29,0,0,0-.78,1.26,24.41,24.41,0,0,0,1,8.54,73.37,73.37,0,0,1,2.57,15.51,46.5,46.5,0,0,0,.4,4.71c.54,3.64.75,7.31,1,11,.16,2.09.29,4.19.6,6.27,1.16,7.78,2.49,15.55,2.88,23.43,0,1.05.27,2.08.4,3.12.29,2.35.59,4.69.87,7,.25,2.09.48,4.18.73,6.26.3,2.61.61,5.22.91,7.83.19,1.56.37,3.12.55,4.69.31,2.6.67,5.21.91,7.82.26,2.88.61,5.74,1,8.6.72,4.93,1.09,9.91,2,14.82.2,1,.19,2.09.29,3.14a29.37,29.37,0,0,0,.35,3.13c1.29,6.18,1.64,12.49,2.58,18.72a164,164,0,0,1,2.14,16.39,16.8,16.8,0,0,0,.4,2.32c.78,4.13,1,8.35,2,12.44.22,4.74,1.38,9.35,1.87,14.05.16,1.56.41,3.12.68,4.67,1,5.95,2.33,11.85,2.82,17.88.07.78.28,1.55.39,2.33.32,2.07.64,4.15.94,6.22.74,5.2,1.52,10.4,1.77,15.65a30,30,0,0,0,.42,3.12c1,6.49,2.35,12.92,2.84,19.47a6.49,6.49,0,0,0,.19.76,3.16,3.16,0,0,0,2.11,2.12,72.21,72.21,0,0,0,11,.46c2.1-.05,4.2-.15,6.3-.09,9.45.28,18.91.14,28.36.55,4.19.18,8.4,0,12.57.6a34.35,34.35,0,0,0,3.94.14c2.1.06,4.2.1,6.29.22,5.25.3,10.5.33,15.75.17ZM887.85,210a59.6,59.6,0,0,1,6.09.41,80.15,80.15,0,0,0,11.78.82,52,52,0,0,1,8.65.52,99.65,99.65,0,0,0,10.2,1A121.56,121.56,0,0,1,938.69,214a10.18,10.18,0,0,0,1.57.14c2.62.14,5.25.25,7.87.41,2.88.18,5.75.4,8.63.61.58,0,1.41-1.15,1.21-1.73-.85-2.49-1.68-5-2.56-7.45-1.42-4-2.89-7.89-4.31-11.84a75.46,75.46,0,0,0-4.52-10.05,3.86,3.86,0,0,0-3-2.23c-1.31-.17-2.61-.37-3.92-.42-4.2-.15-8.4-.23-12.6-.36-2.1-.06-4.22,0-6.3-.27a186.26,186.26,0,0,0-22-1.09c-3.14,0-6.3-.16-9.44-.42-8.12-.67-16.25-1.19-24.4-1.2a82.56,82.56,0,0,1-9.43-.55c-2.35-.27-4.71-.54-7.07-.61-8.93-.28-17.86-.49-26.79-.69a80.59,80.59,0,0,1-8.65-.47c-1.82-.25-3.66-.34-5.5-.41-8.4-.35-16.81-.6-25.22-.41a157.11,157.11,0,0,1-21.25-.78,33.51,33.51,0,0,0-7.08,0,138.5,138.5,0,0,1-20.47.3c-.78,0-1.57-.07-2.35-.05a1.4,1.4,0,0,0-.71.33A3.23,3.23,0,0,0,729,176.6a90.88,90.88,0,0,0-1.67,10.1,58.9,58.9,0,0,1-.87,6.24c-.93,4.11-1.31,8.3-2.07,12.43-.14.81,1,2,1.95,2.07a71.21,71.21,0,0,0,13.38.22,119.52,119.52,0,0,1,13.38-.51c3.41,0,6.83,0,10.24-.11,4-.14,7.87.42,11.8.63a85.41,85.41,0,0,1,12.59-.57c2.88.1,5.78.08,8.67,0a65.91,65.91,0,0,1,10.23.24,33,33,0,0,0,6.29,0c2.36-.19,4.72-.28,7.09-.29,4.2,0,8.4.06,12.61.14a57.48,57.48,0,0,1,6.29.32,89.48,89.48,0,0,0,10.22.54,131.73,131.73,0,0,1,17.3,1.06,27.5,27.5,0,0,0,3.14.26C875.31,209.57,881.09,209.78,887.85,210Zm-177,10.79v0c-2.63,0-5.25,0-7.88,0-1.31,0-2.61.13-3.92.22a2,2,0,0,0-1.58,1.51c-.07.78-.18,1.56-.19,2.35-.06,3.17.89,6.23,1.1,9.37.42,6.29,1.75,12.48,2.07,18.78a34.11,34.11,0,0,0,.64,3.88c.88,5.17,1.86,10.33,2.57,15.53.54,3.9,1.32,7.76,2.12,11.61.86,4.11,1.66,8.23,2.3,12.38.24,1.56.48,3.12.8,4.66a135.64,135.64,0,0,1,2.51,14.73,30.08,30.08,0,0,0,.46,3.12c1.16,5.92,2.12,11.88,2.77,17.88a18.3,18.3,0,0,0,.33,2.34c.85,3.32.91,6.76,1.54,10.11s1.06,6.74,1.43,10.14c.14,1.3.43,2.58.62,3.88s.41,2.6.5,3.9a69.46,69.46,0,0,0,1.25,10.16c.23,1,.28,2.08.41,3.12.94,7.81,1.52,15.67,3,23.41.89,8.35,2.61,16.58,3.85,24.89,1,6.74,2.56,13.39,3.35,20.18.36,3.12.8,6.25,1.45,9.33.93,4.37,1.15,8.86,2.33,13.17.43,5,1.76,9.82,2.08,14.81a24.83,24.83,0,0,0,1.16,5.38,2.61,2.61,0,0,0,2.19,1.94,104.6,104.6,0,0,0,16.51.11,1.3,1.3,0,0,0,.75-.17c.37-.35.88-.74,1-1.18a18.83,18.83,0,0,0-.35-6.26c-.75-4.67-1.75-9.3-2.24-14-.52-5-1.14-9.91-1.68-14.87-.56-5.22-1.81-10.34-2.14-15.59,0-.78-.33-1.54-.45-2.32-.81-5.18-1.87-10.32-2.58-15.53-.52-3.9-1.26-7.77-1.56-11.7-.1-1.3-.45-2.58-.66-3.88-.69-4.4-1.6-8.79-2-13.23-.53-6.29-1.84-12.46-2.45-18.73a75.12,75.12,0,0,1-1.11-8.58c-.36-2.87-.88-5.71-1.3-8.56-.11-.78-.11-1.58-.21-2.36-.23-1.82-.49-3.64-.74-5.46-.22-1.55-.5-3.11-.65-4.67-.59-6.27-1.86-12.47-2.12-18.78,0-.78-.23-1.55-.32-2.34-.29-2.34-.59-4.68-.85-7-.18-1.56-.21-3.15-.5-4.7-.58-3.1-.83-6.24-1.14-9.37-.18-1.83-.48-3.65-.73-5.47-.17-1.3-.47-2.59-.52-3.9-.18-5.26-1-10.44-1.67-15.65-.4-3.12-1-6.22-1.38-9.34-.44-3.38-.56-6.8-.83-10.2,0-.53-.08-1.06-.18-1.57a50.85,50.85,0,0,1-.83-8.62,60,60,0,0,0-1.87-13.23c-1.1-4.34-1.81-8.73-2.55-13.13a3.46,3.46,0,0,0-.49-1.47,2,2,0,0,0-1.21-.87C717.64,220.89,714.23,220.88,710.82,220.83ZM691.5,208.1h7.89c2.36,0,4.72.06,7.09.06.78,0,1.57-.14,2.35-.15a3,3,0,0,0,2.17-2c1.14-5.67,1.78-11.42,3-17.06a15.51,15.51,0,0,0,.33-2.34c.26-3.67.77-7.31,1.3-11a1.13,1.13,0,0,0-.16-.75,10.61,10.61,0,0,0-1.08-1c-8.4-.22-16.8-.48-25.21-.62-2.62,0-5.24.22-7.86.43a1.91,1.91,0,0,0-1.27.81,11.88,11.88,0,0,0-1.28,2.87c-.84,3-1.78,6-2.37,9.15a111.32,111.32,0,0,1-2.66,11.5c-.69,2.26-1,4.61-1.56,6.92a2.65,2.65,0,0,0,.12,1.55,1.41,1.41,0,0,0,1.06,1A179,179,0,0,0,691.5,208.1Z" transform="translate(-657.93 -160.41)"/><path class="cls-1" d="M863.62,496.43l-5.51.15c-5.25.16-10.5.13-15.75-.17-2.09-.12-4.19-.16-6.29-.22a34.35,34.35,0,0,1-3.94-.14c-4.17-.64-8.38-.42-12.57-.6-9.45-.41-18.91-.27-28.36-.55-2.1-.06-4.2,0-6.3.09a72.21,72.21,0,0,1-11-.46,3.16,3.16,0,0,1-2.11-2.12,6.49,6.49,0,0,1-.19-.76c-.49-6.55-1.85-13-2.84-19.47a30,30,0,0,1-.42-3.12c-.25-5.25-1-10.45-1.77-15.65-.3-2.07-.62-4.15-.94-6.22-.11-.78-.32-1.55-.39-2.33-.49-6-1.8-11.93-2.82-17.88-.27-1.55-.52-3.11-.68-4.67-.49-4.7-1.65-9.31-1.87-14.05-1-4.09-1.22-8.31-2-12.44a16.8,16.8,0,0,1-.4-2.32,164,164,0,0,0-2.14-16.39c-.94-6.23-1.29-12.54-2.58-18.72a29.37,29.37,0,0,1-.35-3.13c-.1-1.05-.09-2.11-.29-3.14-.9-4.91-1.27-9.89-2-14.82-.41-2.86-.76-5.72-1-8.6-.24-2.61-.6-5.22-.91-7.82-.18-1.57-.36-3.13-.55-4.69-.3-2.61-.61-5.22-.91-7.83-.25-2.08-.48-4.17-.73-6.26-.28-2.34-.58-4.68-.87-7-.13-1-.35-2.07-.4-3.12-.39-7.88-1.72-15.65-2.88-23.43-.31-2.08-.44-4.18-.6-6.27-.26-3.67-.47-7.34-1-11a46.5,46.5,0,0,1-.4-4.71,73.37,73.37,0,0,0-2.57-15.51,24.41,24.41,0,0,1-1-8.54,1.29,1.29,0,0,1,.78-1.26c.24-.1.42-.32.65-.41a2.55,2.55,0,0,1,.78-.13c.78-.07,1.57-.16,2.35-.18q5.52-.09,11-.13a96.81,96.81,0,0,0,11.8-.38,13.21,13.21,0,0,1,3.14.06,66.66,66.66,0,0,0,15.72,0,13.65,13.65,0,0,1,3.13,0,48,48,0,0,0,11.79,0,23.18,23.18,0,0,1,6.28.1,42.64,42.64,0,0,0,11,.11,38,38,0,0,1,7.84,0,69.65,69.65,0,0,0,7.08.12c3.94,0,7.88.05,11.82.23,3.14.14,6.3.17,9.45.21a61.79,61.79,0,0,1,9.42.64,50.55,50.55,0,0,0,7.05.6c2.37.07,4.73.14,7.09.25,5,.23,10,.43,14.94.92q7.83.77,15.73.85a56.84,56.84,0,0,1,8.63.69c2.06.34,4.17.44,6.26.58,2.88.2,5.77.31,8.65.52a15.24,15.24,0,0,1,2.28.5,2.83,2.83,0,0,1,1.36,1.81c0,.52.09,1,.05,1.56-.42,6-.56,12.06-1.41,18.06a67.24,67.24,0,0,0-.58,11.79,40.71,40.71,0,0,1-.71,9.41,28.45,28.45,0,0,0-.55,3.89,140.5,140.5,0,0,1-2.81,19.47,29.67,29.67,0,0,0-.45,3.12c-.44,5.23-1.59,10.38-1.83,15.64a16.33,16.33,0,0,1-.46,3.11c-.79,3.07-.81,6.25-1.42,9.34-.56,2.84-.77,5.73-1.27,8.56-1.1,6.22-1.28,12.54-2.56,18.73a28.15,28.15,0,0,0-.39,3.91c-.21,2.88-.51,5.75-1,8.61-.31,1.8-.45,3.64-.61,5.47a48.57,48.57,0,0,1-.81,6.25,18.28,18.28,0,0,0-.48,3.11c-.25,5.26-1.49,10.39-2,15.63-.16,1.82-.75,3.6-.95,5.42-.57,5.48-1.76,10.88-2.16,16.39-.14,1.83-.44,3.65-.68,5.47-.14,1-.42,2.07-.47,3.11-.29,5.79-1.28,11.49-2,17.21s-1.28,11.47-2.43,17.14a22.77,22.77,0,0,0-.36,2.34,116.42,116.42,0,0,1-1.64,12.48c-.26,5.26-1.58,10.38-2.07,15.62a40.7,40.7,0,0,1-1.17,5.38,2.74,2.74,0,0,1-2.38,1.74c-3.15,0-6.3.16-9.44.06-5-.16-10,.11-15,.2-2.88.05-5.77.15-8.65.23C863.63,496.56,863.62,496.5,863.62,496.43ZM767.53,350a84.07,84.07,0,0,0,1,14.59,99.93,99.93,0,0,0,4.37,16.73,57.24,57.24,0,0,0,7.16,14,44,44,0,0,0,16.55,14.19c2.36,1.16,4.7,2.35,7.08,3.44a46.19,46.19,0,0,0,5.12,2,73.27,73.27,0,0,0,19.31,3.42c2.62.12,5.24.23,7.86.41a17.06,17.06,0,0,0,3.91-.16,70.7,70.7,0,0,0,7-1.05,67.74,67.74,0,0,0,6.62-2.47c1.48-.55,3-1.07,4.46-1.56A48.42,48.42,0,0,0,865.8,410a36,36,0,0,0,8.22-6,86.7,86.7,0,0,0,8.32-9.44,50.34,50.34,0,0,0,7.44-13.8c1.12-3.22,2.12-6.47,3-9.78,1-3.83,1.4-7.73,2-11.62a50.67,50.67,0,0,0,0-16.44,23.39,23.39,0,0,1-.33-3.13,25.13,25.13,0,0,0-2-9.17,16.35,16.35,0,0,1-.8-2.22,80.83,80.83,0,0,0-4.82-12.46,50.42,50.42,0,0,0-6.52-10.73c-1.13-1.45-2.24-2.91-3.46-4.28-1.4-1.57-2.83-3.11-4.36-4.53a55.26,55.26,0,0,0-13.64-9.25,60.82,60.82,0,0,0-15.61-5.18,56.89,56.89,0,0,0-16.46-.69,72.4,72.4,0,0,0-22.69,6.1A48.71,48.71,0,0,0,794,293.43a75.84,75.84,0,0,0-7.33,7.12A76.94,76.94,0,0,0,776,314.13a39.62,39.62,0,0,0-3.3,6.24,64.67,64.67,0,0,0-3.56,12.86A106.75,106.75,0,0,0,767.53,350Z" transform="translate(-657.93 -160.41)"/><path class="cls-1" d="M887.85,210c-6.76-.26-12.54-.47-18.31-.71a27.5,27.5,0,0,1-3.14-.26A131.73,131.73,0,0,0,849.1,208a89.48,89.48,0,0,1-10.22-.54,57.48,57.48,0,0,0-6.29-.32c-4.21-.08-8.41-.15-12.61-.14-2.37,0-4.73.1-7.09.29a33,33,0,0,1-6.29,0,65.91,65.91,0,0,0-10.23-.24c-2.89.13-5.79.15-8.67,0a85.41,85.41,0,0,0-12.59.57c-3.93-.21-7.84-.77-11.8-.63-3.41.12-6.83.12-10.24.11a119.52,119.52,0,0,0-13.38.51,71.21,71.21,0,0,1-13.38-.22c-1-.07-2.09-1.26-1.95-2.07.76-4.13,1.14-8.32,2.07-12.43a58.9,58.9,0,0,0,.87-6.24A90.88,90.88,0,0,1,729,176.6a3.23,3.23,0,0,1,1.38-1.83,1.4,1.4,0,0,1,.71-.33c.78,0,1.57,0,2.35.05a138.5,138.5,0,0,0,20.47-.3,33.51,33.51,0,0,1,7.08,0,157.11,157.11,0,0,0,21.25.78c8.41-.19,16.82.06,25.22.41,1.84.07,3.68.16,5.5.41a80.59,80.59,0,0,0,8.65.47c8.93.2,17.86.41,26.79.69,2.36.07,4.72.34,7.07.61a82.56,82.56,0,0,0,9.43.55c8.15,0,16.28.53,24.4,1.2,3.14.26,6.3.4,9.44.42a186.26,186.26,0,0,1,22,1.09c2.08.26,4.2.21,6.3.27,4.2.13,8.4.21,12.6.36,1.31.05,2.61.25,3.92.42a3.86,3.86,0,0,1,3,2.23,75.46,75.46,0,0,1,4.52,10.05c1.42,3.95,2.89,7.89,4.31,11.84.88,2.47,1.71,5,2.56,7.45.2.58-.63,1.77-1.21,1.73-2.88-.21-5.75-.43-8.63-.61-2.62-.16-5.25-.27-7.87-.41a10.18,10.18,0,0,1-1.57-.14,121.56,121.56,0,0,0-14.12-1.24,99.65,99.65,0,0,1-10.2-1,52,52,0,0,0-8.65-.52,80.15,80.15,0,0,1-11.78-.82A59.6,59.6,0,0,0,887.85,210Z" transform="translate(-657.93 -160.41)"/><path class="cls-1" d="M710.82,220.83c3.41,0,6.82.06,10.23.18a2,2,0,0,1,1.21.87,3.46,3.46,0,0,1,.49,1.47c.74,4.4,1.45,8.79,2.55,13.13a60,60,0,0,1,1.87,13.23,50.85,50.85,0,0,0,.83,8.62c.1.51.13,1,.18,1.57.27,3.4.39,6.82.83,10.2.41,3.12,1,6.22,1.38,9.34.66,5.21,1.49,10.39,1.67,15.65.05,1.31.35,2.6.52,3.9.25,1.82.55,3.64.73,5.47.31,3.13.56,6.27,1.14,9.37.29,1.55.32,3.14.5,4.7.26,2.35.56,4.69.85,7,.09.79.29,1.56.32,2.34.26,6.31,1.53,12.51,2.12,18.78.15,1.56.43,3.12.65,4.67.25,1.82.51,3.64.74,5.46.1.78.1,1.58.21,2.36.42,2.85.94,5.69,1.3,8.56a75.12,75.12,0,0,0,1.11,8.58c.61,6.27,1.92,12.44,2.45,18.73.38,4.44,1.29,8.83,2,13.23.21,1.3.56,2.58.66,3.88.3,3.93,1,7.8,1.56,11.7.71,5.21,1.77,10.35,2.58,15.53.12.78.4,1.54.45,2.32.33,5.25,1.58,10.37,2.14,15.59.54,5,1.16,9.91,1.68,14.87.49,4.69,1.49,9.32,2.24,14a18.83,18.83,0,0,1,.35,6.26c-.08.44-.59.83-1,1.18a1.3,1.3,0,0,1-.75.17,104.6,104.6,0,0,1-16.51-.11,2.61,2.61,0,0,1-2.19-1.94,24.83,24.83,0,0,1-1.16-5.38c-.32-5-1.65-9.83-2.08-14.81-1.18-4.31-1.4-8.8-2.33-13.17-.65-3.08-1.09-6.21-1.45-9.33-.79-6.79-2.34-13.44-3.35-20.18-1.24-8.31-3-16.54-3.85-24.89-1.52-7.74-2.1-15.6-3-23.41-.13-1-.18-2.1-.41-3.12A69.46,69.46,0,0,1,719,367.26c-.09-1.3-.3-2.6-.5-3.9s-.48-2.58-.62-3.88c-.37-3.4-.79-6.78-1.43-10.14s-.69-6.79-1.54-10.11a18.3,18.3,0,0,1-.33-2.34c-.65-6-1.61-12-2.77-17.88a30.08,30.08,0,0,1-.46-3.12,135.64,135.64,0,0,0-2.51-14.73c-.32-1.54-.56-3.1-.8-4.66-.64-4.15-1.44-8.27-2.3-12.38-.8-3.85-1.58-7.71-2.12-11.61-.71-5.2-1.69-10.36-2.57-15.53a34.11,34.11,0,0,1-.64-3.88c-.32-6.3-1.65-12.49-2.07-18.78-.21-3.14-1.16-6.2-1.1-9.37,0-.79.12-1.57.19-2.35a2,2,0,0,1,1.58-1.51c1.31-.09,2.61-.21,3.92-.22,2.63,0,5.25,0,7.88,0Z" transform="translate(-657.93 -160.41)"/><path class="cls-1" d="M691.5,208.1a179,179,0,0,1-18.09-.58,1.41,1.41,0,0,1-1.06-1,2.65,2.65,0,0,1-.12-1.55c.51-2.31.87-4.66,1.56-6.92a111.32,111.32,0,0,0,2.66-11.5c.59-3.11,1.53-6.11,2.37-9.15a11.88,11.88,0,0,1,1.28-2.87,1.91,1.91,0,0,1,1.27-.81c2.62-.21,5.24-.47,7.86-.43,8.41.14,16.81.4,25.21.62a10.61,10.61,0,0,1,1.08,1,1.13,1.13,0,0,1,.16.75c-.53,3.64-1,7.28-1.3,11a15.51,15.51,0,0,1-.33,2.34c-1.27,5.64-1.91,11.39-3,17.06a3,3,0,0,1-2.17,2c-.78,0-1.57.15-2.35.15-2.37,0-4.73,0-7.09-.06Z" transform="translate(-657.93 -160.41)"/><path d="M767.53,350a106.75,106.75,0,0,1,1.63-16.74,64.67,64.67,0,0,1,3.56-12.86,39.62,39.62,0,0,1,3.3-6.24,76.94,76.94,0,0,1,10.67-13.58,75.84,75.84,0,0,1,7.33-7.12,48.71,48.71,0,0,1,10.05-6.13,72.4,72.4,0,0,1,22.69-6.1,56.89,56.89,0,0,1,16.46.69,60.82,60.82,0,0,1,15.61,5.18,55.26,55.26,0,0,1,13.64,9.25c1.53,1.42,3,3,4.36,4.53,1.22,1.37,2.33,2.83,3.46,4.28a50.42,50.42,0,0,1,6.52,10.73,80.83,80.83,0,0,1,4.82,12.46,16.35,16.35,0,0,0,.8,2.22,25.13,25.13,0,0,1,2,9.17,23.39,23.39,0,0,0,.33,3.13,50.67,50.67,0,0,1,0,16.44c-.6,3.89-1,7.79-2,11.62-.84,3.31-1.84,6.56-3,9.78a50.34,50.34,0,0,1-7.44,13.8,86.7,86.7,0,0,1-8.32,9.44,36,36,0,0,1-8.22,6,48.42,48.42,0,0,1-7.88,3.54c-1.5.49-3,1-4.46,1.56a67.74,67.74,0,0,1-6.62,2.47,70.7,70.7,0,0,1-7,1.05,17.06,17.06,0,0,1-3.91.16c-2.62-.18-5.24-.29-7.86-.41a73.27,73.27,0,0,1-19.31-3.42,46.19,46.19,0,0,1-5.12-2c-2.38-1.09-4.72-2.28-7.08-3.44A44,44,0,0,1,780,395.25a57.24,57.24,0,0,1-7.16-14,99.93,99.93,0,0,1-4.37-16.73A84.07,84.07,0,0,1,767.53,350Zm65.89,55.73h.75c5,.08,10-.3,14.57-2.63.93-.47,2-.66,3-1.05,2.19-.87,4.38-1.77,6.54-2.71a20.72,20.72,0,0,0,6.44-4.46c1.86-1.86,3.68-3.76,5.39-5.75a40.58,40.58,0,0,0,7.82-13.57A76.35,76.35,0,0,0,882,356.34,64.68,64.68,0,0,0,880.38,336a87.76,87.76,0,0,0-5.28-14.8,31.93,31.93,0,0,0-3.54-6.13q-1.89-2.52-3.89-4.95a43.54,43.54,0,0,0-20.61-13.91,29.12,29.12,0,0,0-3.76-1.15c-2.84-.52-5.7-.93-8.56-1.3a13.28,13.28,0,0,0-3.15,0c-5.22.55-10.46,1.08-15.47,2.77-5.24,1.77-10.37,3.78-14.61,7.52-1.18,1-2.37,2.07-3.45,3.21-2,2.1-3.87,4.29-5.83,6.42a31.17,31.17,0,0,0-4.5,6.44c-1,1.86-1.91,3.74-2.89,5.6a25.09,25.09,0,0,0-2.54,7.42c-.28,1.54-.38,3.13-.69,4.67-1.48,7.28-1.34,14.62-.81,22a14,14,0,0,0,.2,1.57,91.55,91.55,0,0,0,4.71,17.46c2.65,6.72,6.61,12.52,12.65,16.71A21.72,21.72,0,0,0,801,397.2c2.81,1.42,5.62,2.85,8.5,4.13a52.85,52.85,0,0,0,16,3.91C827.86,405.5,830.23,405.52,833.42,405.7Z" transform="translate(-657.93 -160.41)"/><path class="cls-2" d="M833.42,405.7c-3.19-.18-5.56-.2-7.91-.46a52.85,52.85,0,0,1-16-3.91c-2.88-1.28-5.69-2.71-8.5-4.13a21.72,21.72,0,0,1-2.66-1.69c-6-4.19-10-10-12.65-16.71A91.55,91.55,0,0,1,781,361.34a14,14,0,0,1-.2-1.57c-.53-7.35-.67-14.69.81-22,.31-1.54.41-3.13.69-4.67a25.09,25.09,0,0,1,2.54-7.42c1-1.86,1.91-3.74,2.89-5.6a31.17,31.17,0,0,1,4.5-6.44c2-2.13,3.85-4.32,5.83-6.42,1.08-1.14,2.27-2.17,3.45-3.21,4.24-3.74,9.37-5.75,14.61-7.52,5-1.69,10.25-2.22,15.47-2.77a13.28,13.28,0,0,1,3.15,0c2.86.37,5.72.78,8.56,1.3a29.12,29.12,0,0,1,3.76,1.15,43.54,43.54,0,0,1,20.61,13.91q2,2.43,3.89,4.95a31.93,31.93,0,0,1,3.54,6.13,87.76,87.76,0,0,1,5.28,14.8A64.68,64.68,0,0,1,882,356.34a76.35,76.35,0,0,1-4.12,19.19,40.58,40.58,0,0,1-7.82,13.57c-1.71,2-3.53,3.89-5.39,5.75a20.72,20.72,0,0,1-6.44,4.46c-2.16.94-4.35,1.84-6.54,2.71-1,.39-2,.58-3,1.05-4.61,2.33-9.54,2.71-14.57,2.63Z" transform="translate(-657.93 -160.41)"/><path d="M870.15,335.05c-7.29-9.22-7.29-9.22-15.85-17-8.18-7.46-9.73-6.55-17.29-13.24a4.09,4.09,0,0,1-.62-.26c-3.26-1.78-7.83-1.09-10.88,1.12-5.61,7.35-7.26,6.65-13.2,14.69-6.19,8.37-4.67,9.5-10.86,17.86-1.23,1.67-3.36,3.25-3.08,5.15.18,1.22,1.29,2,2.49,2.77a2.24,2.24,0,0,1,.36.14c2.14,1,4.45,1.57,6.55,2.67,1,.41,2,1.1,2.75.72a9.87,9.87,0,0,0,2.92-2.71c3-4,3.07-3.87,6.06-7.91s6.17-14,6.13-9c-.14,14.73-.15,15,.36,29.59s1.21,14.35,1.72,28.91c.07,2-.67,4.54.68,5.84s3.85.48,5.86.48a.57.57,0,0,1,0,.18l.19,0a.35.35,0,0,1,0-.16c2.07-.08,6.21.52,7.52-.88s.44-3.92.37-6c-.54-15.47-.22-15.45-.76-30.92s-2.42-16.1-2.89-31.29c-.23-7.13,6.76,4.33,12,9.15s5.28,5,10.56,9.78c1.52,1.39,2.88,3.68,4.8,3.6s3.06-2.49,4.45-4,3.69-2.89,3.6-4.81S871.43,336.67,870.15,335.05Z" transform="translate(-657.93 -160.41)"/></svg>